<?xml version="1.0" encoding="utf-8"?>
<!-- Generator: Adobe Illustrator 24.0.2, SVG Export Plug-In . SVG Version: 6.00 Build 0)  -->
<svg version="1.0" id="Layer_1" xmlns="http://www.w3.org/2000/svg" xmlns:xlink="http://www.w3.org/1999/xlink" x="0px" y="0px"
	 width="185px" height="188px" viewBox="0 0 185 188" style="enable-background:new 0 0 185 188;" xml:space="preserve">
<title>logos</title>
<linearGradient id="SVGID_1_" gradientUnits="userSpaceOnUse" x1="17.6987" y1="243.6036" x2="5.8287" y2="260.3636" gradientTransform="matrix(1 0 0 1 0 -206.8504)">
	<stop  offset="0" style="stop-color:#FFFFFF"/>
	<stop  offset="0.17" style="stop-color:#FFFFFF"/>
	<stop  offset="0.32" style="stop-color:#E0DEDF"/>
	<stop  offset="0.55" style="stop-color:#B3B2B1"/>
	<stop  offset="0.67" style="stop-color:#A3A1A1"/>
	<stop  offset="0.83" style="stop-color:#B0B0AE"/>
	<stop  offset="1" style="stop-color:#B5B4B4"/>
</linearGradient>
<path style="fill:url(#SVGID_1_);" d="M14.4,42.4L14,41.7c0-0.1,0-0.2,0-0.4c0-0.1-0.1-0.1-0.1-0.2h-0.1C14,41.6,14.2,42,14.4,42.4
	L14.4,42.4z"/>
<linearGradient id="SVGID_2_" gradientUnits="userSpaceOnUse" x1="8.6993" y1="262.0097" x2="61.8593" y2="203.1197" gradientTransform="matrix(1 0 0 1 0 -206.8504)">
	<stop  offset="0.19" style="stop-color:#359552"/>
	<stop  offset="0.4" style="stop-color:#22468C"/>
	<stop  offset="0.68" style="stop-color:#283B7D"/>
	<stop  offset="1" style="stop-color:#283473"/>
</linearGradient>
<path style="fill:url(#SVGID_2_);" d="M58.8,32.9c-0.6-7.3-3.7-14.2-8.8-19.4c-4.6-4.7-10.7-7.7-17.3-8.3c1.6,0.1,3.2,0.3,4.8,0.7
	c5.8,1.4,11.1,4.6,14.9,9.2c0.2,0.2,0.4,0.4,0.7,0.4c0.2,0,0.4-0.1,0.5-0.2c0.1-0.3,0.1-0.6-0.1-0.8l0,0l0,0l-0.1-0.1l-0.1-0.1l0,0
	c-3.9-5.9-9.9-10-16.8-11.7c-2-0.5-4.1-0.7-6.2-0.7c-5.1,0-10,1.3-14.4,3.9c-6.3,3.8-11,9.7-13.2,16.6C0.3,29.2,0.4,36.6,3,43.4
	c2.4,6.4,7.1,11.8,13.1,15.1c2.8,1.6,5.9,2.6,9.1,3.1c1.2,0.2,2.4,0.3,3.6,0.2c1.9,0,3.9-0.2,5.8-0.6l0.8-0.2c2-0.4,4-1,5.9-1.8
	c5.3-2.4,9.7-6.4,12.6-11.5c0.2-0.2,0.2-0.6,0.1-0.8c-0.1-0.2-0.3-0.3-0.5-0.3c0.3-0.6,0.5-1.2,0.8-1.8c1.3-3.3,2-6.9,2-10.4v-0.2
	l0,0c0-0.2-0.1-0.4-0.2-0.5c-0.1-0.1-0.2-0.2-0.4-0.2c-0.3,0-0.6,0.2-0.6,0.8c0,0.3,0,0.6,0,0.9c0,0.5,0,0.9-0.1,1.3l-0.3,2.2
	l-0.5,2.2c-0.1,0.4-0.2,0.9-0.4,1.3c-0.1,0.3-0.2,0.5-0.3,0.8c-1,2.8-2.4,5.4-4.2,7.7c-1.8,2.3-4,4.3-6.5,5.9
	c-1.2,0.7-2.4,1.4-3.7,1.9c-2.7,1.1-5.6,1.7-8.6,1.7c-1.8,0-3.6-0.2-5.4-0.6l-2-0.5l-1.9-0.7c-0.3-0.1-0.6-0.2-0.9-0.4l-0.9-0.5
	l-0.3-0.2L18.3,57l-0.9-0.5c-2.4-1.4-4.5-3.2-6.3-5.3c-1.8-2.1-3.3-4.5-4.4-7.1c-1.1-2.6-1.8-5.4-2.1-8.2l-0.1-2.2v-2.2
	c0-0.5,0.1-1,0.2-1.5c0-0.2,0.1-0.5,0.1-0.7l0.1-1.1C4.9,28,5,27.8,5,27.6s0.1-0.2,0.1-0.4s0.1-0.5,0.2-0.8c0.1-0.5,0.2-0.9,0.3-1.3
	L6.3,23l0.2-0.4c0.5-1.2,1-2.4,1.7-3.5c0.3-0.5,0.6-1,0.9-1.4c1.1-1.6,2.4-3.1,3.9-4.5c2.5-2.3,5.4-4.1,8.6-5.3
	c3.1-1.2,6.5-1.7,9.8-1.6c6.8,0.3,13.2,3.2,17.9,8C54,19.5,57,26,57.6,33c0.1,0.6,0.4,0.9,0.7,0.9c0.1,0,0.3-0.1,0.4-0.2
	C58.8,33.5,58.9,33.2,58.8,32.9z M28.7,4.1c-3,0.3-5.9,1.1-8.7,2.3c-2.7,1.3-5.2,3-7.5,5C10.8,13.1,9.3,14.9,8,17
	c-3,4.3-4.7,9.4-5,14.6c-0.2,3.8,0.4,7.6,1.6,11.2c1.2,3.5,3.1,6.8,5.6,9.6l0.1,0.2c-0.3-0.3-0.7-0.7-1-1.1
	c-2.2-2.5-3.9-5.3-5.1-8.4C3,40,2.3,36.6,2.2,33.2C2,29.8,2.5,26.3,3.6,23c2.1-6.7,6.6-12.4,12.5-16c4.2-2.6,9.1-4,14.1-4
	c1.9,0,3.8,0.2,5.7,0.6c2.4,0.6,4.8,1.4,7,2.7c-1.7-0.8-3.4-1.3-5.2-1.7C34.8,3.9,31.7,3.7,28.7,4.1z"/>
<g>
	<defs>
		<path id="SVGID_3_" d="M56.3,33.2c0,14.7-11.6,27-25.9,27S4.5,47.9,4.5,33.2S15.6,6.3,30.4,6.5C45.8,6.7,56.3,18.5,56.3,33.2z"/>
	</defs>
	<clipPath id="SVGID_4_">
		<use xlink:href="#SVGID_3_"  style="overflow:visible;"/>
	</clipPath>
	<g style="clip-path:url(#SVGID_4_);">
		<rect x="15.6" y="11.1" style="fill:#283473;" width="2.8" height="8.1"/>
		<rect x="21.7" y="11.1" style="fill:#283473;" width="3" height="8.1"/>
		<polygon style="fill:#283473;" points="31.9,19.2 35.8,11.1 32.7,11.1 29.3,18.1 29.3,11.1 26.4,11.1 26.4,19.2 31.9,19.2 		"/>
		<polygon style="fill:#D01D36;" points="27,39 27.5,41.6 30.1,41.6 28.2,31.7 24.1,31.7 24.1,41.6 27,41.6 		"/>
		<polygon style="fill:#D01D36;" points="34.5,39 34.5,41.6 37.3,41.6 37.3,31.7 33.4,31.7 31.6,41.6 34,41.6 		"/>
		<polygon style="fill:#D01D36;" points="48.5,31.7 45.3,31.7 43.2,37.7 41.1,31.7 38,31.7 41.6,41.6 44.8,41.6 		"/>
		<polygon style="fill:#1D8541;" points="29.7,51.3 32,51.3 34,41.6 31.6,41.6 30.9,45.8 30.1,41.6 27.5,41.6 		"/>
		<rect x="34.5" y="41.6" style="fill:#1D8541;" width="2.8" height="9.7"/>
		<rect x="24.1" y="41.6" style="fill:#1D8541;" width="2.9" height="9.7"/>
		<polygon style="fill:#1D8541;" points="41,51.3 43.2,45.1 45.4,51.3 48.5,51.3 44.8,41.6 41.6,41.6 38,51.3 		"/>
		
			<linearGradient id="SVGID_5_" gradientUnits="userSpaceOnUse" x1="24.8021" y1="250.1748" x2="13.3521" y2="266.3348" gradientTransform="matrix(1 0 0 1 0 -206.8504)">
			<stop  offset="0" style="stop-color:#FFFFFF"/>
			<stop  offset="0.19" style="stop-color:#FFFFFF"/>
			<stop  offset="0.33" style="stop-color:#E0DEDF"/>
			<stop  offset="0.55" style="stop-color:#B3B2B1"/>
			<stop  offset="0.67" style="stop-color:#A3A1A1"/>
			<stop  offset="0.83" style="stop-color:#B0B0AE"/>
			<stop  offset="1" style="stop-color:#B5B4B4"/>
		</linearGradient>
		<path style="fill:url(#SVGID_5_);" d="M32.4,60.7c0.1,0,1.3,0.2,1.5-0.2s-0.9-1-0.8-1.1s0.2-0.9,0.3-0.9s1.9,0,2,0
			s0.4-0.7,0.7-0.7s0.3,0.2,0.5,0.3c0.3-0.5,0.5-1,0.5-1.5c0.1-0.7-0.2-0.9,0.2-1.3s0.7-0.4,0.6-0.9s-0.6,0-1-0.2s-0.7-0.1-1.7,0.1
			s-1.5,0.6-1.4,1.3s-0.3,0.4-0.3,1s-0.8,0.7-0.7,1s-0.6,0-0.8-0.1c-0.9,0.1-1.8,0.3-2.6,0.6c-0.3,0-0.8-0.6-1.2-0.6
			s-0.6-0.6-0.6-1.2s-0.8-1-1.2-1.5c-0.3-0.7-0.5-1.5-0.4-2.2c-0.1-1.1,0-2.2,0.4-3.2c0.1-0.2,0.1-0.3,0.1-0.5
			c-0.1-0.1-0.3-0.2-0.5-0.2c-0.4,0-1.4-0.6-1.5-0.6s-0.2-0.5-0.3-0.7s0-0.7-0.3-0.9c-0.5-0.4-0.8-0.9-1-1.5c-0.2-0.8-1.5-1.1-2-1.2
			s-0.7,1-0.9,1.1c-0.5-0.2-0.9-0.4-1.3-0.7c-0.3-0.2-0.4-0.4-0.4-0.7c0-0.3-0.5-0.8-0.7-0.9c-0.4-0.4-0.9-0.8-1.3-1.2h-1.7
			l-0.4,0.5H11c0,0-2.4-0.9-2.9-1c-0.4-0.2-0.9-0.4-1.2-0.7l-2.5,0.3c0.2,0.3,0.3,0.7,0.6,1c0.5,0.7,0.8,1.4,0.9,2.2
			c0,0.4,0.8,0.7,1.4,1.1c0.4,0.4,0.7,1,0.5,1.5c-0.1,0.2-0.8-0.2-0.9,0.1s1,1.1,1.4,1.1s0.6,0.2,1.2,0.8s0.6,1.2,0.3,1.4
			s0.5,0.6,1.3,1.2c0.5,0.3,1,0.9,1.2,1.5c0.1,0.3,0.4,0,0.5-0.4s-0.2-0.5-0.2-0.9s-0.6-0.4-0.9-0.4s0-0.7-0.3-1
			c-0.3-0.5-0.6-1-0.7-1.6c-0.1-0.6-0.9-1.1-1.2-1.7c-0.2-0.5-0.5-0.9-0.9-1.2c-0.2-0.2,0.3-0.4,0.1-0.6s-0.5-0.2-0.9-0.4
			c-0.4-0.2-0.6-0.5-0.6-0.9c-0.1-0.6-0.2-1.1-0.4-1.7c-0.1-0.3,0.3-0.3,0.4-0.1s0.2,0.3,0.4,0.2c0.2-0.1,0.5,0,0.6,0.2c0,0,0,0,0,0
			c0.1,0.3,0.5,0,0.7,0.2s-0.4,0.3,0.2,1.5s0.2,0.5,0.2,1.3s0.4,0.4,0.5,0.3s0.5,0.2,0.8,0.7s0.9,0.4,0.9,0.7c0,0.3,0.2,0.7,0.5,0.8
			c0.4,0.1,0.5,0.6,0.8,0.6s0.3,0.4,0.2,0.7s0,0.6,0.7,0.9s0.4,0.3,0.9,0.9c0.8,0.9,1.6,1.8,2.4,2.7c0.2,0.4,0.4,0.8,0.5,1.2
			c0.1,0.4-0.2,0.5,0,0.8s-0.4,0.2-0.3,0.4s0.3,1.4,0.9,1.4s1.1,0.7,1.6,1.1s1.1,0.3,1.8,0.6c0.7,0.4,1.4,0.8,2.2,1.1
			c0.9,0.3,1.7,0.6,2.5,1.1c0.7,0.3,1.6,0.3,2.2-0.1c0.7-0.2,1.4-0.1,2,0.3c0.4,0.3,0.8,0.6,1.2,1C31.9,61.3,32.3,60.7,32.4,60.7"/>
		
			<linearGradient id="SVGID_6_" gradientUnits="userSpaceOnUse" x1="28.7279" y1="252.6189" x2="16.9479" y2="269.2489" gradientTransform="matrix(1 0 0 1 0 -206.8504)">
			<stop  offset="0" style="stop-color:#FFFFFF"/>
			<stop  offset="0.17" style="stop-color:#FFFFFF"/>
			<stop  offset="0.32" style="stop-color:#E0DEDF;stop-opacity:0.71"/>
			<stop  offset="0.55" style="stop-color:#B3B2B1;stop-opacity:0.24"/>
			<stop  offset="0.67" style="stop-color:#A3A1A1;stop-opacity:0"/>
			<stop  offset="0.83" style="stop-color:#B0B0AE;stop-opacity:0"/>
			<stop  offset="1" style="stop-color:#B5B4B4;stop-opacity:0"/>
		</linearGradient>
		<path style="fill:url(#SVGID_6_);" d="M24.6,51.3c0.4,0.8,0.9,1.7,1.4,2.5c-0.1-0.4-0.1-0.8-0.1-1.2c-0.1-1.1,0-2.2,0.4-3.2
			c0.1-0.2,0.1-0.3,0.1-0.5c-0.1-0.1-0.3-0.2-0.5-0.2c-0.4,0-1.4-0.6-1.5-0.6s-0.1,0-0.1-0.1c-0.1,0.6-0.2,1.2-0.2,1.9
			C24.2,50.3,24.4,50.8,24.6,51.3C24.5,51.2,24.6,51.3,24.6,51.3z"/>
		<path style="fill:#D01D36;" d="M16.9,29.6c0.8,0.9,2,1.4,3.2,1.4c1.2,0,2.4-0.5,3.2-1.3c0.9-0.9,1.4-2.1,1.3-3.3v-7.2h-3v7.1
			c0,0.4-0.2,0.9-0.5,1.2C20.9,27.8,20.4,28,20,28c-0.4,0-0.9-0.2-1.2-0.5c-0.3-0.3-0.5-0.7-0.5-1.2v-7.1h-2.8v7.2
			C15.6,27.6,16,28.8,16.9,29.6z"/>
		<polygon style="fill:#D01D36;" points="29.3,30.8 29.3,24.6 30.1,22.8 33.1,30.8 36.5,30.8 31.9,19.2 26.4,19.2 26.4,30.8 		"/>
		
			<linearGradient id="SVGID_7_" gradientUnits="userSpaceOnUse" x1="35.0882" y1="230.0869" x2="55.2182" y2="211.8869" gradientTransform="matrix(1 0 0 1 0 -206.8504)">
			<stop  offset="0" style="stop-color:#FFFFFF"/>
			<stop  offset="2.000000e-02" style="stop-color:#FCFCFC"/>
			<stop  offset="0.32" style="stop-color:#CBC9C9"/>
			<stop  offset="0.54" style="stop-color:#ADABAB"/>
			<stop  offset="0.67" style="stop-color:#A3A1A1"/>
			<stop  offset="0.83" style="stop-color:#B0B0AE"/>
			<stop  offset="1" style="stop-color:#B5B4B4"/>
		</linearGradient>
		<path style="fill:url(#SVGID_7_);" d="M43.5,7.7L43.5,7.7c-0.1-0.1-0.2-0.1-0.2-0.1c0,0,0,0,0,0l-0.1,0.1L43.5,7.7z M40.9,10
			l0.3-0.5c0,0,0-0.1,0-0.1l-0.5-0.3c0,0-0.1,0-0.1,0l-0.3,0.2c0,0,0,0.1,0,0.1c0,0,0,0,0,0l0.2,0.1c0,0,0,0.1,0,0.1c0,0,0,0,0,0
			l-0.1,0.1c0,0,0,0.1,0,0.1c0,0,0,0,0,0l0.3,0.1C40.8,10,40.8,10,40.9,10 M44.9,6l-0.1-0.1c0,0-0.1,0-0.1,0l-0.2,0.2
			c0,0-0.1,0-0.1,0c0,0,0,0,0,0V5.9c0,0-0.1,0-0.1,0c0,0,0,0,0,0l-0.1,0.1c0,0-0.1,0-0.1,0c0,0,0,0,0,0c0,0,0.1-0.1,0-0.1
			c0,0-0.1-0.1-0.1,0h-0.1c0,0-0.1,0-0.1,0.1v0.4L44,6.1v0.1c0,0,0,0.1,0,0.1l0,0l0,0l-0.1,0.5c0,0,0,0,0,0.1l0.3,0.3
			c0,0,0,0.1,0,0.2c0,0,0,0,0,0L44,7.4c0,0,0,0.1,0,0.2c0,0,0,0,0,0l0,0c0,0,0,0,0.1,0l0.3-0.1l0,0l0.2,0.1c0,0,0.1,0,0,0V7.5l0,0
			l-0.2-0.1c0,0,0,0,0-0.1l-0.1-0.4c0,0,0-0.1,0-0.1l0.5-0.4c0,0,0,0,0-0.1L44.9,6C45,6.1,45,6,44.9,6 M42.9,8.9l-0.1-0.2l0,0V8.2
			c0,0,0,0,0-0.1L42.5,8c0,0-0.1,0-0.1,0.1c0,0,0,0,0,0l0.1,0.4c0,0,0,0.1,0,0.1s-0.1,0-0.1,0l0,0l-0.1-0.1c0,0-0.1,0-0.1,0
			c0,0,0,0,0,0c0,0-0.1,0-0.1,0l0,0c0,0-0.1,0-0.1,0.1c0,0,0,0,0,0.1l0.3,0.3c0,0,0,0.1,0,0.1c0,0,0,0,0,0V9l0.4,0.1
			c0,0,0.1,0,0.1,0L42.9,9C42.9,9,42.9,9,42.9,8.9 M43.3,7.1l-0.1,0.2c0,0,0,0.1,0,0.1l0,0c0,0,0.1,0,0.1,0l0-0.1c0,0,0-0.1,0-0.1
			l0,0C43.4,7.2,43.4,7.1,43.3,7.1C43.3,7.1,43.3,7.2,43.3,7.1 M41.5,9.9l0.4-0.1c0,0,0.1-0.1,0-0.1c0,0,0,0,0,0l-0.6-0.1
			c0,0,0,0-0.1,0l-0.1,0.2c0,0,0,0.1,0,0.1c0,0,0,0,0,0L41.5,9.9 M42,7.5l0.2,0.1c0.1,0,0.2,0,0.2,0l0.2-0.1L42,7.5z M41.6,9
			l-0.4,0.1h0.2c0,0,0,0,0.1,0L41.6,9z M54.5,9.1C54.5,9.1,54.5,9,54.5,9.1C54.4,9,54.4,9,54.5,9.1l-0.4,0L54.5,9.1
			C54.4,9.1,54.4,9.1,54.5,9.1C54.5,9.1,54.5,9.1,54.5,9.1 M55.9,8.2l0.3-0.3c0,0,0,0,0-0.1l0,0c0,0-0.1,0-0.1,0c0,0,0,0,0,0l-0.1,0
			l0,0h-0.2c0,0-0.1,0-0.1,0.1v0.2C55.7,8.1,55.8,8.2,55.9,8.2L55.9,8.2L55.9,8.2 M56.7,7.9L56.7,7.9C56.6,7.9,56.6,7.9,56.7,7.9
			L56.6,8c0,0,0,0.1,0,0.1c0,0,0,0,0,0h0c0,0,0.1-0.1,0-0.1C56.8,8,56.7,8,56.7,7.9 M50.7,8V7.8c0,0,0,0,0-0.1h0c0,0-0.1,0-0.1,0
			c0,0,0,0,0,0L50.5,8c0,0,0.1,0,0.1,0c0,0,0,0,0,0H50.7L50.7,8 M51,7.6l-0.2,0.2c0,0,0,0.1,0,0.1l0.2,0.2l0,0v0.1c0,0,0.1,0,0.1,0
			c0,0,0,0,0,0l0.1-0.1c0,0,0-0.1,0-0.1c0,0,0,0,0,0L51,7.8h0.2c0,0,0.1,0,0.1-0.1c0,0,0,0,0,0V7.5l0,0l-0.2-0.2c0,0-0.1,0-0.1,0
			l-0.2,0.2l0,0v0.1c0,0,0,0.1,0,0.1c0,0,0,0,0,0L51,7.6z M55.4,7.7l-0.1-0.1c0,0,0,0-0.1,0L55,7.7c0,0,0,0.1,0,0.1
			c0,0.1,0,0.1,0,0.2c0,0,0.1,0,0.1,0c0,0,0,0,0,0L55.4,7.7C55.4,7.8,55.4,7.7,55.4,7.7 M51.6,7.5L51.6,7.5
			C51.6,7.5,51.6,7.5,51.6,7.5C51.5,7.5,51.5,7.5,51.6,7.5C51.5,7.5,51.5,7.6,51.6,7.5C51.6,7.6,51.6,7.6,51.6,7.5
			C51.6,7.5,51.6,7.5,51.6,7.5 M38.5,13.1L38.5,13c0,0,0-0.1,0-0.1l0.2-0.1c0,0,0.1,0,0.1-0.1v-0.1c0,0,0.1,0,0.1,0c0,0,0,0,0,0l0,0
			c0,0,0,0.1,0,0.1l-0.1,0.1L39,13l0.2-0.2c0,0,0-0.1,0-0.1l-0.1-0.2c0,0,0-0.1,0-0.1c0,0,0.1,0,0.1,0c0.1,0,0.1,0,0.1-0.1
			c0,0,0,0,0,0l0.2-0.9c0,0,0,0,0-0.1l0.2-0.2c0,0,0-0.1,0-0.1l-0.1-0.3l0,0L39.2,10l0,0l-0.4-0.1l0,0l-0.1-0.1h-0.1h-0.1l0,0
			l-0.3-0.2l0,0H38l0,0l-0.2-0.1h-0.1l-0.3,0.1c0,0-0.1,0-0.1,0L37,9.2c0,0-0.1,0-0.1,0l-0.9,0.2c0,0-0.1,0.1-0.1,0.1v1.1
			c0,0,0,0.1,0,0.1l0.2,0.1c0,0,0.1,0,0.1,0l0.4-0.2h0.1l0.2,0.1c0,0,0.1,0,0.1,0.1l0.2,0.6c0,0,0,0,0,0.1l-0.3,0.8c0,0,0,0.1,0,0.1
			l0.1,0.2l0,0L37,13l0,0v0.1l0.1-0.1c0,0,0.1-0.1,0.1,0c0,0,0,0,0,0l0,0c0,0,0,0,0.1,0l0.3,0.1c0,0,0,0,0.1,0l0.1-0.1
			c0,0,0.1,0,0.1,0c0,0,0,0,0,0l0.2,0.3c0,0,0.1,0,0.1,0l0.1-0.1c0,0,0-0.1,0-0.1 M40.9,28.5L40.9,28.5l-0.2-0.1l0.1,0.3l0,0
			l0.2,0.1l0,0v-0.2l0,0L40.9,28.5z M41.5,11.1l-0.3,0.4l0.2,0.4l0.3-0.2l0,0l0.2-0.5c0,0,0-0.1,0-0.1L41.5,11.1 M44.4,27.5l0.3-0.4
			c0,0,0,0,0-0.1l-0.1-0.9l0,0l-0.6-0.8l0,0L43.6,25c0,0-0.1,0-0.1,0l-0.3,0.2l0,0H43c0,0-0.1,0-0.1-0.1v-0.4l0,0l-0.1-0.2
			c0,0,0-0.1,0-0.1c0,0,0,0,0.1,0l0.7,0.1c0,0,0,0,0.1,0l0.2-0.2l0,0l0.2-0.7c0-0.1,0-0.2,0-0.3c0,0,0-0.1,0-0.1l-0.1-0.4
			c0,0,0-0.1,0-0.1v-0.1c0-0.1,0-0.2-0.1-0.3l0,0l0,0h-0.1c0,0-0.1-0.1-0.1-0.1L43.6,22c0,0,0,0,0-0.1l-0.1-0.1l0.2,0.1
			c0,0,0.1,0.1,0.1,0.1v0.1c0,0,0,0.1,0.1,0.1l0.2,0.1c0,0,0.1,0.1,0.1,0.1v0.1c0,0,0,0.1,0,0.1l0,0c0,0.1,0,0.2,0.1,0.2l0,0
			c0,0,0,0,0.1,0.1l0.1,0.1l0.1-0.9V22c0-0.1,0.1-0.2,0.2-0.2c0.1,0,0.1,0,0.2,0h0.1l-0.1-0.2c0,0,0-0.1,0-0.1v-0.1c0,0,0,0,0-0.1v0
			c0,0,0,0,0-0.1l0.2-0.6c0,0,0-0.1,0-0.1l-0.1-0.5c0,0,0,0,0,0l-0.3-0.5c-0.1-0.1-0.1-0.2,0-0.2l0,0c0-0.1,0-0.1,0-0.2
			c0,0,0-0.1,0-0.1l0.3-0.6L45,18l0.1-0.4c0,0,0-0.1,0-0.1l0.5-0.7l0,0l0.1-0.4l0,0l-0.1-0.1l0,0l0.2-1l0,0l-0.2-0.3
			c0,0,0-0.1,0-0.1v-0.3c0,0,0,0,0-0.1l-0.1-0.4c0-0.1-0.1-0.1-0.1-0.1h-0.1l0,0L45,14c-0.1,0-0.1-0.1-0.1-0.1l-0.2-0.4
			c0,0,0-0.1-0.1-0.1l-0.1-0.1c0,0,0-0.1,0-0.1L44.4,13c0,0,0-0.1,0-0.1l0.1-0.2l0.1,0.2V13l0.3,0.4c0,0,0,0,0,0l0.3,0.2
			c0,0,0.1,0,0.2,0h0.1c0.1,0,0.1,0,0.2,0.1l0.2,0.2c0,0,0.1,0,0.1,0.1h0.1c0.1,0,0.2,0,0.2-0.1c0,0,0-0.1,0-0.1c0-0.1,0-0.1,0-0.2
			l0,0c0,0,0-0.1,0-0.1l0,0c0-0.1,0-0.2-0.1-0.3l-0.3-0.1c-0.1,0-0.1-0.1-0.1-0.2l0,0l0.4,0.1c0,0,0.1,0,0.1,0.1l0.2,0.3
			c0,0,0.1,0.1,0.1,0.1l0.2,0.1c0,0,0.1,0,0.1,0h0.1c0,0,0.1,0,0.1,0h0.1h0.1l0.5-0.1l0,0h0.2c0,0,0.1,0,0.1-0.1l0,0
			c0,0,0.1,0,0.1-0.1h0.3c0,0,0.1,0,0.1-0.1l0,0c0,0,0-0.1,0.1-0.1l0.4-0.1H49l0.3,0.1c0,0,0.1,0,0.1,0l0.2-0.1c0,0,0-0.1,0-0.1V12
			c0-0.1,0-0.1-0.1-0.1c0,0,0,0-0.1,0L49,11.1l0,0l-0.2-0.4c0-0.1-0.1-0.1-0.2-0.1c-0.1,0-0.1,0-0.1-0.1l-0.1-0.1l0-0.1l-0.1-0.2
			c0,0,0-0.1,0-0.1l-0.1-0.1c0,0-0.1,0-0.1,0l0,0c0,0-0.1,0-0.1,0l-0.2-0.2l0,0l-0.3-0.1h-0.1l0,0c0,0-0.1-0.1-0.1-0.1l-0.2-0.1V9.2
			h0.5l0,0l0.5,0l-0.2-0.1c-0.1,0-0.1,0-0.2-0.1V8.9c0,0,0-0.1,0-0.1c0,0,0,0,0.1,0h0.1L48,8.7l0,0L49,9l0,0l0.4-0.1h0L49.7,9
			c0,0,0,0,0.1,0L50,8.9c0,0,0,0,0-0.1V8.8c0,0,0-0.1,0.1-0.1h0.2l0,0c0-0.1,0-0.1,0-0.2l-0.1-0.2c0,0-0.1,0-0.1,0H50c0,0,0,0-0.1,0
			l0-0.3c0,0,0,0-0.1-0.1l-0.4-0.2l-0.2-0.3l-0.3-0.2l-0.1-0.1h-0.2L48.7,7l-0.1-0.2l-0.5-0.1l0.3-0.1l-0.2-0.5l-0.2,0.1
			c0,0-0.1,0-0.1,0l0,0c-0.1,0-0.1,0-0.2,0.1l-0.1,0.1l-0.1-0.1l-0.1,0.1c-0.1,0.1-0.1,0.1-0.2,0l0,0c-0.1-0.1-0.2,0-0.2,0
			c0,0,0,0,0,0.1l0,0c0,0.1-0.1,0.1-0.1,0.1h-0.1c0,0-0.1,0-0.1,0l-0.1-0.1v0.5c0,0,0,0,0,0.1l-0.1,0.2L46.4,7
			c0-0.1-0.1-0.1-0.1-0.1c-0.1,0-0.1-0.1-0.1-0.1V6.5L46,6.5l0,0v0.2l0,0h-0.1c0,0,0,0,0,0L46,6.5l0,0l-0.2,0.1l0,0v0.2l0,0h-0.1
			c0,0,0.3,0.2,0.3,0.2l-0.4,0.2l0,0l0.2,0.2l-0.3-0.2l0,0L45.1,7 M45,7l-0.2,0.3l0,0l-0.1,0.1c0,0,0,0,0,0.1l0.4,0.3l-0.3-0.2l0,0
			h-0.1v0.1l0,0L45,7.9h-0.1v0.2l-0.1-0.2l0,0h-0.1l0,0l-0.2,0.1l0,0V8l-0.2-0.1h-0.2c0,0,0,0,0,0.1l0.1,0.2l0,0l-0.1,0.1L44,8
			 M44,8h-0.2c0,0-0.1,0.1-0.1,0.1c0,0.1,0,0.1-0.1,0.1c0,0,0,0,0,0h-0.1h-0.2l0,0l-0.3-0.3l0,0H43c0,0-0.1,0-0.1,0.1c0,0,0,0,0,0v0
			l0,0l0.2,0.2l0,0l0.1,0.2h-0.1h-0.1l0,0c0,0-0.1,0-0.1,0c0,0,0,0,0,0.1v0.2c0,0,0,0,0,0.1l0,0c0,0,0,0,0,0.1V9c0,0,0,0.1,0.1,0.1
			l1.1,0.1H44c0,0-0.1,0-0.1,0.1c0,0,0,0,0,0v0.1l-0.2-0.1h0l-0.5,0.1l0,0v0.1l0,0l-0.5,0.1c0,0,0,0.1,0,0.1l0,0c0,0,0,0.1,0,0.1
			l-0.5,0.2l0,0L42,10.1h0h-0.2c0,0-0.1,0-0.1,0.1v0.1c0,0,0,0.1,0,0.1l0.1,0.1h-0.5l0,0l-0.4,0.3h-0.3l0,0c0,0,0,0.1,0,0.1l0.2,0.2
			c0,0,0.1,0.1,0.1,0c0,0,0,0,0,0l0.1-0.1l0.4-0.1l0,0l0.2-0.2l0,0H42c0,0,0,0,0.1,0l0.3-0.5c0,0,0.1,0,0.1,0c0,0,0,0,0,0v0.1l0,0
			h0.8h-0.7l0,0l-0.3,0.2c0,0,0,0,0,0.1l0,0c0,0,0,0.1,0.1,0.1c0,0,0,0,0,0l0.1-0.1l0,0l0.2,0.1c0,0,0,0.1,0,0.1c0,0,0,0,0,0
			L42.6,11c0,0.1,0,0.1,0.1,0.1L43,11l0,0l0.2-0.2c0,0,0.1,0,0.1,0l0,0c0,0,0,0.1,0,0.1c0,0,0,0,0,0L43,11.1c0,0,0,0,0,0.1l0.1,0.5
			l-0.2-0.3c0,0-0.1,0-0.1,0l-0.4,0.2l0,0l-0.2,0.3c0,0,0,0.1,0,0.1l0.1,0.2l-0.2,0.3h-0.5l-0.9,0.3l0,0l-0.1,0.1c0,0-0.1,0.1-0.1,0
			c0,0,0,0,0,0l0,0c0,0-0.1-0.1-0.1,0c0,0,0,0,0,0L40.2,13l0,0l0,0.3c0,0,0,0.1,0,0.1c0,0,0.1,0,0.1,0l0,0c0,0,0.1,0,0.1,0
			c0,0,0,0,0,0l0.2,0.1c0,0,0,0,0,0.1l0.1,0.8c0,0,0,0.1,0.1,0.1c0,0,0,0,0,0l0.1-0.1c0.1,0,0.1-0.1,0.1-0.1c0-0.1-0.1-0.1-0.1-0.1
			l0,0v-0.2c0,0,0-0.1,0.1-0.1c0,0,0,0,0.1,0c0,0,0,0,0,0.1l0.1,0.7c0,0,0,0,0,0.1l0.3,0.3l0.1-0.1 M41.7,14.7L42,15
			c0,0,0.1,0,0.1,0l0.2-0.1c0,0,0.1,0,0.1,0l0.2,0.2c0,0,0,0.1,0,0.1c0,0-0.1,0-0.1,0l0,0l-1.1,0.4c0,0-0.1,0-0.1,0.1l-0.3,0.9
			c0,0.1,0,0.1,0.1,0.1l0,0c0.1,0,0.1,0.1,0,0.2c0,0,0,0,0,0c0,0-0.1,0.1,0,0.2c0,0,0.1,0,0.1,0h0.2c0,0,0.1,0,0.1,0l0.2,0.3
			l-0.5,0.2v0.2l-0.4-0.1c0,0-0.1,0-0.1,0l-0.2,0.4c0,0,0,0-0.1,0.1L40,18.3c-0.1,0-0.1,0.1-0.1,0.1v0.3v0.4c0,0,0,0,0,0.1l0.1,0.2
			l-0.2,0h-0.1l-0.1-0.1c0,0,0-0.1,0-0.1l0-0.2c0-0.1,0-0.1-0.1-0.1c-0.1,0-0.1,0-0.2,0c0,0,0,0,0,0L39.4,19c0,0,0,0,0,0.1v0.2
			L39.3,19c0,0,0,0,0-0.1v-0.3c0,0,0-0.1,0-0.1l-0.6-0.4l0,0l-0.2-0.2l0,0l-0.7-0.3l0,0h-0.6l0,0l-0.5-0.2h-0.2c0,0-0.1,0.1,0,0.1
			c0,0,0,0,0,0l0.1,0.1l0,0v0.1c0,0,0.1,0,0.1,0l0,0c0,0,0.1,0,0.1,0l0.5,0.4c0,0,0.1,0.1,0,0.1c0,0,0,0,0,0l-0.2,0.1c0,0,0,0,0,0.1
			v0.2c0,0,0,0.1-0.1,0.1c0,0,0,0,0,0H37c0,0-0.1,0-0.1,0.1c0,0,0,0,0,0l-0.1,0.2c0,0,0,0,0,0.1l0,0c0,0,0,0.1,0,0.1c0,0,0,0,0,0
			l-0.8,0.2L35.4,19L35,18.9l-0.1-0.1l-0.5-0.2l0,0l-0.2-0.2l0,0l-0.3-0.1c0,0-0.1,0-0.1,0.1c0,0,0,0,0,0.1l0.1,0.1c0,0,0,0.1,0,0.1
			l-0.1,0.1c0,0-0.1,0-0.1,0l0,0c0,0-0.1,0-0.1,0c0,0,0,0,0,0.1l0.1,0.2h-0.1c0,0-0.1,0-0.1,0.1c0,0,0,0,0,0v0.1l0,0l0.2,0.2l0,0
			l0.3,0.1l0,0l0.4,0.3c0,0,0,0.1,0,0.1c0,0,0,0,0,0L34.5,20c0,0,0,0.1,0,0.1v0.1c0,0.1,0,0.1-0.1,0.1c0,0-0.1,0-0.1,0l0,0
			c0,0,0,0.1,0,0.1c0,0,0,0,0,0l0.3,0.4l0,0c0,0,0.1,0,0.1,0l0.2,0.1c0,0,0,0,0,0.1v0.4v0.4l0.4,0.5c0,0,0.1,0,0.1,0h0.2
			c0,0,0.1,0,0.1,0l0.3,0.1l0,0l0.4,0.2l0,0h0.2l0,0l0.4,0.2h-0.8l0,0l-0.6-0.1c0,0,0,0-0.1,0l-0.3,0.3c0,0-0.1,0-0.1,0L35,23l0,0
			l-0.2-0.1c0,0,0,0,0-0.1l-0.1-0.3l0,0l-0.5-0.8l-0.5-0.4l-0.2,0.2L33,21.4c0,0,0,0,0,0l-0.2-0.2c0,0-0.1,0-0.1,0c0,0,0,0,0,0
			l-0.5,0.4c0,0,0,0-0.1,0l-0.5-0.1l0,0h-0.1c0,0,0,0-0.1,0l-0.3-0.2c0,0-0.1,0-0.1,0l-0.3,0.1c0,0-0.1,0-0.1,0l0-0.1
			c0,0-0.1,0-0.1,0l-0.1,0.1l0,0L30,21.2c0,0,0,0,0,0L29.9,21c0,0,0,0,0,0l-0.3-0.1c0,0,0,0-0.1,0L29.3,21c0,0,0,0.1,0,0.1l0.1,0.2
			c0,0,0.1,0,0.1,0c0,0,0,0,0,0l0.1-0.1c0,0,0.1,0,0.1,0c0,0,0,0,0,0l0.2,0.3c0,0,0,0,0,0.1l-0.1,0.2c0,0,0,0.1,0.1,0.1l0.1,0
			c0,0,0.1,0,0.1-0.1v-0.1c0,0,0-0.1,0.1-0.1h0.2c0,0,0.1,0,0.1,0.1c0,0,0,0,0,0c0,0,0,0.1,0.1,0.1c0,0,0,0,0,0h0.2c0,0,0,0,0,0
			l0.1,0.1c0,0,0.1,0,0.1,0l0.2-0.1c0,0,0.1,0,0.1,0l0.1,0.3l0,0l0.3,0.1l0,0l0.1,0.2l0,0l0.1,0c0.1,0,0.2,0,0.2,0.1s0,0.2-0.1,0.2
			v0.2c0,0,0,0,0,0.1l0.1,0.1l0,0v0.3c0,0,0,0,0,0l0.2,0.2c0,0,0.1,0,0.1,0c0,0,0,0,0,0l0,0c0,0,0.1,0,0.1,0c0,0,0,0,0,0l0.2,0.1
			h0.1l0.2,0l0,0l0.2-0.2c0,0,0,0,0.1,0h0.2c0,0,0.1,0,0.1,0l0,0c0,0,0.1,0,0.1,0l0,0c0,0,0.1,0,0.1,0l0.6,0.4l0,0l0.2,0.3l0,0
			l0.1,0.5c0,0,0,0,0,0.1l0.1,0.1l0,0l0.3,0.4l0,0l0.1,0.2c0,0,0.1,0.1,0.1,0l0.2-0.1c0,0,0,0,0.1,0l0.4,0.2l0,0l0.1,0.2
			c0,0,0,0,0,0l0.4,0.1c0,0,0,0,0,0l0.1,0.2l0,0l0.1,0.1h0.1h0.1c0,0,0.1,0.1,0.1,0.1c0,0,0,0,0,0l0,0c0,0,0,0,0,0.1v0.2
			c0,0,0,0.1,0.1,0.1l0.3,0.1c0,0,0.1,0,0.1,0.1l0.4,0.5l0,0l0.3,0.3l0,0l0.2,0.4l0,0l0.1,0.1c0,0,0,0,0.1,0l0.3,0.1l0,0L39,29l0,0
			l0.3,0.1c0,0,0,0,0.1,0l0.1,0.1l0,0v0c0,0,0.1,0.1,0.1,0c0,0,0,0,0,0c0,0,0.1,0,0.1,0l0.5,0.2l0,0l0.2,0.2l0,0l0.2-0.2l0,0
			l0.1-0.2l0,0l0.2-0.1l0,0l-0.4-0.4l0,0L41,29l0,0l-0.2-0.2l0,0l-0.2-0.4l0,0l-0.1-0.1h0.2l0,0l0.1,0.1h0.1l-0.2-0.3l0,0l-0.3-0.2
			L41,28l0,0l0.2,0.2l0,0l0.2,0.1c0,0,0.1,0,0.1,0l0.1-0.1c0,0,0-0.1,0-0.1c0,0,0-0.1,0-0.1c0,0,0,0,0.1,0h0h0.2c0,0,0.1,0,0.1,0.1
			v0.1c0,0,0,0.1,0.1,0.1l0.3,0.1l0,0h0.2l-0.1-0.1l0,0c0.1,0,0.1-0.1,0.1-0.1c0,0,0,0,0,0l0,0c0,0,0-0.1,0-0.1c0,0,0,0,0,0h0.1
			c0,0,0.1,0,0.1,0l0.1,0.1c0,0,0,0,0,0.1c0,0,0,0.1,0,0.1c0,0,0,0,0,0h0.3l0.2,0.1c0,0,0.1,0,0.1,0l0.4-0.3l0,0l0.5-0.2
			c0,0,0,0,0-0.1v-0.2c0,0,0,0,0,0 M39.3,14.7L39,14.8c-0.1,0-0.1,0.1,0,0.2c0,0,0,0,0,0l0.1,0.1h0.1l0.6,0.1c0,0,0.1,0,0.1-0.1V15
			c0,0,0,0,0,0c0.1,0,0.1-0.1,0.1-0.1c0,0,0-0.1-0.1-0.1L39.3,14.7L39.3,14.7 M37.7,17.3l0.2,0.1c0,0,0.1,0,0.1-0.1c0,0,0-0.1,0-0.1
			c0,0,0-0.1,0-0.1l0.1-0.2c0,0,0-0.1,0-0.1l-0.2-0.2c0,0-0.1,0-0.1,0l-0.2,0.1c0,0-0.1,0.1,0,0.1L37.7,17.3
			C37.7,17.3,37.7,17.3,37.7,17.3 M36.7,26.7l-0.3-0.1c0,0-0.1,0-0.1,0.1c0,0,0,0.1,0,0.1l0,0l0,0V27c0,0,0,0,0,0.1l0.1,0.1
			c0,0,0.1,0,0.1,0l0,0h0l0,0c0,0,0.1-0.1,0-0.1c0,0,0,0,0,0c0,0,0,0,0,0v-0.2c0,0,0-0.1-0.1-0.1 M44.7,4.8l-0.1-0.1l0,0h-0.1l0,0
			h-0.1V5c0,0,0,0.1,0.1,0.1l0.4,0.1c0,0,0.1,0,0.1,0c0,0,0,0,0-0.1l-0.1-0.2l0,0 M42.4,11.3L42.4,11.3c0-0.1,0-0.2,0-0.2
			c0,0,0,0-0.1,0l-0.1,0.1c0,0,0,0,0,0.1v0.1c0,0,0,0,0.1,0C42.4,11.4,42.4,11.4,42.4,11.3L42.4,11.3L42.4,11.3 M43.7,5L43.7,5
			c0.1-0.1,0.1-0.1,0.1-0.2l-0.3-0.4l0,0h-0.1c0,0-0.1,0-0.1,0c0,0,0,0,0,0v0.3c0,0,0,0,0,0.1L43.7,5C43.7,5.1,43.7,5.1,43.7,5
			 M44.7,4.5v0.1l0,0L45,4.8l0,0l0.2,0.3c0,0,0,0,0.1,0h0.3c0,0,0.1,0,0.1-0.1l0,0c0,0,0-0.1,0-0.1l0.2-0.1l0,0L46.2,5h0.1l0.2-0.3
			c0,0,0-0.1,0-0.1c0,0,0,0,0,0l-1-0.3c0,0-0.1,0-0.1,0v0.1c0,0-0.1,0.1-0.1,0c0,0,0,0,0,0l-0.1-0.3c0,0,0,0-0.1-0.1H45
			c0,0-0.1,0-0.1,0.1v0.2c0,0,0,0.1-0.1,0.1c0,0,0,0,0,0l0,0C44.8,4.4,44.8,4.4,44.7,4.5C44.8,4.4,44.7,4.4,44.7,4.5 M41.6,7.4h0.1
			c0,0,0.1,0,0.1-0.1c0,0,0,0,0-0.1l-0.1-0.1c0,0-0.1,0-0.1,0c0,0,0,0,0,0h-0.1C41.5,7.3,41.5,7.3,41.6,7.4
			C41.5,7.4,41.6,7.4,41.6,7.4 M42.2,5.5H42l0,0c0,0,0,0.1,0,0.1c0,0,0,0,0,0h0.1c0,0,0.1,0,0.1,0L42.2,5.5
			C42.2,5.5,42.2,5.5,42.2,5.5C42.2,5.5,42.2,5.5,42.2,5.5 M43.2,4.8L43.2,4.8C43.1,4.8,43.1,4.9,43.2,4.8l0.1,0.3c0,0,0,0,0.1,0
			h0.1c0,0,0-0.1,0-0.1c0,0,0,0,0,0L43.2,4.8C43.2,4.8,43.2,4.8,43.2,4.8C43.2,4.8,43.2,4.8,43.2,4.8 M43.2,5.1L43.2,5.1
			C43.1,5,43,5,43,5c0,0,0,0,0,0l-0.1,0.1l0,0l-0.2,0.1l0,0l-0.1,0.2c0,0,0,0,0,0.1v0.1c0,0,0.1,0,0.1,0c0,0,0,0,0,0l0.1-0.2l0,0H43
			l0,0l0.1-0.1C43.1,5.2,43.1,5.2,43.2,5.1"/>
		<path style="fill:#020303;" d="M7.3,33.8c0-0.6,0.2-1.2,0.5-1.6c0.3-0.3,0.8-0.5,1.2-0.5c0.5,0,0.9,0.2,1.2,0.5
			c0.3,0.3,0.5,0.8,0.5,1.3c0,0.5-0.1,1-0.3,1.5c-0.2,0.5-0.5,0.9-0.8,1.3c-0.1,0.2-0.3,0.4-0.5,0.8l-0.2,0.3
			c-0.1,0.2-0.2,0.3-0.3,0.5l-0.1,0.1h2.1v1.1H7.3v-1c0.1-0.1,0.1-0.3,0.2-0.4l0.2-0.4L8,37l0.8-1.1c0.3-0.4,0.5-0.8,0.7-1.3
			c0.1-0.3,0.2-0.7,0.2-1c0-0.2,0-0.4-0.1-0.6c-0.1-0.2-0.3-0.2-0.5-0.2c-0.3,0-0.5,0.2-0.6,0.5c0,0.1-0.1,0.3-0.1,0.4V34h-1
			L7.3,33.8z"/>
		<path style="fill:#020303;" d="M14.6,37.5c0,0.5-0.2,0.9-0.5,1.2c-0.6,0.7-1.7,0.7-2.3,0.1c0,0,0,0-0.1-0.1
			c-0.3-0.3-0.5-0.8-0.5-1.2v-4c0-0.5,0.2-0.9,0.5-1.2c0.3-0.3,0.7-0.5,1.2-0.5c0.5,0,0.9,0.2,1.2,0.5c0.3,0.3,0.5,0.8,0.5,1.2V37.5
			z M13.5,33.5c0-0.2-0.1-0.3-0.2-0.5c-0.1-0.1-0.3-0.2-0.4-0.2c-0.2,0-0.3,0.1-0.4,0.2c-0.1,0.1-0.2,0.3-0.2,0.5v4
			c0,0.2,0.1,0.3,0.2,0.5c0.1,0.1,0.3,0.2,0.4,0.2c0.2,0,0.3-0.1,0.4-0.2c0.1-0.1,0.2-0.3,0.2-0.5V33.5z"/>
		<path style="fill:#020303;" d="M15.1,33.8c0-0.6,0.2-1.2,0.5-1.6c0.3-0.3,0.8-0.5,1.2-0.5c0.5,0,0.9,0.2,1.2,0.5
			c0.3,0.3,0.5,0.8,0.5,1.3c0,0.5-0.1,1-0.3,1.5c-0.2,0.5-0.5,0.9-0.8,1.3c-0.1,0.2-0.3,0.4-0.5,0.8l-0.2,0.3
			c-0.1,0.2-0.2,0.3-0.3,0.5l0,0.1h2.1v1.1H15v-1c0.1-0.1,0.1-0.3,0.2-0.4l0.2-0.4l0.3-0.4l0.8-1.1c0.3-0.4,0.5-0.8,0.7-1.3
			c0.1-0.3,0.2-0.7,0.2-1c0-0.2,0-0.4-0.1-0.6c-0.1-0.2-0.3-0.2-0.5-0.2c-0.3,0-0.5,0.2-0.6,0.5c0,0.1-0.1,0.3-0.1,0.4V34h-1
			L15.1,33.8z"/>
		<path style="fill:#020303;" d="M22.4,37.5c0,0.5-0.2,0.9-0.5,1.2c-0.6,0.7-1.7,0.7-2.3,0.1c0,0,0,0-0.1-0.1
			C19.2,38.4,19,38,19,37.5v-4c0-0.5,0.2-0.9,0.5-1.2c0.3-0.3,0.7-0.5,1.2-0.5c0.5,0,0.9,0.2,1.2,0.5c0.3,0.3,0.5,0.8,0.5,1.2
			L22.4,37.5z M21.2,33.5c0-0.2-0.1-0.3-0.2-0.5c-0.1-0.1-0.3-0.2-0.4-0.2c-0.2,0-0.3,0.1-0.4,0.2c-0.1,0.1-0.2,0.3-0.2,0.5v4
			c0,0.2,0.1,0.3,0.2,0.5c0.1,0.1,0.3,0.2,0.4,0.2c0.2,0,0.3-0.1,0.4-0.2c0.1-0.1,0.2-0.3,0.2-0.5V33.5z"/>
	</g>
</g>
<path style="fill:#50504F;" d="M84.7,30.8h-4.3l-0.7-1.5l-1.5-2.2l-1.8,2.4l-0.6,1.3h-3.7l4-6.2L72,18h4.4l0.7,1.6l1.4,2.2l1.6-2.4
	l0.6-1.4h3.8l-3.8,6L84.7,30.8z"/>
<path style="fill:#50504F;" d="M89,30.8L85.3,18h3.7l0.4,2.1l1.8,7.3h0.2l2.2-7.1l0.4-2.3h3.6l-4.1,12.8H89z"/>
<path style="fill:#50504F;" d="M102.8,30.8h-3.6l0.2-3.8l-0.2-9h3.7l-0.2,8.7L102.8,30.8z"/>
<path style="fill:#50504F;" d="M109.8,30.8h-3.6l0.2-3.8l-0.2-9h3.7l-0.2,8.7L109.8,30.8z"/>
<path style="fill:#50504F;" d="M116.8,30.8h-3.6l0.2-3.8l-0.2-9h3.7l-0.2,8.7L116.8,30.8z"/>
<path style="fill:#50504F;" d="M81.6,34.9L81,38.2l-0.5,0.1c-0.8-0.7-1.9-1.1-2.9-1.2c-0.7,0-1.1,0.4-1.1,0.8c0,1.7,5.3,1.3,5.3,5.3
	c0,2.1-1.5,4.3-5.2,4.3c-1.4,0-2.8-0.3-4.1-0.8l0.5-3.4l0.4-0.3c1,1,2.3,1.6,3.7,1.7c0.7,0,1.1-0.4,1.1-0.9c0-1.7-5.4-1.3-5.4-5.4
	c0-2.4,1.9-4.3,5.1-4.3C79.2,34.3,80.4,34.5,81.6,34.9z"/>
<path style="fill:#50504F;" d="M90.4,47.3h-3.6l0.2-3.4v-0.5l-4.2-8.9h3.8l0.3,1l1.7,4h0.2l1.9-3.8l0.4-1.2h3.7l-4.6,8.8v0.6
	L90.4,47.3z"/>
<path style="fill:#50504F;" d="M106.9,47.3l-0.1-3.9l-0.3-3.3h-0.2l-2.3,6h-2.8l-2-6H99l-0.3,3l-0.2,4.2h-3.1l1.2-12.8h4.3l0.4,1.8
	l1.3,4.8h0.2l1.5-4.7l0.5-1.9h4.1l1.1,12.8H106.9z"/>
<path style="fill:#50504F;" d="M118.4,34.5c2.8,0,4.4,1.5,4.4,4c0,3-2.3,5.1-5.7,5.1h-1.1l0.1,3.7h-3.6l0.2-3.8l-0.2-9L118.4,34.5z
	 M117.8,40.9c0.8-0.3,1.4-1.1,1.3-2c0-1.2-0.6-1.7-1.9-1.8l-0.9,0.1l-0.1,3.6L117.8,40.9z"/>
<path style="fill:#50504F;" d="M136.2,40.6c0,4.4-2.3,7-6.4,7c-3.7,0-5.9-2.3-5.9-6.5c0-4.3,2.3-6.8,6.4-6.8
	C134.1,34.3,136.2,36.6,136.2,40.6z M127.7,40.6c0,3.2,0.6,4.1,2.4,4.1s2.3-0.7,2.3-3.3c0-3.2-0.6-4.1-2.4-4.1S127.7,38,127.7,40.6
	L127.7,40.6z"/>
<path style="fill:#50504F;" d="M146.6,34.9l-0.5,3.3l-0.5,0.1c-0.8-0.7-1.9-1.1-2.9-1.2c-0.7,0-1.1,0.4-1.1,0.8
	c0,1.7,5.3,1.3,5.3,5.3c0,2.1-1.5,4.3-5.2,4.3c-1.4,0-2.8-0.3-4.1-0.8l0.5-3.4l0.4-0.3c1,1,2.3,1.6,3.7,1.7c0.7,0,1.1-0.4,1.1-0.9
	c0-1.7-5.4-1.3-5.4-5.4c0-2.4,1.9-4.3,5.1-4.3C144.3,34.3,145.5,34.5,146.6,34.9z"/>
<path style="fill:#50504F;" d="M153,47.3h-3.6l0.2-3.8l-0.2-9h3.7l-0.2,8.7L153,47.3z"/>
<path style="fill:#50504F;" d="M167,43c0,2.9-2,4.5-5.6,4.5s-5.3-1.6-5.3-4.5v-2l-0.1-6.5h3.6l-0.2,8c0,1.4,0.6,2,2,2s2-0.6,2-2
	l-0.2-8h3.7l0,6.5V43z"/>
<path style="fill:#50504F;" d="M180.8,47.3l-0.1-3.9l-0.3-3.3h-0.2l-2.3,6h-2.8l-2-6h-0.2l-0.3,3l-0.2,4.2h-3.1l1.2-12.8h4.3
	l0.4,1.8l1.4,4.8h0.2l1.5-4.7l0.5-1.9h4.2l1.1,12.8H180.8z"/>
<linearGradient id="SVGID_8_" gradientUnits="userSpaceOnUse" x1="17.6954" y1="306.3113" x2="5.8254" y2="323.0613" gradientTransform="matrix(1 0 0 1 0 -206.8504)">
	<stop  offset="0" style="stop-color:#FFFFFF"/>
	<stop  offset="0.17" style="stop-color:#FFFFFF"/>
	<stop  offset="0.32" style="stop-color:#E0DEDF"/>
	<stop  offset="0.55" style="stop-color:#B3B2B1"/>
	<stop  offset="0.67" style="stop-color:#A3A1A1"/>
	<stop  offset="0.83" style="stop-color:#B0B0AE"/>
	<stop  offset="1" style="stop-color:#B5B4B4"/>
</linearGradient>
<path style="fill:url(#SVGID_8_);" d="M14.4,105.1l-0.4-0.8c0-0.1,0-0.2,0-0.4c0-0.1-0.1-0.1-0.1-0.2h-0.1
	C14,104.3,14.2,104.7,14.4,105.1L14.4,105.1z"/>
<path style="fill:#7A7A7E;" d="M58.8,95.6c-0.6-7.3-3.7-14.2-8.8-19.4c-4.6-4.7-10.8-7.7-17.3-8.3c1.6,0.1,3.2,0.3,4.8,0.7
	c5.8,1.4,11.1,4.6,14.9,9.2c0.2,0.2,0.4,0.4,0.7,0.4c0.2,0,0.4-0.1,0.5-0.2c0.1-0.3,0.1-0.6-0.1-0.8l0,0l0,0L53.3,77l-0.1-0.1l0,0
	c-3.9-5.9-9.9-10-16.8-11.7c-2-0.5-4.1-0.7-6.2-0.7c-5.1,0-10,1.3-14.4,3.9C9.5,72.2,4.8,78.1,2.5,85C0.3,91.8,0.5,99.3,3,106
	c2.4,6.4,7.1,11.7,13.1,15.1c2.8,1.6,5.9,2.6,9.1,3.1c1.2,0.2,2.4,0.3,3.6,0.2c1.9,0,3.9-0.2,5.8-0.6l0.8-0.2c2-0.4,4-1,5.9-1.8
	c5.3-2.4,9.7-6.4,12.6-11.5c0.2-0.2,0.2-0.6,0.1-0.8c-0.1-0.2-0.3-0.3-0.5-0.3c0.3-0.6,0.5-1.2,0.8-1.8c1.3-3.3,2-6.8,1.9-10.4v-0.2
	l0,0c0-0.2-0.1-0.4-0.2-0.5c-0.1-0.1-0.2-0.2-0.4-0.2c-0.3,0-0.6,0.2-0.6,0.8c0,0.3,0,0.6,0,0.9c0,0.4,0,0.9-0.1,1.3l-0.3,2.2
	l-0.5,2.2c-0.1,0.4-0.2,0.9-0.4,1.3c-0.1,0.3-0.2,0.5-0.3,0.8c-1,2.8-2.4,5.4-4.2,7.7c-1.8,2.3-4,4.3-6.5,5.9
	c-1.2,0.8-2.4,1.4-3.7,2c-2.7,1.1-5.6,1.7-8.6,1.7c-1.8,0-3.6-0.2-5.4-0.6l-2-0.5l-1.9-0.7c-0.3-0.1-0.6-0.2-0.9-0.4l-0.9-0.4
	l-0.3-0.2l-0.6-0.3l-0.9-0.5c-2.4-1.4-4.5-3.2-6.3-5.3c-1.8-2.1-3.3-4.5-4.4-7.1c-1.1-2.6-1.8-5.4-2.1-8.2l-0.2-2.1v-2.2
	c0-0.5,0-1,0.1-1.5c0-0.2,0.1-0.4,0.1-0.7L4.9,91c0-0.2,0.1-0.4,0.1-0.7s0.1-0.2,0.1-0.4s0.1-0.5,0.2-0.8c0.1-0.5,0.2-0.9,0.3-1.3
	l0.7-2.1l0.2-0.4c0.5-1.2,1-2.4,1.7-3.5c0.3-0.5,0.6-1,0.9-1.4c1.1-1.6,2.4-3.1,3.9-4.4c2.5-2.3,5.4-4.1,8.6-5.3
	c3.1-1.2,6.5-1.7,9.8-1.6c6.8,0.3,13.2,3.2,17.9,8c4.9,5,7.9,11.5,8.4,18.5c0.1,0.6,0.4,0.9,0.7,0.9c0.1,0,0.3-0.1,0.4-0.2
	C58.8,96.1,58.9,95.9,58.8,95.6z M28.7,66.8c-3,0.3-5.9,1.1-8.7,2.3c-2.7,1.3-5.2,3-7.5,5c-1.8,1.7-3.3,3.5-4.6,5.6
	C5,84,3.3,89.1,3,94.3c-0.2,3.8,0.3,7.6,1.6,11.2c1.2,3.5,3.1,6.8,5.6,9.6l0.1,0.2c-0.3-0.3-0.7-0.7-1-1.1c-2.2-2.5-3.9-5.3-5.1-8.4
	c-1.2-3.2-1.9-6.5-2.1-9.9C2,92.5,2.5,89,3.6,85.7c2.1-6.7,6.6-12.4,12.5-16c4.2-2.6,9.1-3.9,14.1-4c1.9,0,3.8,0.2,5.7,0.6
	c2.4,0.6,4.8,1.4,7,2.7c-1.7-0.8-3.4-1.3-5.2-1.7C34.8,66.6,31.7,66.4,28.7,66.8z"/>
<g>
	<defs>
		<path id="SVGID_9_" d="M56.3,95.9c0,14.7-11.6,27-25.9,27s-25.9-12.2-25.9-27S15.6,69,30.4,69.2C45.8,69.4,56.3,81.2,56.3,95.9z"
			/>
	</defs>
	<clipPath id="SVGID_10_">
		<use xlink:href="#SVGID_9_"  style="overflow:visible;"/>
	</clipPath>
	<g style="clip-path:url(#SVGID_10_);">
		<rect x="15.6" y="73.8" style="fill:#727475;" width="2.8" height="8.1"/>
		<rect x="21.7" y="73.8" style="fill:#737578;" width="3" height="8.1"/>
		<polygon style="fill:#737578;" points="31.9,81.9 35.8,73.8 32.7,73.8 29.3,80.8 29.3,73.8 26.4,73.8 26.4,81.9 31.9,81.9 		"/>
		<polygon style="fill:#A2A3A5;" points="27,101.7 27.5,104.3 30.1,104.3 28.2,94.4 24.1,94.4 24.1,104.3 27,104.3 		"/>
		<polygon style="fill:#A2A3A5;" points="34.5,101.7 34.5,104.3 37.3,104.3 37.3,94.4 33.4,94.4 31.6,104.3 34,104.3 		"/>
		<polygon style="fill:#A2A3A5;" points="48.5,94.4 45.3,94.4 43.2,100.4 41.1,94.4 38,94.4 41.6,104.3 44.8,104.3 		"/>
		<polygon style="fill:#737578;" points="29.7,114 32,114 34,104.3 31.6,104.3 30.9,108.5 30.1,104.3 27.5,104.3 		"/>
		<rect x="34.5" y="104.3" style="fill:#737578;" width="2.8" height="9.7"/>
		<rect x="24.1" y="104.3" style="fill:#737578;" width="2.9" height="9.7"/>
		<polygon style="fill:#737578;" points="41,114 43.2,107.8 45.4,114 48.5,114 44.8,104.3 41.6,104.3 38,114 		"/>
		
			<linearGradient id="SVGID_11_" gradientUnits="userSpaceOnUse" x1="24.7791" y1="312.8585" x2="13.3291" y2="329.0285" gradientTransform="matrix(1 0 0 1 0 -206.8504)">
			<stop  offset="0" style="stop-color:#FFFFFF"/>
			<stop  offset="0.19" style="stop-color:#FFFFFF"/>
			<stop  offset="0.33" style="stop-color:#E0DEDF"/>
			<stop  offset="0.55" style="stop-color:#B3B2B1"/>
			<stop  offset="0.67" style="stop-color:#A3A1A1"/>
			<stop  offset="0.83" style="stop-color:#B0B0AE"/>
			<stop  offset="1" style="stop-color:#B5B4B4"/>
		</linearGradient>
		<path style="fill:url(#SVGID_11_);" d="M32.4,123.4c0.1,0,1.3,0.2,1.5-0.2s-0.9-1-0.8-1.1s0.2-0.9,0.3-0.9s1.9,0,2,0
			s0.4-0.7,0.7-0.7s0.3,0.2,0.5,0.3c0.3-0.5,0.5-1,0.5-1.6c0.1-0.7-0.2-0.9,0.2-1.3s0.7-0.4,0.6-0.9s-0.6,0-1-0.2s-0.7-0.1-1.7,0.1
			s-1.5,0.6-1.4,1.3s-0.3,0.4-0.3,1s-0.8,0.7-0.7,1s-0.6,0-0.8-0.1c-0.9,0.1-1.8,0.3-2.6,0.6c-0.3,0-0.8-0.6-1.2-0.6
			s-0.6-0.6-0.6-1.2s-0.8-1-1.2-1.5c-0.3-0.7-0.5-1.5-0.4-2.2c-0.1-1.1,0-2.2,0.4-3.2c0.1-0.2,0.1-0.3,0.1-0.5
			c-0.1-0.1-0.3-0.2-0.5-0.2c-0.4,0-1.4-0.6-1.5-0.6s-0.2-0.5-0.3-0.7s0-0.7-0.3-0.9c-0.5-0.4-0.9-0.9-1-1.6c-0.2-0.8-1.5-1.1-2-1.2
			s-0.7,1-0.9,1.1c-0.5-0.2-0.9-0.4-1.3-0.7c-0.3-0.2-0.4-0.4-0.4-0.7c0-0.3-0.5-0.8-0.7-0.9c-0.4-0.4-0.9-0.8-1.3-1.2h-1.6
			l-0.4,0.5H11c0,0-2.4-0.9-2.9-1c-0.4-0.2-0.9-0.4-1.2-0.7l-2.5,0.3c0.2,0.3,0.3,0.7,0.6,0.9c0.5,0.7,0.8,1.4,0.9,2.2
			c0,0.4,0.8,0.7,1.4,1.1c0.4,0.4,0.7,1,0.5,1.5c-0.1,0.2-0.8-0.2-0.9,0.1s1,1.1,1.4,1.1s0.6,0.2,1.2,0.8s0.6,1.2,0.3,1.4
			s0.5,0.6,1.3,1.2c0.5,0.3,1,0.9,1.2,1.5c0.1,0.3,0.4,0,0.5-0.4s-0.2-0.5-0.2-0.9s-0.6-0.4-0.9-0.4s0-0.7-0.3-1
			c-0.3-0.5-0.6-1-0.7-1.6c-0.1-0.6-0.9-1.1-1.2-1.7c-0.2-0.5-0.5-0.9-0.9-1.2c-0.2-0.2,0.3-0.4,0.1-0.6s-0.5-0.2-0.9-0.4
			c-0.4-0.2-0.6-0.5-0.6-0.9c-0.1-0.6-0.2-1.1-0.4-1.7c-0.1-0.3,0.3-0.3,0.4-0.1s0.2,0.3,0.4,0.2c0.2-0.1,0.5,0,0.6,0.2c0,0,0,0,0,0
			c0.1,0.3,0.5,0,0.7,0.2s-0.4,0.3,0.2,1.4s0.2,0.5,0.2,1.3s0.4,0.4,0.5,0.3s0.5,0.2,0.8,0.7s0.9,0.4,0.9,0.7c0,0.3,0.2,0.7,0.5,0.8
			c0.4,0.1,0.5,0.6,0.8,0.6s0.3,0.4,0.2,0.7s0,0.6,0.7,0.9s0.4,0.3,0.9,0.9c0.8,0.9,1.6,1.8,2.4,2.8c0.2,0.4,0.4,0.8,0.5,1.2
			c0.1,0.4-0.2,0.5,0,0.8s-0.4,0.2-0.3,0.4s0.3,1.4,0.9,1.4s1.1,0.7,1.6,1.1s1.1,0.3,1.8,0.6c0.7,0.4,1.4,0.8,2.2,1.1
			c0.9,0.3,1.7,0.6,2.5,1.1c0.7,0.3,1.6,0.3,2.2-0.1c0.7-0.2,1.4-0.1,2,0.3c0.4,0.3,0.8,0.6,1.2,1C31.9,124,32.3,123.4,32.4,123.4"
			/>
		
			<linearGradient id="SVGID_12_" gradientUnits="userSpaceOnUse" x1="28.7264" y1="315.3178" x2="16.9464" y2="331.9579" gradientTransform="matrix(1 0 0 1 0 -206.8504)">
			<stop  offset="0" style="stop-color:#FFFFFF"/>
			<stop  offset="0.17" style="stop-color:#FFFFFF"/>
			<stop  offset="0.32" style="stop-color:#E0DEDF;stop-opacity:0.71"/>
			<stop  offset="0.55" style="stop-color:#B3B2B1;stop-opacity:0.24"/>
			<stop  offset="0.67" style="stop-color:#A3A1A1;stop-opacity:0"/>
			<stop  offset="0.83" style="stop-color:#B0B0AE;stop-opacity:0"/>
			<stop  offset="1" style="stop-color:#B5B4B4;stop-opacity:0"/>
		</linearGradient>
		<path style="fill:url(#SVGID_12_);" d="M24.6,114c0.4,0.8,0.9,1.7,1.4,2.5c-0.1-0.4-0.1-0.8-0.1-1.2c-0.1-1.1,0-2.2,0.4-3.2
			c0.1-0.2,0.1-0.3,0.1-0.5c-0.1-0.1-0.3-0.2-0.5-0.2c-0.4,0-1.4-0.6-1.5-0.6s-0.1,0-0.1-0.1c-0.1,0.6-0.2,1.2-0.2,1.9
			C24.2,113,24.4,113.5,24.6,114C24.6,113.9,24.6,114,24.6,114z"/>
		<path style="fill:#A2A3A5;" d="M16.9,92.3c0.8,0.9,2,1.4,3.2,1.4c1.2,0,2.4-0.5,3.2-1.3c0.9-0.9,1.4-2.1,1.3-3.3v-7.2h-3V89
			c0,0.4-0.2,0.9-0.5,1.2c-0.3,0.3-0.7,0.5-1.2,0.5c-0.4,0-0.9-0.2-1.2-0.5c-0.3-0.3-0.5-0.8-0.5-1.2v-7.1h-2.8V89
			C15.6,90.3,16,91.5,16.9,92.3z"/>
		<polygon style="fill:#A2A3A5;" points="29.3,93.5 29.3,87.3 30.1,85.5 33.1,93.5 36.5,93.5 31.9,81.9 26.4,81.9 26.4,93.5 		"/>
		
			<linearGradient id="SVGID_13_" gradientUnits="userSpaceOnUse" x1="35.0731" y1="292.7702" x2="55.2031" y2="274.5702" gradientTransform="matrix(1 0 0 1 0 -206.8504)">
			<stop  offset="0" style="stop-color:#FFFFFF"/>
			<stop  offset="2.000000e-02" style="stop-color:#FCFCFC"/>
			<stop  offset="0.32" style="stop-color:#CBC9C9"/>
			<stop  offset="0.54" style="stop-color:#ADABAB"/>
			<stop  offset="0.67" style="stop-color:#A3A1A1"/>
			<stop  offset="0.83" style="stop-color:#B0B0AE"/>
			<stop  offset="1" style="stop-color:#B5B4B4"/>
		</linearGradient>
		<path style="fill:url(#SVGID_13_);" d="M43.5,70.4L43.5,70.4c-0.1-0.1-0.2-0.1-0.2-0.1c0,0,0,0,0,0l-0.1,0.1L43.5,70.4z
			 M40.9,72.7l0.3-0.5c0,0,0-0.1,0-0.1l-0.5-0.3c0,0-0.1,0-0.1,0l-0.3,0.2c0,0,0,0.1,0,0.1c0,0,0,0,0,0l0.2,0.1c0,0,0,0.1,0,0.1
			c0,0,0,0,0,0l-0.1,0.1c0,0,0,0.1,0,0.1c0,0,0,0,0,0l0.3,0.1C40.8,72.7,40.8,72.7,40.9,72.7 M44.9,68.7l-0.1-0.1c0,0-0.1,0-0.1,0
			l-0.2,0.2c0,0-0.1,0-0.1,0c0,0,0,0,0,0v-0.3c0,0-0.1,0-0.1,0c0,0,0,0,0,0l-0.1,0.1c0,0-0.1,0-0.1,0c0,0,0,0,0,0c0,0,0-0.1-0.1-0.1
			h-0.1c0,0-0.1,0-0.1,0.1V69l0.1-0.1V69c0,0,0,0.1,0,0.1l0,0c0,0,0,0,0,0.1l-0.1,0.5c0,0,0,0,0,0.1l0.3,0.3c0,0,0,0.1,0,0.2
			c0,0,0,0,0,0L44,70.2c0,0,0,0.1,0,0.2c0,0,0,0,0,0l0,0c0,0,0,0,0.1,0l0.3-0.1l0,0l0.2,0.1c0,0,0.1,0,0,0v-0.1l0,0l-0.2-0.1
			c0,0,0,0,0-0.1l-0.1-0.4c0,0,0-0.1,0-0.1l0.5-0.4c0,0,0,0,0-0.1l0.1-0.3C44.9,68.8,44.9,68.8,44.9,68.7 M42.9,71.6l-0.1-0.2l0,0
			v-0.4c0,0,0,0,0-0.1l-0.3-0.1c0,0-0.1,0-0.1,0.1c0,0,0,0,0,0l0.1,0.3c0,0,0,0.1,0,0.1c0,0-0.1,0-0.1,0l-0.1-0.1c0,0-0.1,0-0.1,0
			c0,0,0,0,0,0c0,0-0.1,0-0.1,0l0,0c0,0-0.1,0-0.1,0.1c0,0,0,0,0,0.1l0.3,0.3c0,0,0,0.1,0,0.1c0,0,0,0,0,0l0,0l0.4,0.1
			c0,0,0.1,0,0.1,0L42.9,71.6C43,71.6,43,71.6,42.9,71.6 M43.4,69.8l-0.1,0.2c0,0,0,0.1,0,0.1l0,0c0,0,0.1,0,0.1,0l0-0.1
			c0,0,0-0.1,0-0.1l0,0C43.5,69.8,43.5,69.8,43.4,69.8C43.4,69.8,43.4,69.8,43.4,69.8 M41.6,72.7l0.4-0.1c0,0,0.1-0.1,0-0.1
			c0,0,0,0,0,0l-0.6-0.1c0,0,0,0-0.1,0l-0.1,0.2c0,0,0,0.1,0,0.1c0,0,0,0,0,0L41.6,72.7 M42,70.2l0.2,0.1c0.1,0,0.2,0,0.2,0l0.2-0.1
			L42,70.2z M41.6,71.7l-0.4,0.2h0.2c0,0,0,0,0.1,0L41.6,71.7z M54.4,71.8C54.4,71.7,54.4,71.7,54.4,71.8
			C54.4,71.7,54.4,71.7,54.4,71.8l-0.4,0L54.4,71.8C54.4,71.9,54.4,71.8,54.4,71.8C54.4,71.8,54.4,71.8,54.4,71.8 M55.8,70.9
			l0.3-0.3c0,0,0,0,0-0.1l0,0c0,0-0.1,0-0.1,0c0,0,0,0,0,0l-0.1,0.1l0,0h-0.2c0,0-0.1,0-0.1,0.1v0.2c0,0,0,0.1,0.1,0.1L55.8,70.9
			L55.8,70.9 M56.6,70.7L56.6,70.7C56.6,70.6,56.5,70.6,56.6,70.7L56.6,70.7C56.5,70.7,56.5,70.7,56.6,70.7
			C56.6,70.8,56.6,70.8,56.6,70.7L56.6,70.7c0.1,0.1,0.1,0,0.1,0C56.7,70.6,56.7,70.6,56.6,70.7 M50.8,70.7v-0.2c0,0,0,0,0-0.1h0
			c0,0-0.1,0-0.1,0c0,0,0,0,0,0l-0.1,0.2c0,0,0,0.1,0,0.1c0,0,0,0,0,0L50.8,70.7L50.8,70.7 M51.1,70.4l-0.2,0.2c0,0,0,0.1,0,0.1
			l0.2,0.2l0,0V71c0,0,0.1,0,0.1,0c0,0,0,0,0,0l0.1-0.1c0,0,0-0.1,0-0.1c0,0,0,0,0,0l-0.3-0.3h0.2c0,0,0.1,0,0.1-0.1v-0.3l0,0
			L51.2,70c0,0-0.1,0-0.1,0l-0.2,0.2l0,0v0.1c0,0,0,0.1,0,0.1c0,0,0,0,0,0L51.1,70.4z M55.4,70.5l-0.1-0.1c0,0,0,0-0.1,0l-0.1,0.1
			c0,0,0,0.1,0,0.1c0,0.1,0,0.1,0,0.2c0,0,0.1,0,0.1,0c0,0,0,0,0,0L55.4,70.5C55.5,70.6,55.5,70.5,55.4,70.5 M51.7,70.3L51.7,70.3
			C51.7,70.3,51.6,70.3,51.7,70.3C51.6,70.3,51.6,70.3,51.7,70.3C51.6,70.3,51.6,70.4,51.7,70.3C51.7,70.4,51.7,70.3,51.7,70.3
			C51.7,70.3,51.7,70.3,51.7,70.3 M38.5,75.8L38.5,75.8c-0.1-0.1-0.1-0.2-0.1-0.2l0.2-0.1c0,0,0.1,0,0.1-0.1v-0.1c0,0,0.1,0,0.1,0
			c0,0,0,0,0,0l0,0c0,0,0,0.1,0,0.1l-0.1,0.1c0,0.1,0,0.1,0.1,0.1l0.2-0.2c0,0,0-0.1,0-0.1l-0.1-0.2c0,0,0-0.1,0-0.1
			c0,0,0.1,0,0.1,0c0.1,0,0.1,0,0.1-0.1c0,0,0,0,0,0l0.2-0.9l0,0l0.2-0.2c0,0,0-0.1,0-0.1l-0.1-0.3l0,0l-0.4-0.5l0,0l-0.4-0.2l0,0
			l-0.1-0.1h-0.1h-0.1l0,0l-0.3-0.2l0,0h-0.2l0,0l-0.2-0.1c0,0,0,0-0.1,0l-0.3,0.1c0,0-0.1,0-0.1,0l-0.2-0.2c0,0-0.1,0-0.1,0
			l-0.9,0.2c0,0-0.1,0.1-0.1,0.1v1.1c0,0,0,0.1,0,0.1l0.2,0.1c0,0,0.1,0,0.1,0l0.4-0.2h0.1l0.2,0.1c0,0,0.1,0,0.1,0.1l0.2,0.6
			c0,0,0,0,0,0.1l-0.3,0.8c0,0,0,0.1,0,0.1l0.1,0.2l0,0l0.1,0.5l0,0V76l0.1-0.1c0,0,0.1-0.1,0.1,0c0,0,0,0,0,0l0,0c0,0,0,0,0.1,0
			l0.3,0.1c0,0,0,0,0.1,0l0.1-0.1c0,0,0.1,0,0.1,0c0,0,0,0,0,0l0.2,0.3c0,0,0.1,0,0.1,0l0.1-0.1c0,0,0-0.1,0-0.1 M40.9,91.2
			L40.9,91.2l-0.2-0.1l0.1,0.3l0,0l0.2,0.1l0,0v-0.2l0,0L40.9,91.2z M41.5,73.8l-0.3,0.4l0.2,0.4l0.3-0.2l0,0l0.2-0.5
			c0,0,0-0.1,0-0.1L41.5,73.8 M44.4,90.2l0.3-0.4c0,0,0,0,0-0.1l-0.1-0.9l0,0L43.9,88l0,0l-0.4-0.4c0,0-0.1,0-0.1,0l-0.3,0.2l0,0H43
			c0,0-0.1,0-0.1-0.1v-0.4l0,0l-0.1-0.2c0,0,0-0.1,0-0.1c0,0,0,0,0.1,0l0.7,0.1c0,0,0,0,0.1,0l0.2-0.2l0,0l0.2-0.7
			c0-0.1,0-0.2,0-0.3c0,0,0-0.1,0-0.1l-0.1-0.4c0,0,0-0.1,0-0.1v-0.1c0-0.1,0-0.2-0.1-0.3l0,0l0,0h-0.1c0,0-0.1-0.1-0.1-0.1
			l-0.1-0.2c0,0,0,0,0-0.1l-0.1-0.1l0.2,0.2c0,0,0.1,0.1,0.1,0.1v0.1c0,0,0,0.1,0.1,0.1l0.2,0.1c0,0,0,0,0,0.1v0.1c0,0,0,0.1,0,0.1
			l0,0c0,0.1,0,0.2,0.1,0.2l0,0c0,0,0,0,0.1,0.1l0.1,0.2l0.1-0.9v-0.2c0-0.1,0.1-0.2,0.2-0.2c0.1,0,0.1,0,0.2,0h0.1L44.8,84
			c0,0,0-0.1,0-0.2v-0.1c0,0,0,0,0-0.1l0,0c0,0,0,0,0-0.1l0.2-0.6c0,0,0-0.1,0-0.1l-0.1-0.5c0,0,0,0,0-0.1L44.6,82
			c-0.1-0.1-0.1-0.2,0-0.2l0,0c0-0.1,0-0.1,0-0.2c0,0,0-0.1,0-0.2l0.3-0.6v-0.1l0.1-0.4c0,0,0-0.1,0-0.1l0.5-0.7l0,0l0.1-0.3l0,0
			l-0.1-0.1 M45.6,79.1l0.2-1l0,0l-0.2-0.3c0,0,0-0.1,0-0.1v-0.3l0,0L45.5,77c0-0.1-0.1-0.1-0.1-0.1h-0.1l0,0L45,76.8
			c-0.1,0-0.1-0.1-0.1-0.1l-0.2-0.4c0,0,0-0.1-0.1-0.1l-0.1-0.1c0,0,0-0.1,0-0.1l-0.1-0.3c0,0,0-0.1,0-0.1l0.1-0.2l0.1,0.2v0.1
			l0.3,0.4c0,0,0,0,0,0l0.3,0.2c0,0,0.1,0,0.2,0h0.1c0.1,0,0.1,0,0.2,0.1l0.2,0.2c0,0,0.1,0,0.1,0.1h0.1c0.1,0,0.2,0,0.2-0.1
			c0,0,0-0.1,0-0.1c0-0.1,0-0.1,0-0.2l0,0c0,0,0-0.1,0-0.1l0,0c0-0.1,0-0.1-0.1-0.2l-0.3-0.2c-0.1,0-0.1-0.1-0.1-0.2l0,0l0.4,0.1
			c0,0,0.1,0,0.1,0.1l0.2,0.3c0,0,0.1,0.1,0.1,0.1h0.2c0,0,0.1,0,0.1,0h0.1c0,0,0.1,0,0.1,0H47h0.1l0.5-0.1l0,0h0.2
			c0,0,0.1,0,0.1-0.1l0,0c0,0,0.1,0,0.1-0.1l0.3-0.1c0,0,0.1,0,0.1-0.1l0,0c0,0,0-0.1,0.1-0.1l0.4-0.1c0,0,0,0,0.1,0l0.3,0.1
			c0,0,0.1,0,0.1,0l0.2-0.1c0,0,0-0.1,0-0.1v-0.5c0-0.1,0-0.1-0.1-0.1c0,0,0,0-0.1,0L49,73.8l0,0l-0.2-0.4c0-0.1-0.1-0.1-0.2-0.1
			c-0.1,0-0.1,0-0.1-0.1l-0.1-0.1L48.3,73l-0.1-0.2c0,0,0-0.1,0-0.1l-0.1-0.1c0,0-0.1,0-0.1,0l0,0c0,0-0.1,0-0.1,0l-0.2-0.2l0,0
			l-0.3-0.1h-0.1l0,0c0,0-0.1-0.1-0.1-0.1L46.9,72v-0.1h0.5l0,0l0.6-0.1l-0.2-0.1c-0.1,0-0.1-0.1-0.1-0.1v-0.1c0,0,0-0.1,0-0.1
			c0,0,0,0,0.1,0c0,0,0,0,0.1,0l0.2-0.1l0,0l1,0.3l0,0l0.4-0.1h0l0.2,0.1c0,0,0,0,0.1,0l0.3-0.1c0,0,0,0,0-0.1v-0.1
			c0,0,0-0.1,0.1-0.1h0.2l0,0c0-0.1,0-0.1,0-0.2L50.1,71c0,0-0.1,0-0.1,0h0c0,0,0,0-0.1-0.1l-0.1-0.2c0,0,0,0-0.1-0.1l-0.4-0.2
			l-0.2-0.3L48.9,70l-0.1-0.1h-0.2l0.2-0.1l-0.1-0.2l-0.5-0.1l0.3-0.1l-0.2-0.5L48.1,69c0,0-0.1,0-0.1,0l0,0c-0.1,0-0.1,0-0.2,0.1
			l-0.1,0.1L47.6,69l-0.1,0.1c-0.1,0.1-0.1,0.1-0.2,0l0,0c-0.1-0.1-0.2,0-0.2,0c0,0,0,0,0,0.1l0,0c0,0.1-0.1,0.1-0.1,0.1h-0.1
			c0,0-0.1,0-0.1,0l-0.1-0.1v0.5l0,0L46.5,70l-0.1-0.4c0-0.1-0.1-0.1-0.1-0.1c-0.1,0-0.1-0.1-0.1-0.1v-0.3l-0.1,0.1l0,0L46,69.4l0,0
			h-0.1c0,0,0,0,0,0l0.1-0.2l0,0l-0.2,0.1l0,0v0.2l0,0h-0.1c0,0,0.3,0.2,0.3,0.2l-0.4,0.2l0,0l0.2,0.2l-0.3-0.2l0,0l-0.1-0.2
			 M45.3,69.6l-0.2,0.3l0,0L45,69.9c0,0,0,0,0,0.1l0.4,0.3L45,70.2l0,0H45v0.1l0,0l0.3,0.2h-0.1v0.2L45,70.4l0,0H45l0,0l-0.2,0.1
			l0,0v0.1l-0.2-0.1h-0.2c0,0,0,0,0,0.1l0.1,0.2l0,0l-0.1,0.1L44,70.6 M44,70.6l-0.1,0.1c0,0-0.1,0.1-0.1,0.1c0,0.1,0,0.1-0.1,0.1
			c0,0,0,0,0,0h-0.1h-0.2l0,0l-0.2-0.3l0,0H43c0,0-0.1,0-0.1,0.1c0,0,0,0,0,0v0.1l0,0l0.2,0.2l0,0l0.1,0.2h-0.1h-0.1l0,0
			c0,0-0.1,0-0.1,0c0,0,0,0,0,0v0.2c0,0,0,0,0,0.1l0,0c0,0,0,0,0,0.1v0.1c0,0,0,0.1,0.1,0.1l1.1,0.1L44,72l0,0v0.1L43.8,72h0
			l-0.5,0.1l0,0v0.1l0,0l-0.5,0.1c0,0,0,0.1,0,0.1l0,0c0,0,0,0.1,0,0.1l-0.5,0.2l0,0l-0.2,0.3h0h-0.2c0,0,0,0-0.1,0V73
			c0,0,0,0.1,0,0.1l0.1,0.1h-0.5l0,0L41,73.5h-0.3l0,0c0,0,0,0.1,0,0.1l0.2,0.2c0,0,0.1,0.1,0.1,0c0,0,0,0,0,0l0.1-0.2l0.4-0.1l0,0
			l0.2-0.2l0,0H42c0,0,0,0,0.1,0l0.3-0.5c0,0,0.1,0,0.1,0c0,0,0,0,0,0v0.1l0,0h0.8h-0.7l0,0l-0.3,0.2c0,0,0,0,0,0.1l0,0
			c0,0,0.1,0,0.1,0c0,0,0,0,0,0l0.1-0.1l0,0h0.2c0,0,0,0.1,0,0.1c0,0,0,0,0,0l-0.1,0.1c0,0,0,0.1,0.1,0.1l0.3-0.1l0,0l0.2-0.2
			c0,0,0.1,0,0.1,0l0,0c0,0,0,0.1,0,0.1c0,0,0,0,0,0l-0.2,0.1c0,0,0,0,0,0.1l0.1,0.5l-0.2,0c0,0-0.1,0-0.1,0l-0.4,0.2l0,0l-0.2,0.3
			c0,0,0,0,0,0.1l0.1,0.2l-0.2,0.3h-0.5l-0.9,0.3l0,0l-0.1,0.2c0,0-0.1,0.1-0.1,0c0,0,0,0,0,0l0,0c0,0-0.1-0.1-0.1,0c0,0,0,0,0,0
			l-0.2,0.2l0,0l0,0.3c0,0,0,0.1,0,0.1c0,0,0.1,0,0.1,0l0,0c0,0,0.1,0,0.1,0c0,0,0,0,0,0l0.2,0.1c0,0,0,0,0,0.1l0.1,0.8
			c0,0,0,0.1,0.1,0.1c0,0,0,0,0,0l0.1-0.1c0,0,0,0,0-0.1v-0.2c0,0,0-0.1,0.1-0.1c0,0,0,0,0.1,0c0,0,0,0,0,0.1l0.1,0.7l0,0l0.3,0.3
			l0.1-0.1 M41.7,77.5l0.2,0.2c0,0,0.1,0,0.1,0l0.2-0.1c0,0,0.1,0,0.1,0l0.2,0.2c0,0,0,0.1,0,0.1c0,0-0.1,0-0.1,0l0,0l-1.1,0.4
			c0,0-0.1,0-0.1,0.1L41,79.4c0,0.1,0,0.1,0.1,0.1l0,0c0.1,0,0.1,0.1,0,0.2c0,0,0,0,0,0c0,0-0.1,0.1,0,0.2c0,0,0.1,0,0.1,0h0.2
			c0,0,0.1,0,0.1,0l0.2,0.3l-0.5,0.2v0.2l-0.4-0.1c0,0-0.1,0-0.1,0l-0.2,0.3c0,0,0,0-0.1,0.1L39.9,81c-0.1,0-0.1,0.1-0.1,0.1v0.3
			v0.4c0,0,0,0,0,0.1L40,82h-0.2h-0.1l-0.1-0.1c0,0,0-0.1,0-0.1l0-0.2c0-0.1,0-0.1-0.1-0.1c-0.1,0-0.1,0-0.2,0c0,0,0,0,0,0l0,0.2
			c0,0,0,0,0,0.1v0.2l-0.2-0.3c0,0,0,0,0-0.1v-0.3c0,0,0-0.1,0-0.1l-0.6-0.4l0,0l-0.2-0.2l0,0l-0.7-0.3l0,0h-0.6l0,0L36.6,80h-0.2
			c0,0-0.1,0.1,0,0.1c0,0,0,0,0,0l0.1,0.1l0,0v0.1c0,0,0.1,0,0.1,0l0,0c0,0,0.1,0,0.1,0l0.5,0.3c0,0,0.1,0.1,0,0.1c0,0,0,0,0,0
			L37,81l0,0v0.2c0,0,0,0.1-0.1,0.1c0,0,0,0,0,0h-0.1c0,0-0.1,0-0.1,0.1c0,0,0,0,0,0l-0.1,0.2c0,0,0,0,0,0.1l0,0c0,0,0,0.1,0,0.1
			c0,0,0,0,0,0l-0.8,0.2l-0.3-0.2L35,81.6l-0.1-0.1l-0.5-0.2l0,0L34.2,81l0,0l-0.3-0.1c0,0-0.1,0-0.1,0.1c0,0,0,0,0,0.1l0.1,0.1
			c0,0,0,0.1,0,0.1l-0.1,0.1c0,0-0.1,0-0.1,0l0,0c0,0-0.1,0-0.1,0c0,0,0,0,0,0.1l0.1,0.2h-0.1c0,0-0.1,0-0.1,0.1c0,0,0,0,0,0v0.1
			l0,0l0.2,0.2l0,0l0.3,0.1l0,0l0.4,0.3c0,0,0,0.1,0,0.1c0,0,0,0,0,0l-0.1,0.1c0,0,0,0.1,0,0.1v0.1c0,0.1,0,0.2-0.1,0.1
			c0,0-0.1,0-0.1,0l0,0c0,0,0,0.1,0,0.1c0,0,0,0,0,0l0.3,0.4l0,0c0,0,0.1,0,0.1,0l0.2,0.1c0,0,0,0,0,0.1v0.4v0.4l0.4,0.5
			c0,0,0.1,0,0.1,0h0.2c0,0,0.1,0,0.1,0l0.3,0.2l0,0l0.4,0.2l0,0h0.2l0,0l0.4,0.2h-0.8l0,0l-0.6-0.1c0,0,0,0-0.1,0l-0.3,0.3
			c0,0-0.1,0-0.1,0l-0.2-0.2l0,0l-0.2-0.1c0,0,0,0,0-0.1l-0.1-0.3l0,0l-0.5-0.8l-0.5-0.4l-0.2,0.2H33c0,0,0,0,0,0l-0.2-0.2
			c0,0-0.1,0-0.1,0c0,0,0,0,0,0l-0.5,0.3c0,0,0,0-0.1,0l-0.5-0.1l0,0h-0.1c0,0,0,0-0.1,0l-0.3-0.2c0,0-0.1,0-0.1,0l-0.3,0.1
			c0,0-0.1,0-0.1,0l0-0.1c0,0-0.1,0-0.1,0l-0.1,0.1l0,0L30,83.9l0,0l-0.1-0.2c0,0,0,0,0-0.1l-0.3-0.1c0,0,0,0-0.1,0l-0.1,0.1
			c0,0,0,0.1,0,0.1l0.1,0.2c0,0,0.1,0,0.1,0c0,0,0,0,0,0l0.1-0.1c0,0,0.1,0,0.1,0c0,0,0,0,0,0l0.2,0.3c0,0,0,0,0,0.1l-0.1,0.2
			c0,0,0,0.1,0.1,0.1h0.1c0,0,0.1,0,0.1-0.1v-0.1c0,0,0-0.1,0.1-0.1h0.2c0,0,0.1,0,0.1,0.1c0,0,0,0,0,0c0,0,0,0.1,0.1,0.1
			c0,0,0,0,0,0h0.2c0,0,0,0,0,0l0.1,0.1c0,0,0.1,0,0.1,0l0.2-0.1c0,0,0.1,0,0.1,0l0.1,0.3l0,0l0.3,0.1l0,0l0.1,0.2l0,0h0.1
			c0,0,0.1,0.1,0,0.1v0.2c0,0,0,0,0,0.1l0.1,0.1l0,0v0.3l0,0l0.2,0.2c0,0,0.1,0,0.1,0c0,0,0,0,0,0l0,0c0,0,0.1,0,0.1,0c0,0,0,0,0,0
			l0.2,0.1c0,0,0,0,0.1,0h0.2l0,0l0.2-0.2c0,0,0,0,0.1,0h0.2c0,0,0.1,0,0.1,0l0,0c0,0,0.1,0,0.1,0l0,0c0,0,0.1,0,0.1,0l0.6,0.4l0,0
			l0.2,0.3l0,0l0.1,0.5c0,0,0,0,0,0.1l0.1,0.1l0,0L35,88l0,0l0.1,0.2c0,0,0.1,0.1,0.1,0.1l0.2-0.1c0,0,0,0,0.1,0l0.4,0.2l0,0
			l0.1,0.2l0,0l0.4,0.2c0,0,0,0,0,0l0.1,0.2l0,0l0.1,0.1h0.1h0.1c0,0,0.1,0.1,0.1,0.1c0,0,0,0,0,0l0,0c0,0,0,0,0,0.1v0.2
			c0,0,0,0.1,0.1,0.1l0.3,0.1c0,0,0.1,0,0.1,0.1l0.4,0.5l0,0l0.3,0.3l0,0l0.2,0.4l0,0l0.1,0.2c0,0,0,0,0.1,0l0.3,0.1l0,0l0.2,0.2
			l0,0l0.3,0.1c0,0,0,0,0.1,0l0.1,0.1l0,0l0,0c0,0,0.1,0.1,0.1,0c0,0,0,0,0,0c0,0,0.1,0,0.1,0l0.5,0.2l0,0l0.2,0.2l0,0l0.2-0.2l0,0
			l0.1-0.2l0,0l0.2-0.1l0,0L40.7,91l0,0l0.3,0.7l0,0l-0.2-0.2l0,0l-0.2-0.4l0,0L40.6,91h0.2l0,0l0.1,0.1h0.1l-0.2-0.3l0,0l-0.3-0.2
			l0.5,0.2l0,0l0.2,0.2l0,0l0.2,0.1c0,0,0.1,0,0.1,0l0.1-0.1c0,0,0-0.1,0-0.1c0,0,0-0.1,0-0.1c0,0,0,0,0.1,0h0h0.2
			c0,0,0.1,0,0.1,0.1v0.1c0,0,0,0.1,0.1,0.1l0.3,0.1l0,0h0.2l-0.1-0.1l0,0c0.1,0,0.1-0.1,0.1-0.1c0,0,0,0,0,0v-0.1c0,0,0-0.1,0-0.1
			c0,0,0,0,0,0h0.1c0,0,0.1,0,0.1,0l0.1,0.1c0,0,0,0,0,0.1c0,0,0,0.1,0,0.1c0,0,0,0,0,0H43l0.2,0.1c0,0,0.1,0,0.1,0l0.4-0.3l0,0
			l0.5-0.2c0,0,0,0,0-0.1v-0.2l0,0 M39.3,77.4L39,77.5c-0.1,0-0.1,0.1,0,0.2c0,0,0,0,0,0l0.1,0.1h0.1l0.6,0.1c0,0,0.1,0,0.1-0.1
			v-0.1h0c0.1,0,0.1-0.1,0.1-0.1c0,0,0-0.1-0.1-0.1L39.3,77.4L39.3,77.4 M37.7,80l0.2,0.1c0,0,0.1,0,0.1-0.1c0,0,0-0.1,0-0.1
			c0,0,0-0.1,0-0.1l0.1-0.2c0,0,0-0.1,0-0.1l-0.2-0.2c0,0-0.1,0-0.1,0l-0.2,0.1c0,0-0.1,0.1,0,0.1L37.7,80C37.7,80,37.7,80,37.7,80
			 M36.7,89.4l-0.3-0.1c0,0-0.1,0-0.1,0.1c0,0,0,0.1,0,0.1l0,0l0,0v0.3c0,0,0,0,0,0.1l0.1,0.1c0,0,0.1,0,0.1,0l0,0h0l0,0
			c0,0,0.1-0.1,0-0.1c0,0,0,0,0,0c0,0,0,0,0-0.1v-0.2c0,0,0-0.1-0.1-0.1 M44.6,67.5l-0.1-0.1l0,0h-0.1l0,0h-0.1v0.3
			c0,0,0,0.1,0.1,0.1l0.4,0.1c0,0,0.1,0,0.1,0c0,0,0,0,0-0.1l-0.1-0.2l0,0 M42.3,74L42.3,74c0-0.1,0-0.2,0-0.2c0,0,0,0-0.1,0
			l-0.1,0.1c0,0,0,0,0,0.1v0c0,0,0,0,0.1,0C42.2,74,42.2,74,42.3,74L42.3,74L42.3,74 M43.7,67.7L43.7,67.7c0.1-0.1,0.1-0.1,0.1-0.2
			l-0.3-0.4l0,0h-0.1c0,0-0.1,0-0.1,0c0,0,0,0,0,0v0.3c0,0,0,0,0,0.1L43.7,67.7C43.6,67.8,43.7,67.8,43.7,67.7 M44.7,67.2v0.1l0,0
			l0.2,0.2l0,0l0.2,0.3c0,0,0,0,0.1,0h0.3c0,0,0.1,0,0.1-0.1l0,0c0,0,0-0.1,0-0.1l0.2-0.1l0,0l0.4,0.1h0.1l0.2-0.3c0,0,0-0.1,0-0.1
			c0,0,0,0,0,0l-1-0.3c0,0-0.1,0-0.1,0v0.1c0,0-0.1,0.1-0.1,0c0,0,0,0,0,0l-0.1-0.3c0,0,0,0-0.1,0H45c0,0-0.1,0-0.1,0.1V67
			c0,0,0,0.1-0.1,0.1c0,0,0,0,0,0l0,0C44.8,67.1,44.8,67.1,44.7,67.2C44.8,67.1,44.7,67.1,44.7,67.2 M41.6,70.1h0.1
			c0,0,0.1,0,0.1-0.1c0,0,0,0,0-0.1l-0.1-0.1c0,0-0.1,0-0.1,0c0,0,0,0,0,0h-0.1C41.5,70,41.5,70,41.6,70.1
			C41.5,70.1,41.6,70.1,41.6,70.1 M42.2,68.2H42l0,0c0,0,0,0.1,0,0.1c0,0,0,0,0,0h0.1c0,0,0.1,0,0.1,0L42.2,68.2
			C42.2,68.2,42.2,68.2,42.2,68.2C42.2,68.2,42.2,68.2,42.2,68.2 M43.2,67.5L43.2,67.5C43.1,67.5,43.1,67.6,43.2,67.5l0.1,0.3
			c0,0,0,0,0.1,0h0.1c0,0,0-0.1,0-0.1c0,0,0,0,0,0L43.2,67.5C43.2,67.5,43.2,67.5,43.2,67.5C43.2,67.5,43.2,67.5,43.2,67.5
			 M43.2,67.8L43.2,67.8c-0.1-0.1-0.1-0.1-0.1-0.1c0,0,0,0,0,0l-0.1,0.1l0,0l-0.2,0.1l0,0l-0.1,0.2c0,0,0,0,0,0.1v0.1
			c0,0,0.1,0,0.1,0c0,0,0,0,0,0l0.1-0.2l0,0H43l0,0l0.1-0.1C43.1,67.9,43.1,67.9,43.2,67.8"/>
		<path style="fill:#98999B;" d="M7.3,96.5c0-0.6,0.2-1.2,0.5-1.6c0.3-0.3,0.8-0.5,1.2-0.5c0.5,0,0.9,0.2,1.2,0.5
			c0.3,0.3,0.5,0.8,0.5,1.3c0,0.5-0.1,1-0.3,1.5c-0.2,0.5-0.5,0.9-0.8,1.3c-0.1,0.2-0.3,0.4-0.5,0.8l-0.2,0.3
			c-0.1,0.2-0.2,0.3-0.3,0.5c0,0,0,0.1-0.1,0.1h2.1v1.1H7.3v-1c0.1-0.1,0.1-0.3,0.2-0.4l0.2-0.4L8,99.6l0.8-1.1
			c0.3-0.4,0.5-0.8,0.7-1.3c0.1-0.3,0.2-0.7,0.2-1c0-0.2-0.1-0.4-0.2-0.6c-0.1-0.2-0.3-0.2-0.5-0.2c-0.3,0-0.5,0.2-0.6,0.5
			c0,0.1-0.1,0.3-0.1,0.4v0.3h-1L7.3,96.5z"/>
		<path style="fill:#98999B;" d="M14.6,100.2c0,0.5-0.2,0.9-0.5,1.2c-0.6,0.7-1.7,0.7-2.3,0.1c0,0,0,0-0.1-0.1
			c-0.3-0.3-0.5-0.8-0.5-1.2v-4c0-0.5,0.2-0.9,0.5-1.2c0.3-0.3,0.7-0.5,1.2-0.5c0.5,0,0.9,0.2,1.2,0.5c0.3,0.3,0.5,0.8,0.5,1.2
			V100.2z M13.5,96.2c0-0.2-0.1-0.3-0.2-0.4c-0.1-0.1-0.3-0.2-0.4-0.2c-0.2,0-0.3,0.1-0.4,0.2c-0.1,0.1-0.2,0.3-0.2,0.4v4
			c0,0.2,0.1,0.3,0.2,0.4c0.1,0.1,0.3,0.2,0.4,0.2c0.2,0,0.3-0.1,0.4-0.2c0.1-0.1,0.2-0.3,0.2-0.4V96.2z"/>
		<path style="fill:#98999B;" d="M15.1,96.5c0-0.6,0.2-1.2,0.5-1.6c0.3-0.3,0.8-0.5,1.2-0.5c0.5,0,0.9,0.2,1.2,0.5
			c0.3,0.3,0.5,0.8,0.5,1.3c0,0.5-0.1,1-0.3,1.5c-0.2,0.5-0.5,0.9-0.8,1.3c-0.1,0.2-0.3,0.4-0.5,0.8l-0.2,0.3
			c-0.1,0.2-0.2,0.3-0.3,0.5c0,0,0,0.1,0,0.1h2.1v1.1H15v-1c0.1-0.1,0.1-0.3,0.2-0.4l0.2-0.4l0.3-0.4l0.8-1.1
			c0.3-0.4,0.5-0.8,0.7-1.3c0.1-0.3,0.2-0.7,0.2-1c0-0.2-0.1-0.4-0.2-0.6c-0.1-0.2-0.3-0.2-0.5-0.2c-0.3,0-0.5,0.2-0.6,0.5
			c0,0.1-0.1,0.3-0.1,0.4v0.3h-1L15.1,96.5z"/>
		<path style="fill:#98999B;" d="M22.4,100.2c0,0.5-0.2,0.9-0.5,1.2c-0.6,0.7-1.7,0.7-2.3,0.1c0,0,0,0-0.1-0.1
			c-0.3-0.3-0.5-0.8-0.5-1.2v-4c0-0.5,0.2-0.9,0.5-1.2c0.3-0.3,0.7-0.5,1.2-0.5c0.5,0,0.9,0.2,1.2,0.5c0.3,0.3,0.5,0.8,0.5,1.2
			V100.2z M21.2,96.2c0-0.2-0.1-0.3-0.2-0.4c-0.1-0.1-0.3-0.2-0.4-0.2c-0.2,0-0.3,0.1-0.4,0.2C20.1,95.9,20,96,20,96.2v4
			c0,0.2,0.1,0.3,0.2,0.4c0.1,0.1,0.3,0.2,0.4,0.2c0.2,0,0.3-0.1,0.4-0.2c0.1-0.1,0.2-0.3,0.2-0.4V96.2z"/>
	</g>
</g>
<path style="fill:#50504F;" d="M84.7,93.5h-4.3L79.7,92l-1.5-2.2l-1.8,2.4l-0.6,1.3h-3.7l4-6.2l-4-6.6h4.4l0.7,1.6l1.4,2.2l1.6-2.4
	l0.6-1.4h3.8l-3.8,6L84.7,93.5z"/>
<path style="fill:#50504F;" d="M89,93.5l-3.7-12.8h3.7l0.4,2.1l1.8,7.3h0.2l2.2-7.1l0.4-2.3h3.6l-4.1,12.8H89z"/>
<path style="fill:#50504F;" d="M102.8,93.5h-3.6l0.2-3.8l-0.2-9h3.7l-0.2,8.7L102.8,93.5z"/>
<path style="fill:#50504F;" d="M109.8,93.5h-3.6l0.2-3.8l-0.2-9h3.7l-0.2,8.7L109.8,93.5z"/>
<path style="fill:#50504F;" d="M116.8,93.5h-3.6l0.2-3.8l-0.2-9h3.7l-0.2,8.7L116.8,93.5z"/>
<path style="fill:#50504F;" d="M81.6,97.6l-0.6,3.3l-0.5,0.1c-0.8-0.7-1.9-1.1-2.9-1.2c-0.7,0-1.1,0.4-1.1,0.8
	c0,1.7,5.3,1.3,5.3,5.3c0,2.1-1.5,4.3-5.2,4.3c-1.4,0-2.8-0.3-4.1-0.8l0.5-3.4l0.4-0.3c1,1,2.3,1.6,3.7,1.7c0.7,0,1.1-0.4,1.1-0.9
	c0-1.7-5.4-1.3-5.4-5.4c0-2.4,1.9-4.2,5.1-4.2C79.2,97,80.4,97.2,81.6,97.6z"/>
<path style="fill:#50504F;" d="M90.4,110h-3.6l0.2-3.4v-0.5l-4.2-8.9h3.8l0.3,1l1.7,4h0.2l1.9-3.8l0.4-1.2h3.7l-4.6,8.8v0.6
	L90.4,110z"/>
<path style="fill:#50504F;" d="M106.9,110l-0.1-3.9l-0.3-3.3h-0.2l-2.3,6h-2.8l-2-6H99l-0.3,3l-0.3,4.2h-3.1l1.2-12.8h4.3l0.4,1.8
	l1.3,4.8h0.2l1.5-4.7l0.5-1.9h4.1l1.1,12.8H106.9z"/>
<path style="fill:#50504F;" d="M118.4,97.2c2.8,0,4.4,1.5,4.4,4c0,3-2.3,5.1-5.7,5.1h-1.1l0.1,3.7h-3.6l0.2-3.8l-0.2-9L118.4,97.2z
	 M117.8,103.6c0.8-0.3,1.4-1.1,1.3-2c0-1.2-0.6-1.7-1.9-1.8l-0.9,0.1l-0.1,3.6L117.8,103.6z"/>
<path style="fill:#50504F;" d="M136.2,103.3c0,4.4-2.3,7-6.4,7c-3.7,0-5.9-2.3-5.9-6.4c0-4.3,2.3-6.8,6.4-6.8
	C134.1,97,136.2,99.3,136.2,103.3z M127.7,103.3c0,3.2,0.6,4.1,2.4,4.1s2.3-0.7,2.3-3.3c0-3.2-0.6-4.1-2.4-4.1
	S127.7,100.7,127.7,103.3L127.7,103.3z"/>
<path style="fill:#50504F;" d="M146.6,97.6l-0.5,3.3l-0.5,0.1c-0.8-0.7-1.9-1.1-2.9-1.2c-0.7,0-1.1,0.4-1.1,0.8
	c0,1.7,5.3,1.3,5.3,5.3c0,2.1-1.5,4.3-5.2,4.3c-1.4,0-2.8-0.3-4.1-0.8l0.5-3.4l0.4-0.3c1,1,2.3,1.6,3.7,1.7c0.7,0,1.1-0.4,1.1-0.9
	c0-1.7-5.4-1.3-5.4-5.4c0-2.4,1.9-4.3,5.1-4.3C144.3,97,145.5,97.2,146.6,97.6z"/>
<path style="fill:#50504F;" d="M153,110h-3.6l0.2-3.8l-0.2-9h3.7l-0.2,8.7L153,110z"/>
<path style="fill:#50504F;" d="M167,105.7c0,2.9-2,4.5-5.6,4.5s-5.3-1.6-5.3-4.5v-2l-0.1-6.5h3.6l-0.2,8c0,1.4,0.6,2,2,2s2-0.6,2-2
	l-0.2-8h3.7l-0.1,6.5L167,105.7z"/>
<path style="fill:#50504F;" d="M180.8,110l-0.1-3.9l-0.3-3.3h-0.2l-2.3,6h-2.8l-2-6h-0.2l-0.3,3l-0.2,4.2h-3.1l1.2-12.8h4.3l0.4,1.8
	l1.4,4.8h0.2l1.5-4.7l0.5-1.9h4.2L184,110H180.8z"/>
<linearGradient id="SVGID_14_" gradientUnits="userSpaceOnUse" x1="17.7001" y1="369.2346" x2="5.8301" y2="385.9846" gradientTransform="matrix(1 0 0 1 0 -206.8504)">
	<stop  offset="0" style="stop-color:#FFFFFF"/>
	<stop  offset="0.17" style="stop-color:#FFFFFF"/>
	<stop  offset="0.32" style="stop-color:#E0DEDF"/>
	<stop  offset="0.55" style="stop-color:#B3B2B1"/>
	<stop  offset="0.67" style="stop-color:#A3A1A1"/>
	<stop  offset="0.83" style="stop-color:#B0B0AE"/>
	<stop  offset="1" style="stop-color:#B5B4B4"/>
</linearGradient>
<path style="fill:url(#SVGID_14_);" d="M14.4,168.1l-0.4-0.8c0-0.1,0-0.2,0-0.4c0-0.1-0.1-0.1-0.1-0.2h-0.1
	C14,167.2,14.2,167.6,14.4,168.1L14.4,168.1z"/>
<linearGradient id="SVGID_15_" gradientUnits="userSpaceOnUse" x1="8.6941" y1="387.6351" x2="61.8541" y2="328.7351" gradientTransform="matrix(1 0 0 1 0 -206.8504)">
	<stop  offset="0.19" style="stop-color:#359552"/>
	<stop  offset="0.4" style="stop-color:#22468C"/>
	<stop  offset="0.68" style="stop-color:#283B7D"/>
	<stop  offset="1" style="stop-color:#283473"/>
</linearGradient>
<path style="fill:url(#SVGID_15_);" d="M58.8,158.5c-0.6-7.3-3.7-14.2-8.8-19.4c-4.6-4.7-10.8-7.7-17.3-8.3c1.6,0.1,3.2,0.3,4.8,0.7
	c5.8,1.4,11.1,4.6,14.9,9.2c0.2,0.2,0.4,0.4,0.7,0.4c0.2,0,0.4-0.1,0.5-0.2c0.1-0.3,0.1-0.6-0.1-0.8l0,0l0,0l-0.1-0.1l-0.1-0.1l0,0
	c-3.9-5.9-9.9-10-16.8-11.7c-2-0.5-4.1-0.7-6.2-0.7c-5.1,0-10,1.3-14.4,3.9c-6.3,3.8-10.9,9.7-13.2,16.6c-2.3,6.8-2.1,14.3,0.5,21
	c2.4,6.4,7.1,11.7,13,15.1c2.8,1.6,5.9,2.6,9.1,3.1c1.2,0.2,2.4,0.3,3.6,0.2c1.9,0,3.9-0.2,5.8-0.6l0.8-0.2c2-0.4,4-1,5.9-1.9
	c5.3-2.4,9.7-6.4,12.6-11.5c0.2-0.2,0.2-0.6,0.1-0.9c-0.1-0.2-0.3-0.3-0.5-0.3c0.3-0.6,0.5-1.2,0.8-1.8c1.3-3.3,2-6.8,2-10.4v-0.2
	l0,0c0-0.2-0.1-0.4-0.2-0.5c-0.1-0.1-0.2-0.2-0.4-0.2c-0.3,0-0.6,0.2-0.6,0.8c0,0.3,0,0.6,0,0.9c0,0.4,0,0.9-0.1,1.4l-0.3,2.2
	l-0.5,2.2c-0.1,0.4-0.2,0.9-0.4,1.3c-0.1,0.3-0.2,0.5-0.3,0.8c-1,2.8-2.4,5.4-4.2,7.7c-1.8,2.3-4,4.3-6.5,5.9
	c-1.2,0.7-2.4,1.4-3.7,1.9c-2.7,1.1-5.6,1.7-8.6,1.7c-1.8,0-3.6-0.2-5.4-0.6l-2-0.5l-1.9-0.7c-0.3-0.1-0.6-0.2-0.9-0.4l-0.9-0.4
	l-0.3-0.2l-0.6-0.3l-0.9-0.5c-2.4-1.4-4.5-3.2-6.3-5.3c-1.8-2.1-3.3-4.5-4.4-7.1c-1.1-2.6-1.8-5.4-2.1-8.2l-0.2-2.2v-2.2
	c0-0.5,0-1,0.1-1.5c0-0.2,0.1-0.4,0.1-0.7l0.1-1.1c0-0.2,0.1-0.4,0.1-0.7S5,153,5,152.9s0.1-0.5,0.2-0.8c0.1-0.5,0.2-0.9,0.3-1.3
	l0.7-2.1l0.2-0.4c0.5-1.2,1-2.4,1.7-3.5c0.3-0.5,0.6-1,0.9-1.4c1.1-1.6,2.4-3.1,3.9-4.5c2.5-2.3,5.4-4.1,8.6-5.3
	c3.2-1.2,6.5-1.7,9.9-1.6c6.8,0.3,13.2,3.2,17.9,8c4.9,5,7.9,11.6,8.5,18.5c0.1,0.6,0.4,0.9,0.7,0.9c0.1,0,0.3-0.1,0.4-0.2
	C58.8,159,58.9,158.8,58.8,158.5z M28.7,129.7c-3,0.3-5.9,1.1-8.7,2.3c-2.7,1.3-5.2,3-7.5,5c-1.8,1.7-3.3,3.6-4.6,5.6
	c-0.9,1.3-1.6,2.6-2.3,4c-1.6,3.3-2.5,6.9-2.7,10.6c-0.2,3.8,0.3,7.6,1.6,11.2c1.2,3.5,3.1,6.8,5.6,9.6l0.1,0.1
	c-0.3-0.3-0.7-0.7-1-1.1c-2.2-2.5-3.9-5.3-5.1-8.4c-1.2-3.2-1.9-6.5-2.1-9.9c-0.4-10.6,5-20.7,14-26.3c4.2-2.6,9.1-3.9,14.1-3.9
	c1.9,0,3.8,0.2,5.7,0.6c2.4,0.6,4.8,1.4,7,2.7c-1.7-0.8-3.4-1.3-5.2-1.7C34.8,129.6,31.8,129.4,28.7,129.7z"/>
<g>
	<defs>
		<path id="SVGID_16_" d="M56.3,158.8c0,14.7-11.6,26.9-25.9,26.9S4.5,173.6,4.5,158.8s11.1-26.9,25.9-26.7
			C45.8,132.4,56.3,144.1,56.3,158.8z"/>
	</defs>
	<clipPath id="SVGID_17_">
		<use xlink:href="#SVGID_16_"  style="overflow:visible;"/>
	</clipPath>
	<g style="clip-path:url(#SVGID_17_);">
		<rect x="15.6" y="136.8" style="fill:#283473;" width="2.8" height="8.1"/>
		<rect x="21.7" y="136.8" style="fill:#283473;" width="3" height="8.1"/>
		<polygon style="fill:#283473;" points="31.9,144.8 35.8,136.8 32.7,136.8 29.3,143.7 29.3,136.8 26.4,136.8 26.4,144.8 
			31.9,144.8 		"/>
		<polygon style="fill:#D01D36;" points="27,164.6 27.5,167.2 30.1,167.2 28.2,157.3 24.1,157.3 24.1,167.2 27,167.2 		"/>
		<polygon style="fill:#D01D36;" points="34.5,164.6 34.5,167.2 37.3,167.2 37.3,157.3 33.4,157.3 31.6,167.2 34,167.2 		"/>
		<polygon style="fill:#D01D36;" points="48.5,157.3 45.3,157.3 43.2,163.4 41.1,157.3 38,157.3 41.6,167.2 44.8,167.2 		"/>
		<polygon style="fill:#1D8541;" points="29.7,176.9 32,176.9 34,167.2 31.6,167.2 30.9,171.4 30.1,167.2 27.5,167.2 		"/>
		<rect x="34.5" y="167.2" style="fill:#1D8541;" width="2.8" height="9.7"/>
		<rect x="24.1" y="167.2" style="fill:#1D8541;" width="2.9" height="9.7"/>
		<polygon style="fill:#1D8541;" points="41,176.9 43.2,170.7 45.4,176.9 48.5,176.9 44.8,167.2 41.6,167.2 38,176.9 		"/>
		
			<linearGradient id="SVGID_18_" gradientUnits="userSpaceOnUse" x1="24.7927" y1="375.7981" x2="13.3427" y2="391.9581" gradientTransform="matrix(1 0 0 1 0 -206.8504)">
			<stop  offset="0" style="stop-color:#FFFFFF"/>
			<stop  offset="0.19" style="stop-color:#FFFFFF"/>
			<stop  offset="0.33" style="stop-color:#E0DEDF"/>
			<stop  offset="0.55" style="stop-color:#B3B2B1"/>
			<stop  offset="0.67" style="stop-color:#A3A1A1"/>
			<stop  offset="0.83" style="stop-color:#B0B0AE"/>
			<stop  offset="1" style="stop-color:#B5B4B4"/>
		</linearGradient>
		<path style="fill:url(#SVGID_18_);" d="M32.4,186.3c0.1,0,1.3,0.1,1.5-0.2s-0.9-1-0.8-1.1s0.2-0.9,0.3-0.9s1.9,0.1,2,0
			s0.4-0.7,0.7-0.7s0.3,0.1,0.5,0.3c0.3-0.5,0.5-1,0.5-1.6c0.1-0.7-0.2-0.9,0.2-1.3s0.7-0.4,0.6-0.9s-0.6,0-1-0.2s-0.7-0.1-1.7,0.1
			s-1.5,0.6-1.4,1.3s-0.3,0.4-0.3,1s-0.8,0.7-0.7,1s-0.6,0-0.8-0.1c-0.9,0.1-1.8,0.3-2.6,0.6c-0.3,0.1-0.8-0.6-1.2-0.6
			s-0.6-0.6-0.6-1.2s-0.8-1-1.2-1.5c-0.3-0.7-0.5-1.5-0.4-2.2c-0.1-1.1,0-2.2,0.4-3.2c0.1-0.2,0.1-0.3,0.1-0.5
			c-0.1-0.1-0.3-0.2-0.5-0.2c-0.4,0-1.4-0.6-1.5-0.6s-0.2-0.5-0.3-0.7s0-0.7-0.3-0.9c-0.5-0.4-0.9-0.9-1-1.6c-0.2-0.8-1.5-1.1-2-1.2
			s-0.7,1-0.9,1.1c-0.5-0.2-0.9-0.4-1.3-0.7c-0.3-0.2-0.4-0.4-0.4-0.7c0-0.3-0.5-0.8-0.7-0.9c-0.4-0.3-0.8-0.7-1.2-1.1h-1.7
			l-0.4,0.5H11c0,0-2.4-0.9-2.9-1c-0.4-0.2-0.9-0.4-1.2-0.7l-2.5,0.4c0.2,0.3,0.3,0.7,0.6,0.9c0.5,0.7,0.8,1.4,0.9,2.2
			c0,0.4,0.8,0.7,1.4,1.1c0.4,0.4,0.7,0.9,0.5,1.5c-0.1,0.2-0.8-0.1-0.9,0.1s1,1.1,1.4,1.1c0.4,0,0.6,0.2,1.2,0.8s0.6,1.2,0.3,1.4
			s0.5,0.6,1.3,1.2c0.5,0.4,1,0.9,1.2,1.5c0.1,0.3,0.4,0,0.5-0.4s-0.2-0.5-0.2-0.9s-0.6-0.4-0.9-0.4s0-0.7-0.3-1
			c-0.3-0.5-0.6-1-0.7-1.6c-0.1-0.6-0.9-1.1-1.2-1.7c-0.2-0.5-0.5-0.9-0.9-1.2c-0.2-0.1,0.3-0.4,0.1-0.6s-0.5-0.2-0.9-0.4
			c-0.4-0.2-0.6-0.5-0.6-0.9c-0.1-0.6-0.2-1.1-0.4-1.7c-0.1-0.3,0.3-0.3,0.4-0.1s0.2,0.3,0.4,0.2c0.2-0.1,0.5,0,0.6,0.2c0,0,0,0,0,0
			c0.1,0.3,0.5,0,0.7,0.1s-0.4,0.3,0.2,1.4s0.2,0.5,0.2,1.3s0.4,0.4,0.5,0.3s0.5,0.2,0.8,0.7s0.9,0.4,0.9,0.7c0,0.3,0.2,0.7,0.5,0.8
			c0.4,0.1,0.5,0.6,0.8,0.6s0.3,0.4,0.2,0.7s0,0.6,0.7,0.9s0.4,0.3,0.9,0.9c0.8,0.9,1.6,1.8,2.4,2.7c0.2,0.4,0.4,0.8,0.5,1.2
			c0.1,0.4-0.2,0.5,0,0.8s-0.4,0.2-0.3,0.4s0.3,1.4,0.9,1.4s1.1,0.7,1.6,1.1s1.1,0.3,1.8,0.6c0.7,0.4,1.4,0.8,2.2,1.1
			c0.9,0.3,1.7,0.6,2.5,1.1c0.7,0.3,1.6,0.3,2.2-0.1c0.7-0.2,1.4-0.1,2,0.3c0.4,0.3,0.8,0.6,1.2,1C31.9,187,32.3,186.4,32.4,186.3"
			/>
		
			<linearGradient id="SVGID_19_" gradientUnits="userSpaceOnUse" x1="28.7311" y1="378.2412" x2="16.9511" y2="394.8812" gradientTransform="matrix(1 0 0 1 0 -206.8504)">
			<stop  offset="0" style="stop-color:#FFFFFF"/>
			<stop  offset="0.17" style="stop-color:#FFFFFF"/>
			<stop  offset="0.32" style="stop-color:#E0DEDF;stop-opacity:0.71"/>
			<stop  offset="0.55" style="stop-color:#B3B2B1;stop-opacity:0.24"/>
			<stop  offset="0.67" style="stop-color:#A3A1A1;stop-opacity:0"/>
			<stop  offset="0.83" style="stop-color:#B0B0AE;stop-opacity:0"/>
			<stop  offset="1" style="stop-color:#B5B4B4;stop-opacity:0"/>
		</linearGradient>
		<path style="fill:url(#SVGID_19_);" d="M24.6,176.9c0.4,0.8,0.9,1.6,1.4,2.5c-0.1-0.4-0.1-0.8-0.1-1.2c-0.1-1.1,0-2.2,0.4-3.2
			c0.1-0.2,0.1-0.3,0.1-0.5c-0.1-0.1-0.3-0.2-0.5-0.2c-0.4,0-1.4-0.6-1.5-0.6s-0.1,0-0.1-0.1c-0.1,0.6-0.2,1.2-0.2,1.9
			C24.2,175.9,24.4,176.4,24.6,176.9C24.6,176.9,24.6,176.9,24.6,176.9z"/>
		<path style="fill:#D01D36;" d="M16.9,155.3c0.8,0.9,2,1.4,3.2,1.4c1.2,0,2.4-0.5,3.2-1.3c0.9-0.9,1.3-2.1,1.3-3.3v-7.2h-3v7.1
			c0,0.4-0.2,0.9-0.5,1.2c-0.3,0.3-0.7,0.5-1.2,0.5c-0.4,0-0.9-0.2-1.2-0.5c-0.3-0.3-0.5-0.7-0.5-1.2v-7.1h-2.8v7.2
			C15.6,153.2,16.1,154.4,16.9,155.3z"/>
		<polygon style="fill:#D01D36;" points="29.3,156.4 29.3,150.2 30.1,148.4 33.1,156.4 36.5,156.4 31.9,144.8 26.4,144.8 
			26.4,156.4 		"/>
		
			<linearGradient id="SVGID_20_" gradientUnits="userSpaceOnUse" x1="34.979" y1="355.5961" x2="55.109" y2="337.3861" gradientTransform="matrix(1 0 0 1 0 -206.8504)">
			<stop  offset="0" style="stop-color:#FFFFFF"/>
			<stop  offset="2.000000e-02" style="stop-color:#FCFCFC"/>
			<stop  offset="0.32" style="stop-color:#CBC9C9"/>
			<stop  offset="0.54" style="stop-color:#ADABAB"/>
			<stop  offset="0.67" style="stop-color:#A3A1A1"/>
			<stop  offset="0.83" style="stop-color:#B0B0AE"/>
			<stop  offset="1" style="stop-color:#B5B4B4"/>
		</linearGradient>
		<path style="fill:url(#SVGID_20_);" d="M43.5,133.3l-0.1-0.1c0,0-0.1,0-0.1,0c0,0,0,0,0,0l-0.1,0.1L43.5,133.3z M40.9,135.6
			l0.3-0.5c0,0,0-0.1,0-0.1l-0.5-0.3c0,0-0.1,0-0.1,0l-0.3,0.2c0,0,0,0.1,0,0.1c0,0,0,0,0,0l0.2,0.1c0,0,0,0.1,0,0.1c0,0,0,0,0,0
			l-0.1,0.1c0,0,0,0.1,0,0.1c0,0,0,0,0,0l0.3,0.1C40.8,135.6,40.8,135.6,40.9,135.6 M44.9,131.6l-0.1-0.1c0,0-0.1,0-0.1,0l-0.2,0.2
			c0,0-0.1,0-0.1,0c0,0,0,0,0,0v-0.3c0,0-0.1,0-0.1,0c0,0,0,0,0,0l-0.1,0.1c0,0-0.1,0-0.1,0c0,0,0,0,0,0c0,0,0-0.1-0.1-0.1h-0.1
			c0,0-0.1,0-0.1,0.1v0.4l0.1-0.1v0.1c0,0,0,0.1,0,0.1l0,0c0,0,0,0,0,0.1l-0.1,0.5c0,0,0,0,0,0.1l0.3,0.3c0,0,0,0.1,0,0.2
			c0,0,0,0,0,0l-0.1,0.1c0,0,0,0.1,0,0.2c0,0,0,0,0,0l0,0c0,0,0,0,0.1,0l0.3-0.1l0,0l0.2,0.1c0,0,0.1,0,0,0v-0.1l0,0l-0.3-0.2
			c0,0,0,0,0-0.1l-0.1-0.4c0,0,0-0.1,0-0.1l0.5-0.4c0,0,0,0,0-0.1l0.1-0.3C44.9,131.7,44.9,131.7,44.9,131.6 M42.9,134.5l-0.1-0.2
			l0,0v-0.4c0,0,0,0,0-0.1l-0.3-0.1c0,0-0.1,0-0.1,0.1c0,0,0,0,0,0l0.1,0.4c0,0,0,0.1,0,0.1c0,0-0.1,0-0.1,0l-0.1-0.1
			c0,0-0.1,0-0.1,0c0,0,0,0,0,0c0,0,0,0.1-0.1,0.1l0,0c0,0-0.1,0-0.1,0.1c0,0,0,0,0,0.1l0.3,0.3c0,0,0,0.1,0,0.1c0,0,0,0,0,0l0,0
			l0.4,0.1c0,0,0.1,0,0.1,0l0.1-0.2C43,134.6,43,134.6,42.9,134.5 M43.4,132.8l-0.1,0.2c0,0,0,0.1,0,0.1l0,0c0,0,0.1,0,0.1-0.1
			l0-0.1c0,0,0-0.1,0-0.1l0,0C43.5,132.7,43.5,132.7,43.4,132.8C43.4,132.7,43.4,132.7,43.4,132.8 M41.6,135.6l0.4-0.1
			c0,0,0.1-0.1,0-0.1c0,0,0,0,0,0l-0.6-0.1c0,0,0,0-0.1,0l-0.1,0.2c0,0,0,0.1,0,0.1c0,0,0,0,0,0L41.6,135.6 M42.2,133.2l0.2,0.1
			c0.1,0,0.2,0,0.2,0l0.2-0.1L42.2,133.2z M41.7,134.6l-0.4,0.1h0.2c0,0,0,0,0.1,0L41.7,134.6z M54.6,134.7
			C54.6,134.7,54.6,134.7,54.6,134.7C54.5,134.7,54.5,134.7,54.6,134.7l-0.4,0L54.6,134.7C54.5,134.8,54.6,134.8,54.6,134.7
			C54.6,134.8,54.6,134.8,54.6,134.7 M56,133.9l0.3-0.3c0,0,0,0,0-0.1l0,0c0,0,0-0.1-0.1-0.1c0,0,0,0,0,0l-0.1,0.1l0,0h-0.2
			c0,0-0.1,0-0.1,0.1v0.2c0,0,0,0.1,0.1,0.1L56,133.9L56,133.9 M56.7,133.6L56.7,133.6C56.7,133.6,56.7,133.6,56.7,133.6L56.7,133.6
			c-0.1,0.1-0.1,0.1,0,0.1c0,0,0,0,0,0h0c0,0,0.1-0.1,0-0.1C56.8,133.6,56.8,133.6,56.7,133.6 M51,133.6v-0.2c0,0,0,0,0-0.1h0
			c0,0-0.1,0-0.1,0c0,0,0,0,0,0l-0.1,0.2c0,0,0,0.1,0,0.1c0,0,0,0,0,0L51,133.6L51,133.6 M51.3,133.3l-0.2,0.2c0,0,0,0.1,0,0.1
			l0.2,0.2l0,0v0.1c0,0,0.1,0,0.1,0c0,0,0,0,0,0l0.1-0.1c0,0,0-0.1,0-0.1c0,0,0,0,0,0l-0.3-0.3h0.2c0,0,0.1,0,0.1-0.1v-0.3l0,0
			l-0.2-0.2c0,0-0.1,0-0.1,0l-0.2,0.2l0,0v0.1c0,0,0,0.1,0,0.1c0,0,0,0,0,0L51.3,133.3z M55.6,133.4l-0.1-0.1c0,0,0,0-0.1,0
			l-0.1,0.1c0,0,0,0.1,0,0.1c0,0.1,0,0.1,0,0.2c0,0,0.1,0,0.1,0c0,0,0,0,0,0L55.6,133.4C55.6,133.5,55.6,133.4,55.6,133.4
			 M51.8,133.3L51.8,133.3C51.8,133.2,51.8,133.2,51.8,133.3C51.7,133.3,51.7,133.3,51.8,133.3C51.7,133.3,51.7,133.4,51.8,133.3
			C51.8,133.3,51.9,133.3,51.8,133.3C51.8,133.2,51.8,133.2,51.8,133.3 M38.7,138.8L38.7,138.8c-0.1-0.1-0.1-0.2-0.1-0.2l0.2-0.1
			c0,0,0.1,0,0.1-0.1v-0.1c0,0,0.1,0,0.1,0c0,0,0,0,0,0l0,0c0,0,0,0.1,0,0.1l-0.1,0.1c0,0.1,0,0.1,0.1,0.1l0.2-0.2c0,0,0-0.1,0-0.1
			l-0.1-0.2c0,0,0-0.1,0-0.1c0,0,0.1,0,0.1,0c0.1,0,0.1,0,0.1-0.1c0,0,0,0,0,0l0.2-0.9c0,0,0,0,0-0.1l0.2-0.2c0,0,0-0.1,0-0.1
			l-0.1-0.3l0,0l-0.4-0.5l0,0l-0.4-0.1l0,0l-0.1-0.1h-0.1h-0.1l0,0l-0.3-0.2l0,0H38l0,0l-0.2-0.1c0,0,0,0-0.1,0l-0.3,0.1
			c0,0-0.1,0-0.1,0l-0.2-0.2c0,0-0.1,0-0.1,0l-0.9,0.2c0,0-0.1,0.1-0.1,0.1v1.1c0,0,0,0.1,0,0.1l0.2,0.1c0,0,0.1,0,0.1,0l0.4-0.2
			h0.1l0.2,0.1c0,0,0.1,0,0.1,0.1l0.2,0.6c0,0,0,0,0,0.1L37,138c0,0,0,0.1,0,0.1l0-0.1l0,0l0.1,0.5l0,0v0.1l0.1-0.1
			c0,0,0.1-0.1,0.1,0c0,0,0,0,0,0l0,0c0,0,0,0,0.1,0l0.3,0.1c0,0,0,0,0.1,0l0.1-0.1c0,0,0.1,0,0.1,0c0,0,0,0,0,0l0.2,0.3
			c0,0,0.1,0,0.1,0l0.1-0.1c0,0,0-0.1,0-0.1 M40.8,153.9L40.8,153.9l-0.2-0.1l0.1,0.3l0,0l0.2,0.1l0,0v-0.2l0,0L40.8,153.9z
			 M41.4,136.5l-0.3,0.4l0.2,0.4l0.3-0.2l0,0l0.2-0.5c0,0,0-0.1,0-0.1L41.4,136.5 M42.9,152.7l1.7-0.1c0,0,0,0,0-0.1l-0.1-0.9l0,0
			l-0.6-0.8l0,0l-0.4-0.4c0,0-0.1,0-0.1,0l-0.3,0.2l0,0h-0.2c0,0-0.1,0-0.1-0.1v-0.4l0,0l-0.1-0.2c0,0,0-0.1,0-0.1c0,0,0,0,0.1,0
			l0.7,0.1c0,0,0,0,0.1,0l0.2-0.2l0,0L44,149c0-0.1,0-0.2,0-0.3c0,0,0-0.1,0-0.1l-0.1-0.4c0,0,0-0.1,0-0.1V148c0-0.1,0-0.2-0.1-0.3
			l0,0l0,0h-0.1c0,0-0.1-0.1-0.1-0.1l-0.1-0.2c0,0,0,0,0-0.1l-0.1-0.1l0.2,0.1c0,0,0.1,0.1,0.1,0.1v0.1c0,0,0,0.1,0.1,0.1l0.2,0.1
			c0,0,0.1,0.1,0.1,0.1v0.1c0,0,0,0.1,0,0.1l0,0c0,0.1,0,0.2,0.1,0.2l0,0c0,0,0,0,0.1,0.1l0.1,0.1l0.1-0.9v-0.2
			c0-0.1,0.1-0.2,0.2-0.2c0.1,0,0.1,0,0.2,0h0.1l-0.1-0.2c0,0,0-0.1,0-0.1v-0.1c0,0,0,0,0-0.1l0,0c0,0,0,0,0-0.1L45,146
			c0,0,0-0.1,0-0.1l-0.1-0.5c0,0,0,0,0-0.1l-0.3-0.5c-0.1-0.1-0.1-0.2,0-0.2l0,0c0-0.1,0-0.1,0-0.2c0,0,0-0.1,0-0.1l0.3-0.6v-0.1
			l0.1-0.4c0,0,0-0.1,0-0.1l0.5-0.7l0,0l0.1-0.4l0,0l-0.1-0.1 M45.6,141.9l0.2-1l0,0l-0.1-0.3c0,0,0-0.1,0-0.1v-0.3c0,0,0,0,0-0.1
			l-0.1-0.4c0-0.1-0.1-0.1-0.1-0.1h-0.1l0,0l-0.3-0.1c-0.1,0-0.1-0.1-0.1-0.1l-0.2-0.4c0,0,0-0.1-0.1-0.1l-0.1-0.1c0,0,0-0.1,0-0.1
			l-0.1-0.3c0,0,0-0.1,0-0.1l0.1-0.2l0.1,0.2v0.1l0.3,0.4l0,0L45,139c0,0,0.1,0,0.2,0h0.1c0.1,0,0.1,0,0.2,0.1l0.2,0.2
			c0,0,0.1,0,0.1,0.1h0.1c0.1,0,0.2,0,0.2-0.1c0,0,0-0.1,0-0.1c0-0.1,0-0.1,0-0.2l0,0c0,0,0-0.1,0-0.1l0,0c0-0.1,0-0.1-0.1-0.1
			l-0.3-0.1c-0.1,0-0.1-0.1-0.1-0.2l0,0l0.4,0.1c0,0,0.1,0,0.1,0.1l0.2,0.3c0,0,0.1,0.1,0.1,0.1h0.2c0,0,0.1,0,0.1,0h0.1
			c0,0,0.1,0,0.1,0H47h0.1l0.5-0.1l0,0h0.2c0,0,0.1,0,0.1-0.1l0,0c0,0,0.1,0,0.1-0.1l0.3-0.1c0,0,0.1,0,0.1-0.1l0,0
			c0,0,0-0.1,0.1-0.1l0.4-0.1h0.1l0.3,0.1c0,0,0.1,0,0.1,0l0.2-0.1c0,0,0-0.1,0-0.1v-0.5c0-0.1,0-0.1-0.1-0.1c0,0,0,0-0.1,0
			l-0.6-0.6l0,0l-0.2-0.4c0-0.1-0.1-0.1-0.2-0.1c-0.1,0-0.1,0-0.1-0.1l0.1-0.3v-0.1l-0.1-0.2c0,0,0-0.1,0-0.1l-0.1-0.1
			c0,0-0.1,0-0.1,0l0,0c0,0-0.1,0-0.1,0l-0.2-0.2l0,0l-0.3-0.1l-0.1-0.1l0,0c0,0-0.1-0.1-0.1-0.1l-0.2-0.1v-0.1h0.4l0,0l0.6-0.1
			l-0.2-0.1c-0.1,0-0.1-0.1-0.1-0.1v-0.1c0,0,0-0.1,0-0.1c0,0,0,0,0.1,0H48l0.2-0.1l0,0l1,0.3l0,0l0.4-0.1h0l0.2,0.1c0,0,0,0,0.1,0
			l0.3-0.1c0,0,0,0,0-0.1v-0.1c0,0,0-0.1,0.1-0.1h0.2l0,0c0-0.1,0-0.1,0-0.2l-0.1-0.2c0,0-0.1,0-0.1,0H50c0,0,0,0-0.1-0.1l-0.1-0.2
			c0,0,0,0-0.1-0.1l-0.4-0.2l-0.2-0.3l-0.3-0.2l-0.1-0.1h-0.2l0.2-0.1l-0.1-0.2l-0.5-0.1l0.3-0.1l-0.2-0.5l-0.2,0.1c0,0-0.1,0-0.1,0
			l0,0c-0.1,0-0.1,0-0.2,0.1l-0.1,0.1l-0.1-0.1l-0.1,0.1c-0.1,0.1-0.1,0.1-0.2,0l0,0c-0.1-0.1-0.2,0-0.2,0c0,0,0,0,0,0.1l0,0
			c0,0.1-0.1,0.1-0.1,0.1h-0.1c0,0-0.1,0-0.1,0l-0.1-0.1v0.5c0,0,0,0,0,0.1l-0.1,0.2l-0.1-0.4c0-0.1-0.1-0.1-0.1-0.1
			c-0.1,0-0.1-0.1-0.1-0.1v-0.3l-0.1,0.1l0,0l-0.1,0.2l0,0h-0.1c0,0,0,0,0,0l0.1-0.2l0,0l-0.2,0.1l0,0v0.2l0,0h-0.1
			c0,0,0.3,0.2,0.3,0.2l-0.4,0.2l0,0l0.2,0.2l-0.2-0.2l0,0l-0.1-0.2 M45.3,132.7l-0.2,0.3l0,0l-0.1,0.1c0,0,0,0.1,0,0.1l0.4,0.4
			l-0.3-0.2l0,0H45v0.1l0,0l0.3,0.2h-0.1v0.2l-0.1-0.2l0,0H45l0,0l-0.2,0.1l0,0v0.1l-0.2-0.1l0,0h-0.2c0,0,0,0,0,0.1l0.1,0.2l0,0
			l-0.1,0.1l-0.1-0.4 M44.3,133.7l-0.1,0.1c0,0-0.1,0.1-0.1,0.1c0,0.1,0,0.1-0.1,0.1c0,0,0,0,0,0h-0.1h-0.2l0,0l-0.2-0.3l0,0H43
			c0,0-0.1,0-0.1,0.1c0,0,0,0,0,0v0.1l0,0l0.2,0.2l0,0l0.1,0.2h-0.1h-0.1l0,0c0,0-0.1,0-0.1,0c0,0,0,0,0,0.1v0.2c0,0,0,0,0,0.1l0,0
			c0,0,0,0,0,0.1v0.1c0,0,0,0.1,0.1,0.1l1.1,0.1H44c0,0,0,0,0,0v0.1l-0.2-0.1l0,0l-0.5,0.1l0,0v0.1l0,0l-0.5,0.1c0,0,0,0.1,0,0.1
			l0,0c0,0,0,0.1,0,0.1l-0.5,0.2l0,0l-0.2,0.3l0,0H42c0,0-0.1,0-0.1,0.1v0.1c0,0,0,0.1,0,0.1H42l-0.5,0.1l0,0l-0.4,0.3h-0.3l0,0
			c0,0,0,0.1,0,0.1l0.2,0.2c0,0,0.1,0.1,0.1,0c0,0,0,0,0,0l0.1-0.1l0.4-0.1l0,0l0.2-0.2l0,0h0.3c0,0,0,0,0.1,0l0.3-0.5
			c0,0,0.1,0,0.1,0c0,0,0,0,0,0l0,0l0,0h0.8l-0.7,0.1l0,0l-0.3,0.2c0,0,0,0,0,0.1l0,0c0,0,0,0.1,0.1,0.1c0,0,0,0,0,0l0.1-0.1l0,0
			l0.2,0.1c0,0,0,0.1,0,0.1c0,0,0,0,0,0l-0.1,0.1c0,0.1,0,0.1,0.1,0.1l0.3-0.1l0,0l0.2-0.2c0,0,0.1,0,0.1,0l0,0c0,0,0,0.1,0,0.1
			c0,0,0,0,0,0l-0.2,0.1c0,0,0,0,0,0.1l0.1,0.5l-0.2-0.3c0,0-0.1,0-0.1,0l-0.4,0.2l0,0l-0.2,0.3c0,0,0,0.1,0,0.1l0.1,0.2l-0.2,0.3
			h-0.5l-0.9,0.3l0,0l-0.1,0.1c0,0-0.1,0.1-0.1,0c0,0,0,0,0,0l0,0c0,0-0.1-0.1-0.1,0c0,0,0,0,0,0l-0.2,0.2l0,0l0,0.3
			c0,0,0,0.1,0,0.1s0.1,0,0.1,0l0,0l0,0c0,0,0.1,0,0.1,0c0,0,0,0,0,0l0.2,0.1c0,0,0,0,0,0.1l0.1,0.8c0,0,0,0.1,0.1,0.1c0,0,0,0,0,0
			l0.1-0.1c0,0,0,0,0-0.1v-0.2c0,0,0-0.1,0.1-0.1c0,0,0,0,0.1,0c0,0,0,0,0,0.1l0.1,0.7c0,0,0,0,0,0.1l0.3,0.3l0.1-0.1 M41.9,140.4
			l0.2,0.2c0,0,0.1,0,0.1,0l0.2-0.1c0,0,0.1,0,0.1,0l0.2,0.2c0,0,0,0.1,0,0.1c0,0-0.1,0-0.1,0l0,0l-1.1,0.4c0,0-0.1,0-0.1,0.1
			l-0.3,0.9c0,0.1,0,0.1,0.1,0.1l0,0c0.1,0,0.1,0.1,0,0.2c0,0,0,0,0,0c0,0-0.1,0.1,0,0.2c0,0,0.1,0,0.1,0h0.2c0,0,0.1,0,0.1,0.1
			l0.2,0.3l-0.5,0.2v0.2l-0.4-0.1c-0.1,0-0.1,0-0.1,0.1l-0.2,0.4c0,0,0,0-0.1,0.1L40,144c-0.1,0-0.1,0.1-0.1,0.1v0.3v0.4
			c0,0,0,0,0,0.1l0.1,0.2h-0.2h-0.1l-0.1-0.1c0,0,0-0.1,0-0.1l0-0.2c0-0.1,0-0.1-0.1-0.1c-0.1,0-0.1,0-0.2,0c0,0,0,0,0,0l0,0.2
			c0,0,0,0,0,0.1v0.2l-0.2-0.3c0,0,0,0,0-0.1v-0.3c0,0,0-0.1,0-0.1l-0.6-0.4l0,0l-0.2-0.2l0,0l-0.7-0.3l0,0h-0.6l0,0l-0.5-0.2h-0.2
			c0,0-0.1,0.1,0,0.1c0,0,0,0,0,0l0.1,0.1l0,0v0.1c0,0,0.1,0,0.1,0l0,0c0,0,0.1,0,0.1,0l0.5,0.4c0,0,0.1,0.1,0,0.1c0,0,0,0,0,0
			l-0.2,0.1c0,0,0,0,0,0.1v0.2c0,0,0,0.1-0.1,0.1c0,0,0,0,0,0H37c0,0-0.1,0-0.1,0.1c0,0,0,0,0,0l-0.1,0.2c0,0,0,0,0,0.1l0,0
			c0,0,0,0.1,0,0.1c0,0,0,0,0,0l-0.8,0.2l-0.3-0.2l-0.4-0.1l-0.1-0.1l-0.5-0.2l0,0l-0.2-0.2l0,0l-0.3-0.1c0,0-0.1,0-0.1,0.1
			c0,0,0,0,0,0.1l0.1,0.1c0,0,0,0.1,0,0.1l-0.1,0.1c0,0-0.1,0-0.1,0l0,0c0,0-0.1,0-0.1,0c0,0,0,0,0,0.1l0.1,0.2h-0.3
			c0,0-0.1,0-0.1,0.1c0,0,0,0,0,0v0.1l0,0l0.2,0.2l0,0l0.3,0.1l0,0l0.4,0.3c0,0,0,0.1,0,0.1c0,0,0,0,0,0l-0.1,0.1c0,0,0,0.1,0,0.1
			v0.1c0,0.1,0,0.1-0.1,0.1c0,0-0.1,0-0.1,0l0,0c0,0,0,0.1,0,0.1c0,0,0,0,0,0l0.3,0.4l0,0c0,0,0.1,0,0.1,0l0.2,0.1c0,0,0,0,0,0.1
			v0.4v0.4l0.4,0.5c0,0,0.1,0,0.1,0h0.2c0,0,0.1,0,0.1,0l0.3,0.1l0,0l0.4,0.2l0,0h0.2l0,0l0.4,0.2h-0.8l0,0l-0.6-0.1c0,0,0,0-0.1,0
			l-0.3,0.3c0,0-0.1,0-0.1,0l-0.2-0.2l0,0l-0.2-0.1c0,0,0,0,0-0.1l-0.1-0.3l0,0l-0.5-0.8l-0.5-0.4l-0.2,0.2H33c0,0,0,0,0,0l-0.2-0.2
			c0,0-0.1,0-0.1,0c0,0,0,0,0,0l-0.5,0.4c0,0,0,0-0.1,0l-0.5-0.1l0,0h-0.1c0,0,0,0-0.1,0l-0.3-0.2c0,0-0.1,0-0.1,0l-0.3,0.1
			c0,0-0.1,0-0.1,0l0-0.1c0,0-0.1,0-0.1,0l-0.2,0.1l0,0l-0.5-0.2c0,0,0,0,0-0.1l-0.1-0.2c0,0,0,0,0-0.1l-0.3-0.1c0,0,0,0-0.1,0
			l-0.1,0.1c0,0,0,0.1,0,0.1l0.1,0.2c0,0,0.1,0,0.1,0c0,0,0,0,0,0l0.1-0.1c0,0,0.1,0,0.1,0c0,0,0,0,0,0l0.2,0.3c0,0,0,0,0,0.1
			l-0.1,0.2c0,0,0,0.1,0.1,0.1H30c0,0,0.1,0,0.1-0.1v-0.1c0,0,0-0.1,0.1-0.1h0.2c0,0,0.1,0,0.1,0.1c0,0,0,0,0,0c0,0,0,0.1,0.1,0.1
			c0,0,0,0,0,0h0.2c0,0,0,0,0,0l0.1,0.1c0,0,0.1,0,0.1,0l0.2-0.1c0,0,0.1,0,0.1,0l0.1,0.3l0,0l0.3,0.1l0,0l0.1,0.2l0,0l0.1,0.1
			c0,0,0,0.1,0,0.1v0.2c0,0,0,0,0,0.1l0.1,0.1l0,0v0.3l0,0l0.1,0.2c0,0,0.1,0,0.1,0c0,0,0,0,0,0l0,0c0,0,0.1,0,0.1,0c0,0,0,0,0,0
			l0.2,0.1c0,0,0,0,0.1,0h0.2l0,0l0.2-0.2c0,0,0,0,0.1,0h0.2c0,0,0.1,0,0.1,0h0c0,0,0.1,0,0.1,0l0,0c0,0,0.1,0,0.1,0l0.6,0.4l0,0
			l0.2,0.3l0,0l0.1,0.5c0,0,0,0,0,0.1l0.1,0.1l0,0l0.3,0.4l0,0l0.1,0.2c0,0,0.1,0.1,0.1,0.1l0.2-0.1h0.1l0.4,0.2l0,0l0.1,0.2l0,0
			l0.4,0.1l0,0l0.1,0.2l0,0l0.1,0.1h0.1h0.1c0,0,0.1,0.1,0.1,0.1c0,0,0,0,0,0l0,0c0,0,0,0,0,0.1l0,0.2c0,0,0,0.1,0.1,0.1l0.3,0.1
			l0.1,0.1l0.4,0.5l0,0l0.3,0.3l0,0l0.2,0.4l0,0l0.1,0.1c0,0,0,0,0.1,0.1l0.3,0.1l0,0l0.2,0.2h0l0.3,0.1c0,0,0,0,0.1,0l0.1,0.1l0,0
			l0,0c0,0,0.1,0.1,0.1,0c0,0,0,0,0,0c0,0,0.1,0,0.1,0l0.5,0.2l0,0l0.2,0.2l0,0l0.2-0.2l0,0l0.1-0.2l0,0l0.2-0.1l0,0l-0.4-0.4l0,0
			l-0.4-0.2l0,0l-0.2-0.2l0,0l-0.2-0.4l0,0l-0.1-0.1H40l0,0l0.1,0.1h0.1L40,153l0,0l-0.3-0.2l0.5,0.1l0,0l0.2,0.2l0,0l0.2,0.1
			c0,0,0.1,0,0.1,0l0.1-0.1c0,0,0-0.1,0-0.1c0,0,0-0.1,0-0.1c0,0,0,0,0.1,0h0h0.2c0,0,0.1,0,0.1,0.1v0.1c0,0,0,0.1,0.1,0.1l0.3,0.1
			l0,0h0.2l-0.1-0.1l0,0c0.1,0,0.1-0.1,0.1-0.1c0,0,0,0,0,0l0,0c0,0,0-0.1,0-0.1c0,0,0,0,0,0h0.1c0,0,0.1,0,0.1,0L42,153
			c0,0,0,0,0,0.1c0,0,0,0.1,0,0.1c0,0,0,0,0,0h0.3l0.2,0.1c0,0,0.1,0,0.1,0L43,153l0,0l0.5-0.2c0,0,0,0,0-0.1v-0.2
			c-0.1,0,0-0.1,0-0.1 M38.4,139.6l-0.3,0.1c-0.1,0-0.1,0.1,0,0.2c0,0,0,0,0,0l0.1,0.1h0.1l0.6,0.1c0,0,0.1,0,0.1-0.1V140h0
			c0.1,0,0.1-0.1,0.1-0.1c0,0,0-0.1-0.1-0.1L38.4,139.6L38.4,139.6 M36.9,142.3L38,143c0,0,0.1,0,0.1-0.1c0,0,0-0.1,0-0.1
			c0,0,0-0.1,0-0.1l0.1-0.2c0,0,0-0.1,0-0.1l-0.2-0.2c0,0-0.1,0-0.1,0l-0.2,0.1c0,0-0.1,0.1,0,0.1l0.2,0.5c0,0,0,0.1,0.1,0.1
			 M36.7,152.3l-0.3-0.1c0,0-0.1,0-0.1,0.1c0,0,0,0.1,0,0.1l0,0l0,0v0.3c0,0,0,0,0,0.1l0.1,0.1c0,0,0.1,0,0.1,0l0,0h0l0,0
			c0,0,0.1-0.1,0-0.1c0,0,0,0,0,0c0,0,0,0,0-0.1v-0.2c0,0,0-0.1-0.1-0.1 M44.6,130.4l-0.1-0.1h0h-0.1l0,0h-0.1v0.3
			c0,0,0,0.1,0.1,0.1l0.4,0.1c0,0,0.1,0,0.1,0c0,0,0,0,0-0.1L44.6,130.4L44.6,130.4 M42.3,136.9L42.3,136.9c0-0.1,0-0.2,0-0.2
			c0,0,0,0-0.1,0l-0.1,0.1c0,0,0,0,0,0.1v0.1c0,0,0,0,0.1,0C42.2,137,42.2,137,42.3,136.9L42.3,136.9L42.3,136.9 M43.7,130.7
			L43.7,130.7c0.1-0.1,0.1-0.1,0.1-0.2l-0.3-0.4l0,0h-0.1c0,0-0.1,0-0.1,0c0,0,0,0,0,0v0.3c0,0,0,0,0,0.1L43.7,130.7
			C43.6,130.8,43.6,130.8,43.7,130.7 M44.7,130.2v0.1l0,0l0.2,0.2l0,0l0.2,0.3c0,0,0,0,0.1,0h0.3c0,0,0.1,0,0.1-0.1l0,0
			c0,0,0-0.1,0-0.1l0.2-0.1l0,0l0.4,0.1h0.1l0.2-0.3c0,0,0-0.1,0-0.1c0,0,0,0,0,0l-1-0.3c0,0-0.1,0-0.1,0v0.1c0,0-0.1,0.1-0.1,0
			c0,0,0,0,0,0l-0.1-0.3c0,0,0,0-0.1-0.1H45c0,0-0.1,0-0.1,0.1l0,0v0.2c0,0,0,0.1-0.1,0.1c0,0,0,0,0,0l0,0
			C44.8,130.1,44.8,130.1,44.7,130.2C44.8,130.1,44.7,130.2,44.7,130.2 M41.6,133.2h0.1c0,0,0.1,0,0.1-0.1c0,0,0,0,0-0.1l-0.1-0.1
			c0,0-0.1,0-0.1,0c0,0,0,0,0,0h-0.1C41.5,133,41.5,133,41.6,133.2C41.5,133.1,41.6,133.1,41.6,133.2 M42.2,131.2H42l0,0
			c0,0,0,0.1,0,0.1c0,0,0,0,0,0l0.1,0.1c0,0,0.1,0,0.1,0v-0.1C42.2,131.3,42.2,131.2,42.2,131.2C42.2,131.2,42.2,131.2,42.2,131.2
			 M43.2,130.6L43.2,130.6C43.1,130.6,43.1,130.6,43.2,130.6l0.1,0.3c0,0,0,0,0.1,0h0.1c0,0,0-0.1,0-0.1c0,0,0,0,0,0L43.2,130.6
			C43.2,130.5,43.2,130.5,43.2,130.6C43.2,130.6,43.2,130.6,43.2,130.6 M43.2,130.9L43.2,130.9c-0.1-0.1-0.1-0.1-0.1-0.1
			c0,0,0,0,0,0l-0.1,0.1l0,0l-0.2,0.1l0,0l-0.1,0.2c0,0,0,0,0,0.1v0.1c0,0,0.1,0,0.1,0c0,0,0,0,0,0l0.1-0.2l0,0H43l0,0l0.1-0.1
			C43.1,131,43.1,130.9,43.2,130.9"/>
		<path style="fill:#020303;" d="M7.3,159.5c0-0.6,0.2-1.2,0.5-1.6c0.3-0.3,0.8-0.5,1.2-0.5c0.5,0,0.9,0.2,1.2,0.5
			c0.3,0.3,0.5,0.8,0.5,1.3c0,0.5-0.1,1-0.3,1.5c-0.2,0.5-0.5,0.9-0.8,1.3c-0.1,0.2-0.3,0.4-0.5,0.8l-0.2,0.3
			c-0.1,0.2-0.2,0.4-0.3,0.5c0,0,0,0.1-0.1,0.1h2.1v1.1H7.3v-1c0.1-0.1,0.1-0.3,0.2-0.4l0.2-0.4l0.3-0.4l0.8-1.1
			c0.3-0.4,0.5-0.8,0.7-1.3c0.1-0.3,0.2-0.7,0.2-1c0-0.2-0.1-0.4-0.2-0.6c-0.1-0.2-0.3-0.2-0.5-0.2c-0.3,0-0.5,0.2-0.6,0.5
			c0,0.1-0.1,0.3-0.1,0.4v0.3h-1L7.3,159.5z"/>
		<path style="fill:#020303;" d="M14.6,163.1c0,0.5-0.2,0.9-0.5,1.2c-0.6,0.7-1.7,0.7-2.3,0.1c0,0,0,0-0.1-0.1
			c-0.3-0.3-0.5-0.8-0.5-1.2v-4c0-0.5,0.2-0.9,0.5-1.2c0.3-0.3,0.7-0.5,1.2-0.5c0.5,0,0.9,0.2,1.2,0.5c0.3,0.3,0.5,0.8,0.5,1.2
			V163.1z M13.5,159.1c0-0.2-0.1-0.3-0.2-0.4c-0.1-0.1-0.3-0.2-0.4-0.2c-0.2,0-0.3,0.1-0.4,0.2c-0.1,0.1-0.2,0.3-0.2,0.4v4
			c0,0.2,0.1,0.3,0.2,0.4c0.1,0.1,0.3,0.2,0.4,0.2c0.2,0,0.3-0.1,0.4-0.2c0.1-0.1,0.2-0.3,0.2-0.4V159.1z"/>
		<path style="fill:#020303;" d="M15.1,159.5c0-0.6,0.2-1.2,0.5-1.6c0.3-0.3,0.8-0.5,1.2-0.5c0.5,0,0.9,0.2,1.2,0.5
			c0.3,0.3,0.5,0.8,0.5,1.3c0,0.5-0.1,1-0.3,1.5c-0.2,0.5-0.5,0.9-0.8,1.3c-0.1,0.2-0.3,0.4-0.5,0.8l-0.2,0.3
			c-0.1,0.2-0.2,0.4-0.3,0.5c0,0,0,0.1,0,0.1h2.1v1.1H15v-1c0.1-0.1,0.1-0.3,0.2-0.4l0.2-0.4l0.3-0.4l0.8-1.1
			c0.3-0.4,0.5-0.8,0.7-1.3c0.1-0.3,0.2-0.7,0.2-1c0-0.2-0.1-0.4-0.2-0.6c-0.1-0.2-0.3-0.2-0.5-0.2c-0.3,0-0.5,0.2-0.6,0.5
			c0,0.1-0.1,0.3-0.1,0.4v0.3h-1L15.1,159.5z"/>
		<path style="fill:#020303;" d="M22.3,163.1c0,0.5-0.2,0.9-0.5,1.2c-0.6,0.7-1.7,0.7-2.3,0.1c0,0,0,0-0.1-0.1
			c-0.3-0.3-0.5-0.8-0.5-1.2v-4c0-0.5,0.2-0.9,0.5-1.2c0.3-0.3,0.7-0.5,1.2-0.5c0.5,0,0.9,0.2,1.2,0.5c0.3,0.3,0.5,0.8,0.5,1.2
			L22.3,163.1z M21.2,159.1c0-0.2-0.1-0.3-0.2-0.4c-0.1-0.1-0.3-0.2-0.4-0.2c-0.2,0-0.3,0.1-0.4,0.2c-0.1,0.1-0.2,0.3-0.2,0.4v4
			c0,0.2,0.1,0.3,0.2,0.4c0.1,0.1,0.3,0.2,0.4,0.2c0.2,0,0.3-0.1,0.4-0.2c0.1-0.1,0.2-0.3,0.2-0.4V159.1z"/>
	</g>
</g>
<path style="fill:#FFFFFF;" d="M84.7,156.5h-4.3l-0.7-1.5l-1.5-2.2l-1.8,2.4l-0.6,1.3h-3.7l4-6.2l-4-6.6h4.4l0.7,1.6l1.4,2.2
	l1.5-2.4l0.6-1.4h3.8l-3.8,6L84.7,156.5z"/>
<path style="fill:#FFFFFF;" d="M89,156.5l-3.7-12.8H89l0.4,2.1l1.8,7.3h0.2l2.1-7.1l0.4-2.3h3.6l-4.1,12.8L89,156.5z"/>
<path style="fill:#FFFFFF;" d="M102.8,156.5h-3.6l0.2-3.8l-0.2-9h3.7l-0.2,8.7L102.8,156.5z"/>
<path style="fill:#FFFFFF;" d="M109.8,156.5h-3.6l0.2-3.8l-0.2-9h3.7l-0.2,8.7L109.8,156.5z"/>
<path style="fill:#FFFFFF;" d="M116.8,156.5h-3.6l0.2-3.8l-0.2-9h3.7l-0.2,8.7L116.8,156.5z"/>
<path style="fill:#FFFFFF;" d="M81.6,160.6l-0.6,3.3l-0.5,0.1c-0.8-0.7-1.9-1.1-2.9-1.2c-0.7,0-1.1,0.4-1.1,0.8
	c0,1.7,5.3,1.3,5.3,5.3c0,2.1-1.5,4.3-5.2,4.3c-1.4,0-2.8-0.3-4.1-0.8l0.5-3.4l0.4-0.3c1,1,2.3,1.6,3.7,1.7c0.7,0,1.1-0.4,1.1-0.9
	c0-1.7-5.4-1.3-5.4-5.4c0-2.4,1.9-4.3,5.1-4.3C79.2,159.9,80.4,160.1,81.6,160.6z"/>
<path style="fill:#FFFFFF;" d="M90.4,172.9h-3.6l0.2-3.4V169l-4.2-8.9h3.8l0.3,1l1.7,4h0.2l1.9-3.9l0.4-1.2h3.7l-4.6,8.8v0.6
	L90.4,172.9z"/>
<path style="fill:#FFFFFF;" d="M106.9,172.9l-0.1-3.9l-0.3-3.4h-0.2l-2.3,6h-2.8l-2-6H99l-0.3,3l-0.2,4.2h-3.1l1.2-12.8h4.3l0.4,1.8
	l1.3,4.8h0.2l1.5-4.7l0.5-1.9h4.1l1.1,12.8L106.9,172.9z"/>
<path style="fill:#FFFFFF;" d="M118.4,160.1c2.8,0,4.4,1.5,4.4,4c0,3.1-2.3,5.1-5.7,5.1h-1.1l0.1,3.7h-3.6l0.2-3.8l-0.2-9
	L118.4,160.1z M117.8,166.5c0.8-0.3,1.4-1.1,1.3-2c0-1.2-0.6-1.7-1.9-1.8l-0.9,0.1l-0.1,3.6L117.8,166.5z"/>
<path style="fill:#FFFFFF;" d="M136.2,166.2c0,4.4-2.3,7-6.4,7c-3.7,0-5.9-2.3-5.9-6.4c0-4.3,2.3-6.8,6.4-6.8
	C134.1,159.9,136.2,162.2,136.2,166.2z M127.7,166.2c0,3.2,0.6,4.1,2.4,4.1s2.3-0.7,2.3-3.3c0-3.2-0.6-4.1-2.4-4.1
	S127.7,163.7,127.7,166.2L127.7,166.2z"/>
<path style="fill:#FFFFFF;" d="M146.6,160.6l-0.5,3.3l-0.5,0.1c-0.8-0.7-1.9-1.1-2.9-1.2c-0.7,0-1.1,0.4-1.1,0.8
	c0,1.7,5.3,1.3,5.3,5.3c0,2.1-1.5,4.3-5.2,4.3c-1.4,0-2.8-0.3-4.1-0.8l0.5-3.4l0.4-0.3c1,1,2.3,1.6,3.7,1.7c0.7,0,1.1-0.4,1.1-0.9
	c0-1.7-5.4-1.3-5.4-5.4c0-2.4,1.9-4.3,5.1-4.3C144.3,159.9,145.5,160.1,146.6,160.6z"/>
<path style="fill:#FFFFFF;" d="M153,172.9h-3.6l0.2-3.8l-0.2-9h3.7l-0.2,8.7L153,172.9z"/>
<path style="fill:#FFFFFF;" d="M167,168.6c0,2.9-2,4.5-5.6,4.5s-5.3-1.6-5.3-4.5v-2l-0.1-6.5h3.6l-0.2,8c0,1.4,0.6,2,2,2s2-0.6,2-2
	l-0.2-8h3.7l-0.1,6.5L167,168.6z"/>
<path style="fill:#FFFFFF;" d="M180.8,172.9l-0.1-3.9l-0.3-3.4h-0.2l-2.3,6h-2.8l-2-6h-0.2l-0.3,3l-0.2,4.2h-3.1l1.2-12.8h4.3
	l0.4,1.8l1.4,4.8h0.2l1.5-4.7l0.5-1.9h4.2l1.1,12.8H180.8z"/>
</svg>
