<svg id="Layer_1" data-name="Layer 1" xmlns="http://www.w3.org/2000/svg" xmlns:xlink="http://www.w3.org/1999/xlink" width="185" height="188" viewBox="0 0 185 188"><defs><linearGradient id="linear-gradient" x1="17.68" y1="153.26" x2="5.81" y2="136.5" gradientTransform="matrix(1, 0, 0, -1, 0, 190)" gradientUnits="userSpaceOnUse"><stop offset="0" stop-color="#fff"/><stop offset="0.17" stop-color="#fff"/><stop offset="0.32" stop-color="#e0dedf"/><stop offset="0.55" stop-color="#b3b2b1"/><stop offset="0.67" stop-color="#a3a1a1"/><stop offset="0.83" stop-color="#b0b0ae"/><stop offset="1" stop-color="#b5b4b4"/></linearGradient><linearGradient id="linear-gradient-2" x1="8.7" y1="134.84" x2="61.86" y2="193.73" gradientTransform="matrix(1, 0, 0, -1, 0, 190)" gradientUnits="userSpaceOnUse"><stop offset="0.19" stop-color="#359552"/><stop offset="0.4" stop-color="#22468c"/><stop offset="0.68" stop-color="#283b7d"/><stop offset="1" stop-color="#283473"/></linearGradient><clipPath id="clip-path"><path d="M56.33,33.2c0,14.73-11.62,26.95-25.93,26.95S4.5,47.93,4.5,33.2,15.64,6.3,30.42,6.52C45.76,6.75,56.33,18.46,56.33,33.2Z" fill="none"/></clipPath><linearGradient id="linear-gradient-3" x1="24.81" y1="146.67" x2="13.36" y2="130.51" gradientTransform="matrix(1, 0, 0, -1, 0, 190)" gradientUnits="userSpaceOnUse"><stop offset="0" stop-color="#fff"/><stop offset="0.19" stop-color="#fff"/><stop offset="0.33" stop-color="#e0dedf"/><stop offset="0.55" stop-color="#b3b2b1"/><stop offset="0.67" stop-color="#a3a1a1"/><stop offset="0.83" stop-color="#b0b0ae"/><stop offset="1" stop-color="#b5b4b4"/></linearGradient><linearGradient id="linear-gradient-4" x1="28.73" y1="144.23" x2="16.95" y2="127.6" gradientTransform="matrix(1, 0, 0, -1, 0, 190)" gradientUnits="userSpaceOnUse"><stop offset="0" stop-color="#fff"/><stop offset="0.17" stop-color="#fff"/><stop offset="0.32" stop-color="#e0dedf" stop-opacity="0.71"/><stop offset="0.55" stop-color="#b3b2b1" stop-opacity="0.24"/><stop offset="0.67" stop-color="#a3a1a1" stop-opacity="0"/><stop offset="0.83" stop-color="#b0b0ae" stop-opacity="0"/><stop offset="1" stop-color="#b5b4b4" stop-opacity="0"/></linearGradient><linearGradient id="linear-gradient-5" x1="35.01" y1="166.85" x2="55.14" y2="185.05" gradientTransform="matrix(1, 0, 0, -1, 0, 190)" gradientUnits="userSpaceOnUse"><stop offset="0" stop-color="#fff"/><stop offset="0.02" stop-color="#fcfcfc"/><stop offset="0.32" stop-color="#cbc9c9"/><stop offset="0.54" stop-color="#adabab"/><stop offset="0.67" stop-color="#a3a1a1"/><stop offset="0.83" stop-color="#b0b0ae"/><stop offset="1" stop-color="#b5b4b4"/></linearGradient><linearGradient id="linear-gradient-6" x1="17.68" y1="90.55" x2="5.81" y2="73.8" xlink:href="#linear-gradient"/><clipPath id="clip-path-2"><path d="M56.33,95.9c0,14.73-11.62,26.95-25.93,26.95S4.5,110.63,4.5,95.9,15.64,69,30.42,69.22C45.76,69.45,56.33,81.16,56.33,95.9Z" fill="none"/></clipPath><linearGradient id="linear-gradient-7" x1="24.81" y1="83.97" x2="13.36" y2="67.8" xlink:href="#linear-gradient-3"/><linearGradient id="linear-gradient-8" x1="28.73" y1="81.53" x2="16.95" y2="64.89" xlink:href="#linear-gradient-4"/><linearGradient id="linear-gradient-9" x1="35.01" y1="104.15" x2="55.14" y2="122.35" xlink:href="#linear-gradient-5"/><linearGradient id="linear-gradient-10" x1="17.68" y1="27.63" x2="5.81" y2="10.88" xlink:href="#linear-gradient"/><linearGradient id="linear-gradient-11" x1="8.7" y1="9.21" x2="61.86" y2="68.11" xlink:href="#linear-gradient-2"/><clipPath id="clip-path-3"><path d="M56.33,158.83c0,14.73-11.62,26.95-25.93,26.95S4.5,173.56,4.5,158.83s11.14-26.9,25.92-26.68C45.76,132.39,56.33,144.1,56.33,158.83Z" fill="none"/></clipPath><linearGradient id="linear-gradient-12" x1="24.81" y1="21.04" x2="13.36" y2="4.88" xlink:href="#linear-gradient-3"/><linearGradient id="linear-gradient-13" x1="28.73" y1="18.61" x2="16.95" y2="1.97" xlink:href="#linear-gradient-4"/><linearGradient id="linear-gradient-14" x1="35.01" y1="41.22" x2="55.14" y2="59.43" xlink:href="#linear-gradient-5"/></defs><title>logos</title><path d="M14.4,42.45l-.35-.78a.51.51,0,0,1,0-.36,1.07,1.07,0,0,1-.07-.19h-.14c.2.45.4.89.59,1.33Z" fill="url(#linear-gradient)"/><path d="M58.83,32.89A31.22,31.22,0,0,0,50,13.5,27.86,27.86,0,0,0,32.68,5.2a26.79,26.79,0,0,1,4.79.67,27.78,27.78,0,0,1,14.92,9.21,1,1,0,0,0,.74.42.49.49,0,0,0,.45-.25.79.79,0,0,0-.12-.79l0,0h0l-.13-.15-.07-.09h0A28.23,28.23,0,0,0,36.47,2.51a27.17,27.17,0,0,0-6.25-.72A28.39,28.39,0,0,0,15.8,5.71,30.48,30.48,0,0,0,2.55,22.33,31.46,31.46,0,0,0,3,43.38,29.1,29.1,0,0,0,16.09,58.46a27.22,27.22,0,0,0,9.12,3.09,25.78,25.78,0,0,0,3.64.25,28.26,28.26,0,0,0,5.76-.61l.82-.19a28.17,28.17,0,0,0,5.91-1.85A28,28,0,0,0,53.93,47.66a.87.87,0,0,0,.11-.85.52.52,0,0,0-.55-.27c.29-.59.55-1.19.79-1.79a27.43,27.43,0,0,0,1.95-10.42v-.16h0a.79.79,0,0,0-.21-.52.52.52,0,0,0-.38-.17c-.28,0-.61.25-.64.81,0,.29,0,.58,0,.86,0,.45,0,.91-.09,1.35l-.31,2.19-.5,2.16a11.34,11.34,0,0,1-.4,1.29c-.09.27-.19.54-.27.81a27.21,27.21,0,0,1-4.25,7.68,26.21,26.21,0,0,1-6.49,5.93A25.79,25.79,0,0,1,39,58.49a24.23,24.23,0,0,1-8.57,1.7A27.94,27.94,0,0,1,25,59.58l-2-.51-1.93-.72a5,5,0,0,1-.92-.4l-.92-.45-.34-.17-.57-.28-.88-.54a25.18,25.18,0,0,1-6.29-5.33,29,29,0,0,1-4.45-7.11,30.17,30.17,0,0,1-2.06-8.25L4.5,33.67l0-2.18A9,9,0,0,1,4.67,30c0-.22.06-.45.08-.67l.13-1.08c0-.22.09-.45.14-.67s.06-.25.08-.37.12-.51.17-.77a13.08,13.08,0,0,1,.33-1.34l.66-2.06.17-.41A26.18,26.18,0,0,1,8.1,19.14c.27-.48.56-1,.85-1.41a26.54,26.54,0,0,1,3.86-4.46A26.06,26.06,0,0,1,21.42,8a25.41,25.41,0,0,1,9.84-1.56,26.57,26.57,0,0,1,17.89,8A30,30,0,0,1,57.6,33c.07.59.41.86.7.86a.5.5,0,0,0,.37-.17A1,1,0,0,0,58.83,32.89ZM28.74,4.06a26.82,26.82,0,0,0-8.67,2.33,29.6,29.6,0,0,0-7.46,5A28.16,28.16,0,0,0,8,17,28.31,28.31,0,0,0,3,31.58,30,30,0,0,0,4.62,42.82a28.8,28.8,0,0,0,5.63,9.63l.13.15c-.34-.34-.67-.69-1-1.06a27.84,27.84,0,0,1-5.13-8.39,30.6,30.6,0,0,1-2.08-9.92A29.32,29.32,0,0,1,3.59,23,29,29,0,0,1,16.13,7,27.34,27.34,0,0,1,30.2,3a25,25,0,0,1,5.68.64,26.25,26.25,0,0,1,7,2.67,25.72,25.72,0,0,0-5.15-1.71A26.23,26.23,0,0,0,28.74,4.06Z" fill="url(#linear-gradient-2)"/><g clip-path="url(#clip-path)"><rect x="15.6" y="11.14" width="2.79" height="8.05" fill="#283473"/><rect x="21.66" y="11.14" width="2.98" height="8.05" fill="#283473"/><polygon points="31.88 19.16 35.78 11.14 32.73 11.14 29.27 18.13 29.27 11.14 26.41 11.14 26.41 19.19 31.89 19.19 31.88 19.16" fill="#283473"/><polygon points="26.97 39.02 27.55 41.59 30.07 41.59 28.2 31.7 24.12 31.7 24.12 41.59 26.97 41.59 26.97 39.02" fill="#d01d36"/><polygon points="34.49 38.99 34.49 41.59 37.34 41.59 37.34 31.7 33.41 31.7 31.61 41.59 33.97 41.59 34.49 38.99" fill="#d01d36"/><polygon points="48.5 31.7 45.34 31.7 43.25 37.74 41.14 31.7 37.99 31.7 41.64 41.59 44.85 41.59 48.5 31.7" fill="#d01d36"/><polygon points="29.73 51.31 32.02 51.31 33.97 41.59 31.61 41.59 30.86 45.76 30.07 41.59 27.55 41.59 29.73 51.31" fill="#1d8541"/><rect x="34.49" y="41.59" width="2.85" height="9.72" fill="#1d8541"/><rect x="24.12" y="41.59" width="2.85" height="9.72" fill="#1d8541"/><polygon points="41.05 51.32 43.25 45.07 45.44 51.32 48.5 51.32 44.85 41.6 41.64 41.6 37.99 51.32 41.05 51.32" fill="#1d8541"/><path d="M32.4,60.69c.12,0,1.35.15,1.47-.17s-.92-1-.8-1.1.17-.86.35-.86,1.92,0,2,0,.43-.69.71-.71.33.15.51.33a2.8,2.8,0,0,0,.49-1.55c.07-.69-.15-.91.2-1.3s.71-.41.61-.94-.56,0-1-.25-.73-.08-1.74.08-1.47.58-1.42,1.32-.34.41-.32,1-.78.66-.73,1-.64,0-.83-.13a15.38,15.38,0,0,0-2.6.58c-.29,0-.83-.63-1.25-.61s-.59-.64-.64-1.17-.83-1-1.18-1.5a5.09,5.09,0,0,1-.42-2.24,8.27,8.27,0,0,1,.37-3.2,2,2,0,0,0,.1-.48.84.84,0,0,0-.46-.18c-.42,0-1.36-.57-1.54-.57s-.16-.46-.31-.71-.05-.71-.26-.87A3.4,3.4,0,0,1,22.71,45c-.21-.76-1.49-1.14-2-1.17s-.73,1-.86,1.06a6.5,6.5,0,0,1-1.28-.68.79.79,0,0,1-.39-.73c0-.33-.55-.84-.71-.9a13.6,13.6,0,0,1-1.26-1.17H14.52l-.37.49-3.14,0s-2.41-.92-2.85-1a5.14,5.14,0,0,1-1.23-.68l-2.54.35a4.66,4.66,0,0,0,.58.95,5.93,5.93,0,0,1,.93,2.24c0,.41.76.74,1.37,1.14a1.56,1.56,0,0,1,.54,1.52c-.07.23-.83-.15-.88.08s1,1.12,1.37,1.07.59.2,1.2.76.56,1.22.32,1.42.49.64,1.27,1.17a2.93,2.93,0,0,1,1.18,1.47c.07.28.42,0,.54-.36s-.25-.48-.25-.91-.64-.36-.93-.41,0-.71-.27-1a4.64,4.64,0,0,1-.71-1.63c-.15-.56-.91-1.12-1.22-1.73a4.24,4.24,0,0,0-.88-1.25c-.22-.15.32-.38.12-.61s-.49-.2-.86-.38a1,1,0,0,1-.61-.89,7.54,7.54,0,0,0-.37-1.7c-.12-.33.27-.28.39-.13s.22.3.39.2a.44.44,0,0,1,.59.25c.12.28.54,0,.73.15s-.44.28.2,1.45.2.51.2,1.3.39.43.51.3.47.25.78.66.93.43.93.66a.74.74,0,0,0,.54.76c.42.08.49.56.76.61s.32.36.17.69,0,.61.69.89.37.33.91.86A32.92,32.92,0,0,1,17,52.88a4.61,4.61,0,0,1,.54,1.24c.12.36-.25.53-.05.84s-.37.18-.34.41.34,1.37.88,1.42,1.15.74,1.59,1.12,1.1.3,1.76.56a17.83,17.83,0,0,0,2.18,1.14,9.56,9.56,0,0,1,2.5,1.12,2.33,2.33,0,0,0,2.23-.13,2.35,2.35,0,0,1,2,.3,6.6,6.6,0,0,1,1.19,1c.44-.57.86-1.15.91-1.17" fill="url(#linear-gradient-3)"/><path d="M24.59,51.3c.44.84.92,1.65,1.38,2.47a11,11,0,0,1-.09-1.21,8.27,8.27,0,0,1,.37-3.2,2,2,0,0,0,.1-.48.87.87,0,0,0-.46-.18c-.42,0-1.36-.57-1.54-.57s-.09-.05-.12-.12A9.83,9.83,0,0,0,24,49.88c.19.44.36.88.52,1.33A.41.41,0,0,0,24.59,51.3Z" fill="url(#linear-gradient-4)"/><path d="M16.91,29.64A4.25,4.25,0,0,0,20.1,31a4.34,4.34,0,0,0,3.2-1.34,4.56,4.56,0,0,0,1.33-3.31V19.19h-3v7.13a1.67,1.67,0,0,1-.47,1.19A1.53,1.53,0,0,1,20,28a1.56,1.56,0,0,1-1.16-.49,1.65,1.65,0,0,1-.48-1.19V19.19H15.59v7.16A4.58,4.58,0,0,0,16.91,29.64Z" fill="#d01d36"/><polygon points="29.27 30.76 29.27 24.56 30.11 22.81 33.1 30.76 36.45 30.76 31.89 19.19 26.42 19.19 26.42 30.76 29.27 30.76" fill="#d01d36"/><path d="M43.47,7.69l-.09-.1a.07.07,0,0,0-.1,0l-.08.08ZM40.87,10l.3-.47a.08.08,0,0,0,0-.1l-.48-.28a.08.08,0,0,0-.08,0l-.26.24a.07.07,0,0,0,0,.12l.2.07a.07.07,0,0,1,0,.12l-.1.07a.07.07,0,0,0,0,.12l.31.12a.09.09,0,0,0,.09,0m4-4-.11-.06a.06.06,0,0,0-.08,0l-.17.19a.07.07,0,0,1-.12,0l0-.27a.07.07,0,0,0-.12,0l-.06.06a.07.07,0,0,1-.12,0A.09.09,0,0,0,44,5.76h-.07s-.08,0-.08.08l0,.4L44,6.14v.14a.08.08,0,0,1,0,.08h0a.08.08,0,0,0,0,0l-.14.47a.06.06,0,0,0,0,.07l.26.26a.11.11,0,0,1,0,.16l-.11.12a.12.12,0,0,0,0,.17h0a.06.06,0,0,0,.07,0l.29-.11h0l.24.09s.06,0,.05,0l0-.11v0l-.16-.13a.09.09,0,0,1,0-.06l-.11-.4a.07.07,0,0,1,0-.08l.47-.36s0,0,0-.06l.08-.31a.08.08,0,0,0,0-.09M42.9,8.88l-.12-.19a.06.06,0,0,1,0,0l0-.45a.08.08,0,0,0,0-.07L42.47,8a.07.07,0,0,0-.08.09l.1.35a.06.06,0,0,1-.09.08l-.12-.05a.07.07,0,0,0-.09.05.07.07,0,0,1-.08,0h0a.07.07,0,0,0-.06.12l.34.27a.06.06,0,0,1,0,.09l0,.05.39.11a.07.07,0,0,0,.08,0L42.91,9a.08.08,0,0,0,0-.07m.39-1.8-.06.17a.08.08,0,0,0,.05.1h0a.07.07,0,0,0,.08,0l.05-.13a.08.08,0,0,0,0-.08l0,0a.05.05,0,0,0-.1,0M41.52,9.91l.41-.11a.07.07,0,0,0,0-.13l-.6-.1a.07.07,0,0,0-.07,0l-.1.21a.07.07,0,0,0,.06.1h.31M42,7.5l.15.08a.29.29,0,0,0,.24,0l.17-.07ZM41.61,9l-.38.15.22,0a.07.07,0,0,0,.06,0Zm12.85.09A.07.07,0,0,0,54.38,9l-.29.05.28.08a.06.06,0,0,0,.09-.06m1.41-.88.29-.27s0,0,0-.06v0a.06.06,0,0,0-.1,0L56,7.85h0l-.21,0a.07.07,0,0,0-.06.07v.19a.07.07,0,0,0,.06.07h.1l.06,0m.71-.31h0a.08.08,0,0,0-.07,0V8a.07.07,0,0,0,.09.09l.05,0a.07.07,0,0,0,0-.13M50.72,8l0-.17s0,0,0-.06l-.05,0a.06.06,0,0,0-.1,0l-.06.23A.06.06,0,0,0,50.6,8l.07,0a0,0,0,0,0,0,0m.37-.39-.16.17a.07.07,0,0,0,0,.09l.24.23,0,0,0,.14a.06.06,0,0,0,.1,0l.1-.09a.06.06,0,0,0,0-.09l-.29-.3h.16a.06.06,0,0,0,.06-.06V7.47s0,0,0,0l-.16-.17a.06.06,0,0,0-.08,0l-.2.18a.05.05,0,0,0,0,0v.08a.06.06,0,0,0,.08.07Zm4.35.11-.14-.1a.08.08,0,0,0-.07,0l-.14.06a.07.07,0,0,0,0,.08,2.25,2.25,0,0,0,.05.22.07.07,0,0,0,.11,0l.23-.17s0-.1,0-.12m-3.81-.14h0a.06.06,0,0,0-.1,0s0,.09.09.06a.06.06,0,0,0,0-.1M38.55,13.11,38.49,13a.11.11,0,0,1,0-.15l.16-.06a.09.09,0,0,0,.06-.06l0-.08a.1.1,0,0,1,.15,0l0,0a.11.11,0,0,1,0,.12l-.07.13S39,13,39,13l.2-.24a.11.11,0,0,0,0-.13l-.14-.18a.1.1,0,0,1,.1-.16.1.1,0,0,0,.12-.08l.18-.93s0,0,0-.05l.19-.22a.1.1,0,0,0,0-.09l-.08-.29v0L39.23,10a.1.1,0,0,0,0,0l-.41-.15,0,0-.14-.14-.06,0h-.13l0,0-.28-.24,0,0-.25,0h0l-.25-.11h-.07l-.26.1a.1.1,0,0,1-.1,0l-.25-.21a.08.08,0,0,0-.08,0l-.86.2a.09.09,0,0,0-.07.1l0,1.12a.09.09,0,0,0,0,.08l.17.14a.09.09,0,0,0,.1,0l.41-.22h.07l.21.06a.1.1,0,0,1,.07.07l.17.61s0,0,0,.06l-.27.76a.1.1,0,0,0,0,.09l.14.23s0,0,0,0L37,13s0,0,0,0l0,.06.11-.12a.09.09,0,0,1,.15,0v0a.15.15,0,0,0,.06,0l.32.07a.08.08,0,0,0,.07,0l.12-.08a.09.09,0,0,1,.13,0l.19.27a.1.1,0,0,0,.13,0l.13-.08a.11.11,0,0,0,0-.14M40.9,28.49h0l-.15-.07.08.29h0l.16.12a0,0,0,0,0,0,0v-.16h0Zm.55-17.41-.33.44.15.44.35-.16s0,0,0,0l.19-.52a.08.08,0,0,0,0-.09l-.29-.09a0,0,0,0,0-.06,0m2.91,16.41.27-.36a.14.14,0,0,0,0-.06l-.08-.88a.05.05,0,0,0,0,0l-.62-.81h0l-.38-.43a.08.08,0,0,0-.1,0l-.29.2h0l-.18,0c-.05,0-.09,0-.09-.09l0-.37a.06.06,0,0,0,0,0l-.11-.21a.08.08,0,0,1,.08-.12l.67.08a.07.07,0,0,0,.06,0l.22-.2a.05.05,0,0,0,0,0l.18-.71a.42.42,0,0,0,0-.29.16.16,0,0,1,0-.09l-.09-.39a.33.33,0,0,1,0-.14l0-.08a.3.3,0,0,0-.09-.3l0,0h0l-.06,0a.4.4,0,0,1-.1-.12l-.07-.16a.25.25,0,0,0,0-.07l-.08-.09.19.15a.39.39,0,0,1,.08.1l0,.07a.22.22,0,0,0,.07.09l.15.12a.3.3,0,0,1,.09.13l0,.09a.43.43,0,0,1,0,.11v0a.28.28,0,0,0,.1.23l0,0a.16.16,0,0,1,.06.08l.08.15.11-.91,0-.22a.28.28,0,0,1,.24-.24.25.25,0,0,1,.17,0l.07,0-.06-.25a.38.38,0,0,1,0-.15l0-.12a.07.07,0,0,0,0-.06l0-.05a.07.07,0,0,1,0-.06l.18-.57a.24.24,0,0,0,0-.12l-.13-.49s0,0,0-.05l-.29-.52a.21.21,0,0,1,0-.25h0a.19.19,0,0,0,0-.19.25.25,0,0,1,0-.15l.33-.57L45,18l.11-.4a.16.16,0,0,1,.05-.09l.54-.71s0,0,0,0l.08-.35a.09.09,0,0,0,0,0l-.1-.11a0,0,0,0,1,0,0l.2-1a.06.06,0,0,0,0,0l-.15-.28a.17.17,0,0,1,0-.1l0-.29a.43.43,0,0,0,0-.05l-.14-.36a.16.16,0,0,0-.13-.11l-.12,0h0l-.3-.1a.25.25,0,0,1-.14-.13l-.17-.38a.16.16,0,0,0-.06-.08l-.11-.1a.22.22,0,0,1,0-.08l-.14-.3a.23.23,0,0,1,0-.14l.06-.17.07.24,0,.06.26.36a.1.1,0,0,0,.05,0l.26.18a.16.16,0,0,0,.15,0l.12,0a.17.17,0,0,1,.19.06l.15.2a.18.18,0,0,0,.09.06l.08,0a.17.17,0,0,0,.21-.23.17.17,0,0,1,0-.18l0,0a.18.18,0,0,0,0-.14v0A.23.23,0,0,0,46,13l-.33-.15a.18.18,0,0,1-.1-.19h0l.43.12a.15.15,0,0,1,.09.06l.23.31a.21.21,0,0,0,.11.07l.24.05a.17.17,0,0,0,.12,0l.06,0a.17.17,0,0,1,.14,0l.11,0h.09l.52-.11h0l.21,0a.15.15,0,0,0,.12-.07l0,0a.21.21,0,0,1,.1-.06l.27,0a.12.12,0,0,0,.09-.08h0a.14.14,0,0,1,.07-.08l.4-.14h.06l.35.07a.1.1,0,0,0,.1,0l.15-.13a.11.11,0,0,0,0-.09v-.54a.11.11,0,0,0-.09-.11s-.05,0-.06,0L49,11.09l0,0-.22-.37a.28.28,0,0,0-.16-.12.3.3,0,0,1-.13-.09l-.09-.11-.05-.07-.1-.25a.22.22,0,0,0,0-.08l-.09-.1a.08.08,0,0,0-.09,0h0a.08.08,0,0,1-.08,0l-.23-.16,0,0-.31-.14-.06,0,0,0a.15.15,0,0,0-.09-.06l-.24-.06V9.2l.46,0h0L48,9.16l-.16-.07A.25.25,0,0,1,47.69,9l0-.07a.08.08,0,0,1,.1-.11h.06L48,8.69h0L49,9h0l.41-.06h.05L49.7,9a.09.09,0,0,0,.07,0l.26-.1a.08.08,0,0,0,0-.07V8.78a.08.08,0,0,1,.07-.08l.2,0a.05.05,0,0,0,0,0,.14.14,0,0,0,0-.19l-.14-.2a.12.12,0,0,0-.09,0H50s0,0-.07,0L49.89,8s0,0-.06-.07l-.36-.18-.23-.33-.3-.17-.13-.14-.25,0L48.73,7l-.06-.19-.45-.08.26-.09-.17-.53-.21.1a.17.17,0,0,1-.1,0h0a.17.17,0,0,0-.16.06l-.1.13-.07-.08-.14.13a.15.15,0,0,1-.2,0h0a.15.15,0,0,0-.24.08h0a.15.15,0,0,1-.11.11l-.12,0a.14.14,0,0,1-.14,0l-.06-.07,0,.54a.07.07,0,0,1,0,.05l-.08.25L46.43,7a.15.15,0,0,0-.12-.11.15.15,0,0,1-.12-.13l0-.27L46,6.54s0,0,0,0L46,6.72l0,0h-.09s-.05,0,0,0l.07-.2a0,0,0,0,0,0,0l-.25.07s0,0,0,0l0,.18a0,0,0,0,1,0,0h-.14s.34.17.34.19l-.4.18a0,0,0,0,0,0,0l.15.19-.26-.16s0,0,0,0L45.11,7a0,0,0,0,0-.07,0l-.23.28h0l-.08.06s0,0,0,.06l.39.35-.34-.17h0l-.07,0,0,.12,0,0,.3.18h-.12l0,.22-.09-.25,0,0-.08,0h0l-.17.06s0,0,0,0l0,.14-.15-.13h-.19s0,0,0,.06l.07.17s0,0,0,0l-.08.14L44,8a0,0,0,0,0-.05,0L43.78,8a.11.11,0,0,0-.06.12.1.1,0,0,1-.08.12h-.1l-.17,0,0,0L43.1,7.9l0,0H43a.07.07,0,0,0-.07.08V8l0,0,.21.22v0l.09.21h-.07l-.06,0,0,0a.07.07,0,0,0-.12.05v.24a.05.05,0,0,0,0,.06l0,0a.08.08,0,0,1,0,.06V9s0,.07.06.07l1.14.14-.22,0a.06.06,0,0,0-.05.08l0,.09-.22-.13h-.05l-.45.13,0,0,0,.06,0,0-.45.08a.07.07,0,0,0,0,.08h0a.07.07,0,0,1,0,.08l-.51.18,0,0-.21.26-.05,0h-.19a.06.06,0,0,0-.06.05l0,.13a.07.07,0,0,0,0,.08l.11.05-.47,0h0l-.44.34-.29,0,0,0a.11.11,0,0,0,0,.13l.17.2a.09.09,0,0,0,.15,0l.11-.15.44-.13,0,0,.15-.16,0,0h.3a.09.09,0,0,0,.06,0l.31-.48a.06.06,0,0,1,.1,0l0,.05,0,0,.79,0-.69,0h0l-.29.21a.07.07,0,0,0,0,.06v0a.06.06,0,0,0,.1.05l.1-.06h0l.22.05a.07.07,0,0,1,0,.1L42.6,11c0,.05,0,.12.07.1L43,11l0,0,.16-.2a.08.08,0,0,1,.08,0h0a.07.07,0,0,1,0,.12l-.22.14a.08.08,0,0,0,0,.07l.06.53-.16-.32a.07.07,0,0,0-.09,0l-.42.21,0,0-.2.29s0,.05,0,.07l.1.19-.16.34-.49,0-.86.29,0,0-.11.15a.08.08,0,0,1-.14,0v0a.08.08,0,0,0-.14,0l-.17.17,0,0-.05.28a.08.08,0,0,0,.15.06l0,0a.07.07,0,0,1,.11,0l.16.11a.07.07,0,0,1,0,.06l.1.76a.08.08,0,0,0,.13.06l.14-.11A.09.09,0,0,0,41,14v-.18a.08.08,0,0,1,.13-.07.05.05,0,0,1,0,.05l.13.66a.05.05,0,0,0,0,.05l.31.28.08-.07a0,0,0,0,1,.07,0L42,15a.11.11,0,0,0,.11,0l.2-.08a.09.09,0,0,1,.11,0l.19.25a.1.1,0,0,1-.13.14h0l-1.06.4a.12.12,0,0,0-.07.07l-.26.86a.11.11,0,0,0,.06.14h0a.11.11,0,0,1,0,.19.11.11,0,0,0,.07.2h.18a.11.11,0,0,1,.09.05l.21.33-.46.2,0,.16-.43-.11a.15.15,0,0,0-.14,0l-.23.35a.16.16,0,0,1-.08.06l-.32.06a.13.13,0,0,0-.1.11l0,.32v.38a.14.14,0,0,0,0,.07l.13.19-.17-.05-.06,0-.13-.14a.13.13,0,0,1,0-.12l.05-.25a.14.14,0,0,0-.06-.14.13.13,0,0,0-.19.08L39.4,19a.06.06,0,0,0,0,.06l0,.22L39.28,19a.19.19,0,0,1,0-.07v-.29a.09.09,0,0,0,0-.08l-.56-.38,0,0-.15-.24s0,0,0,0l-.67-.33h0l-.57,0h0l-.54-.2h-.17a.08.08,0,0,0,0,.15l.08.07,0,0,0,.06a.08.08,0,0,0,.11,0l0,0a.08.08,0,0,1,.08,0l.47.35a.09.09,0,0,1,0,.15l-.16.1a.08.08,0,0,0,0,.07v.21a.08.08,0,0,1-.11.08l-.14,0a.08.08,0,0,0-.1.06l-.06.19a.09.09,0,0,0,0,.07v0a.09.09,0,0,1-.06.13l-.83.16L35.4,19l-.4-.11-.12-.13-.47-.18,0,0-.19-.22,0,0-.35-.12a.08.08,0,0,0-.09.12l.08.12a.08.08,0,0,1,0,.1l-.11.11a.08.08,0,0,1-.09,0h0a.08.08,0,0,0-.1.11l.14.24h-.06a.08.08,0,0,0-.08.1l0,.09s0,0,0,0l.22.16h0l.35.14h0l.43.28a.08.08,0,0,1,0,.12l-.07.09a.09.09,0,0,0,0,.09l0,.07c0,.07,0,.15-.11.1a.06.06,0,0,0-.08,0l0,0a.08.08,0,0,0,0,.12l.33.42,0,0a.08.08,0,0,1,.1,0l.18.13a.09.09,0,0,1,0,.07l0,.42,0,.43.44.51a.11.11,0,0,0,.08,0l.2,0a.12.12,0,0,1,.1,0l.27.15a0,0,0,0,1,0,0l.39.24h0l.24,0h0l.36.18-.76,0h0l-.64-.1a.1.1,0,0,0-.07,0l-.32.27a.09.09,0,0,1-.12,0L35,23l0,0-.21-.13a.09.09,0,0,1,0-.06l-.08-.31s0,0,0,0l-.53-.77-.54-.41-.22.21L33,21.38s0,0-.05,0l-.17-.2a.07.07,0,0,0-.1,0l-.47.35a.07.07,0,0,1-.06,0l-.45-.08h0l-.15,0a.1.1,0,0,1-.07,0l-.26-.23a.06.06,0,0,0-.08,0l-.26.13a.07.07,0,0,1-.09,0l-.05-.06a.08.08,0,0,0-.08,0l-.14.08h0l-.54-.16a.08.08,0,0,1,0-.05l-.07-.17a.12.12,0,0,0-.05-.05l-.33-.1a.06.06,0,0,0-.07,0l-.14.12a.08.08,0,0,0,0,.11l.15.2a.07.07,0,0,0,.11,0l.08-.06a.08.08,0,0,1,.12,0l.17.34a.13.13,0,0,1,0,.06l-.07.25s0,.1.06.1L30,22a.08.08,0,0,0,.09-.06l0-.07a.09.09,0,0,1,.07-.06h.19a.08.08,0,0,1,.08.09.08.08,0,0,0,.07.09l.24,0s0,0,.05,0l.07.08a.08.08,0,0,0,.08,0l.2-.06a.08.08,0,0,1,.09,0l.15.31,0,0,.27.14,0,0,.11.18s0,0,0,0l.11.05A.09.09,0,0,1,32,23l0,.19a.08.08,0,0,0,0,.07l.11.11a.08.08,0,0,1,0,0l0,.33a.08.08,0,0,0,0,.05l.15.17a.08.08,0,0,0,.12,0l0,0a.07.07,0,0,1,.1,0l.17.09h.06l.15-.05,0,0,.17-.23s0,0,.07,0l.23,0a.18.18,0,0,1,.09,0l0,0a.17.17,0,0,0,.13,0h0a.17.17,0,0,1,.12,0l.57.44,0,0,.22.31s0,0,0,0l.07.51a.07.07,0,0,0,0,.06l.12.07s0,0,0,0l.31.39a0,0,0,0,1,0,0l.07.19a.09.09,0,0,0,.11.05l.2-.06s0,0,.06,0l.42.2a.08.08,0,0,1,0,0l.12.25a.12.12,0,0,0,0,.05l.44.15a.1.1,0,0,1,.05,0l.14.25,0,0,.07.07.07,0,.12,0a.09.09,0,0,1,.06.13v0a.13.13,0,0,0,0,.06l0,.24a.11.11,0,0,0,.06.07l.26.08a.24.24,0,0,1,.09.06l.43.5,0,0,.33.28,0,0,.18.4h0l.09.15s0,0,.07.05l.33.08a.05.05,0,0,1,0,0l.24.2,0,0,.35.06a.09.09,0,0,1,.06,0l.12.13,0,0,0,.05a.1.1,0,0,0,.17,0,.1.1,0,0,1,.11,0l.5.16h0l.24.2h0l.22-.17h0l.09-.2h0l.22-.07a0,0,0,0,0,0,0l-.37-.42h0L41,29h0l-.18-.16h0l-.15-.39h0l-.06-.13.16,0h0l.08.08.07,0-.16-.32a0,0,0,0,0,0,0l-.27-.17L41,28a0,0,0,0,1,0,0l.16.23h0l.25.12a.11.11,0,0,0,.13,0l.06-.12a.07.07,0,0,0,0-.09.1.1,0,0,1,.09-.16h.05l.16,0a.09.09,0,0,1,.08.09v.11a.1.1,0,0,0,.07.09l.27.08h0l.2,0-.08-.14h0a.11.11,0,0,0,.07-.16l0,0a.08.08,0,0,1,0-.13h.07s.07,0,.08,0l.06.13a.09.09,0,0,1,0,.07.08.08,0,0,0,.07.12h.29l.17.1a.08.08,0,0,0,.08,0l.42-.32h0l.5-.17a.08.08,0,0,0,0-.07l0-.22s0,0,0-.05M39.27,14.68l-.31.13a.12.12,0,0,0,0,.19l.12.11.06,0,.6.07a.1.1,0,0,0,.11-.06l0-.11a.12.12,0,0,1,.05,0,.11.11,0,0,0,0-.21l-.56-.11h-.06m-1.55,2.63.25.07a.09.09,0,0,0,.08-.15s0-.06,0-.1l.09-.25a.12.12,0,0,0,0-.1l-.25-.24a.1.1,0,0,0-.09,0l-.2.08a.09.09,0,0,0-.05.11l.15.54s0,.05.06.06m-1.11,9.36-.3-.14a.09.09,0,0,0-.11.13h0a0,0,0,0,1,0,0l0,.31a.09.09,0,0,0,0,.06l.14.13a.09.09,0,0,0,.12,0l0,0,.05,0h0a.1.1,0,0,0,0-.16s0,0,0-.05l0-.18a.19.19,0,0,0-.07-.08M44.72,4.78l-.14-.06h0l-.13,0h0l-.13,0,0,.28a.09.09,0,0,0,.06.07l.43.08a.07.07,0,0,0,.08-.1l-.07-.21s0,0,0,0m-2.38,6.43v-.09a.06.06,0,0,0-.1-.06l-.08.06a.07.07,0,0,0,0,.06v.11a.06.06,0,0,0,.11,0l.07-.08,0,0M43.73,5l.08-.06a.08.08,0,0,0,0-.1l-.26-.38,0,0-.06,0a.07.07,0,0,0-.1.07v.28a.07.07,0,0,0,0,.06l.25.19a.06.06,0,0,0,.07,0m1-.59v.14a.05.05,0,0,0,0,0l.25.23,0,0,.15.31a.07.07,0,0,0,.07,0l.33,0a.08.08,0,0,0,.07-.08v0a.08.08,0,0,1,0-.08l.23-.07h0l.43.07.06,0,.24-.28a.08.08,0,0,0,0-.12l-1-.29a.06.06,0,0,0-.08,0l0,.09a.07.07,0,0,1-.13,0l-.09-.28a.08.08,0,0,0-.07-.05H45a.07.07,0,0,0-.07.07v.18a.07.07,0,0,1-.09.07l0,0a.07.07,0,0,0-.09.07m-3.17,3,.13,0a.07.07,0,0,0,.07-.11l-.06-.08a.06.06,0,0,0-.09,0l-.07,0a.07.07,0,0,0,0,.12m.6-1.86H42l0,0a.08.08,0,0,0,0,.13l.13,0a.07.07,0,0,0,.09,0l0-.08a.08.08,0,0,0-.07-.1m1-.67h0a.09.09,0,0,0,0,.09l.06.17s0,0,.09,0l.1,0a.07.07,0,0,0,0-.12l-.15-.14a.06.06,0,0,0-.09,0m0,.31-.05-.08a.07.07,0,0,0-.11,0l-.08.09,0,0-.22.06,0,0-.11.19a.09.09,0,0,0,0,.07l0,.1a.07.07,0,0,0,.12,0l.12-.17a.05.05,0,0,1,0,0l.16,0s0,0,0,0l.1-.13a.14.14,0,0,0,0-.09" fill="url(#linear-gradient-5)"/><path d="M7.31,33.83a2.19,2.19,0,0,1,.54-1.59,1.63,1.63,0,0,1,1.22-.48,1.56,1.56,0,0,1,1.19.54,1.81,1.81,0,0,1,.49,1.27,3.68,3.68,0,0,1-.32,1.53,11.28,11.28,0,0,1-.81,1.32c-.12.17-.29.44-.52.8l-.19.3c-.12.19-.22.35-.28.46l-.05.1h2.08v1.08H7.29v-1a2.45,2.45,0,0,1,.24-.4l.24-.38L8,37l.76-1.1a7.31,7.31,0,0,0,.73-1.29,2.51,2.51,0,0,0,.2-1A.87.87,0,0,0,9.55,33a.62.62,0,0,0-.5-.24c-.3,0-.5.18-.63.53a1.25,1.25,0,0,0-.06.42V34h-1Z" fill="#020303"/><path d="M14.6,37.51a1.7,1.7,0,0,1-.49,1.24,1.64,1.64,0,0,1-2.38,0,1.7,1.7,0,0,1-.49-1.23v-4a1.7,1.7,0,0,1,.49-1.24,1.6,1.6,0,0,1,1.19-.51,1.57,1.57,0,0,1,1.19.51,1.7,1.7,0,0,1,.49,1.23Zm-1.1-4a.64.64,0,0,0-.18-.45.59.59,0,0,0-.43-.19.56.56,0,0,0-.43.19.61.61,0,0,0-.18.45v4a.64.64,0,0,0,.18.45.59.59,0,0,0,.43.19.56.56,0,0,0,.43-.19.61.61,0,0,0,.18-.45Z" fill="#020303"/><path d="M15.06,33.83a2.19,2.19,0,0,1,.54-1.59,1.63,1.63,0,0,1,1.22-.48A1.56,1.56,0,0,1,18,32.3a1.81,1.81,0,0,1,.49,1.27,3.68,3.68,0,0,1-.32,1.53,11.28,11.28,0,0,1-.81,1.32c-.12.17-.29.44-.52.8l-.19.3c-.12.19-.22.35-.28.46l-.05.1h2.08v1.08H15v-1a2.45,2.45,0,0,1,.24-.4l.24-.38.27-.42.76-1.1a7.31,7.31,0,0,0,.73-1.29,2.51,2.51,0,0,0,.2-1A.87.87,0,0,0,17.3,33a.62.62,0,0,0-.5-.24c-.3,0-.5.18-.63.53a1.25,1.25,0,0,0-.06.42V34h-1Z" fill="#020303"/><path d="M22.35,37.51a1.7,1.7,0,0,1-.49,1.24,1.64,1.64,0,0,1-2.38,0A1.7,1.7,0,0,1,19,37.52v-4a1.7,1.7,0,0,1,.49-1.24,1.6,1.6,0,0,1,1.19-.51,1.57,1.57,0,0,1,1.19.51,1.7,1.7,0,0,1,.49,1.23Zm-1.11-4a.64.64,0,0,0-.18-.45.59.59,0,0,0-.43-.19.56.56,0,0,0-.43.19.61.61,0,0,0-.18.45v4a.64.64,0,0,0,.18.45.59.59,0,0,0,.43.19.56.56,0,0,0,.43-.19.61.61,0,0,0,.18-.45Z" fill="#020303"/></g><path d="M84.69,30.83H80.35l-.66-1.53-1.47-2.24L76.43,29.5l-.63,1.33H72.13l4-6.17L72,18h4.37l.68,1.56,1.42,2.17,1.57-2.37L80.66,18h3.79l-3.76,6Z" fill="#50504f"/><path d="M89,30.83,85.27,18h3.67l.36,2.06,1.81,7.33h.22l2.17-7.1L93.86,18h3.55L93.33,30.83Z" fill="#50504f"/><path d="M102.81,30.83H99.19l.17-3.75-.17-9h3.69l-.22,8.66Z" fill="#50504f"/><path d="M109.79,30.83h-3.62l.17-3.75-.17-9h3.69l-.22,8.66Z" fill="#50504f"/><path d="M116.76,30.83h-3.62l.17-3.75-.17-9h3.69l-.22,8.66Z" fill="#50504f"/><path d="M81.55,34.93,81,38.2l-.53.13a5.65,5.65,0,0,0-2.94-1.23c-.7,0-1.06.38-1.06.83,0,1.66,5.33,1.28,5.33,5.31,0,2.14-1.5,4.31-5.16,4.31a12,12,0,0,1-4.1-.76l.51-3.4.36-.28a6.29,6.29,0,0,0,3.69,1.71c.7,0,1.13-.38,1.13-.88,0-1.66-5.36-1.31-5.36-5.39,0-2.39,1.88-4.28,5.14-4.28A10.64,10.64,0,0,1,81.55,34.93Z" fill="#50504f"/><path d="M90.36,47.29H86.74l.17-3.4,0-.53L82.74,34.5h3.81l.31,1,1.71,4h.19l1.95-3.85.43-1.18h3.72l-4.63,8.76,0,.63Z" fill="#50504f"/><path d="M106.87,47.29l-.1-3.88-.31-3.35h-.19l-2.32,6h-2.77l-2-6H99l-.31,3-.22,4.23H95.34L96.59,34.5h4.3l.41,1.84,1.35,4.76h.24l1.47-4.66.51-1.94H109l1.09,12.79Z" fill="#50504f"/><path d="M118.45,34.48c2.85,0,4.44,1.46,4.44,4.05,0,3-2.27,5.06-5.67,5.06h-1.09l.12,3.7h-3.62l.17-3.75-.17-9Zm-.68,6.44a1.93,1.93,0,0,0,1.3-2c0-1.21-.6-1.69-1.88-1.76l-.94.08-.1,3.63Z" fill="#50504f"/><path d="M136.21,40.57c0,4.43-2.32,7-6.4,7-3.74,0-5.86-2.34-5.86-6.45,0-4.33,2.32-6.82,6.4-6.82C134.09,34.28,136.21,36.57,136.21,40.57Zm-8.47,0c0,3.25.6,4.08,2.39,4.08s2.29-.71,2.29-3.3c0-3.2-.58-4.08-2.41-4.08S127.74,38,127.74,40.6Z" fill="#50504f"/><path d="M146.64,34.93l-.53,3.27-.53.13a5.65,5.65,0,0,0-2.94-1.23c-.7,0-1.06.38-1.06.83,0,1.66,5.33,1.28,5.33,5.31,0,2.14-1.5,4.31-5.16,4.31a12,12,0,0,1-4.1-.76l.51-3.4.36-.28a6.29,6.29,0,0,0,3.69,1.71c.7,0,1.13-.38,1.13-.88,0-1.66-5.36-1.31-5.36-5.39,0-2.39,1.88-4.28,5.14-4.28A10.74,10.74,0,0,1,146.64,34.93Z" fill="#50504f"/><path d="M153,47.29h-3.62l.17-3.75-.17-9h3.69l-.22,8.66Z" fill="#50504f"/><path d="M167,43c0,2.9-2,4.51-5.57,4.51s-5.33-1.61-5.26-4.51l0-2-.1-6.47h3.62l-.17,8c0,1.41.6,2,2,2s2-.6,2-2l-.17-8h3.69L167,41Z" fill="#50504f"/><path d="M180.76,47.29l-.1-3.88-.31-3.35h-.19l-2.32,6h-2.77l-2-6h-.24l-.31,3-.22,4.23h-3.09l1.25-12.79h4.3l.41,1.84,1.35,4.76h.24l1.47-4.66.51-1.94h4.17L184,47.29Z" fill="#50504f"/><path d="M14.4,105.15l-.35-.78a.51.51,0,0,1,0-.36,1.07,1.07,0,0,1-.07-.19h-.14c.2.45.4.89.59,1.33Z" fill="url(#linear-gradient-6)"/><path d="M58.83,95.59A31.22,31.22,0,0,0,50,76.2a27.86,27.86,0,0,0-17.34-8.3,26.79,26.79,0,0,1,4.79.67,27.78,27.78,0,0,1,14.92,9.21,1,1,0,0,0,.74.42.49.49,0,0,0,.45-.25.79.79,0,0,0-.12-.79l0,0h0L53.34,77l-.07-.09h0a28.23,28.23,0,0,0-16.8-11.67,27.17,27.17,0,0,0-6.25-.72A28.39,28.39,0,0,0,15.8,68.41,30.48,30.48,0,0,0,2.55,85a31.46,31.46,0,0,0,.49,21,29.1,29.1,0,0,0,13.05,15.08,27.22,27.22,0,0,0,9.12,3.09,25.78,25.78,0,0,0,3.64.25,28.26,28.26,0,0,0,5.76-.61l.82-.19a28.17,28.17,0,0,0,5.91-1.85,28,28,0,0,0,12.59-11.49.87.87,0,0,0,.11-.85.52.52,0,0,0-.55-.27c.29-.59.55-1.19.79-1.79A27.43,27.43,0,0,0,56.23,97v-.16h0a.79.79,0,0,0-.21-.52.52.52,0,0,0-.38-.17c-.28,0-.61.25-.64.81,0,.29,0,.58,0,.86,0,.45,0,.91-.09,1.35l-.31,2.19-.5,2.16a11.34,11.34,0,0,1-.4,1.29c-.09.27-.19.54-.27.81a27.21,27.21,0,0,1-4.25,7.68,26.21,26.21,0,0,1-6.49,5.93A25.79,25.79,0,0,1,39,121.19a24.23,24.23,0,0,1-8.57,1.7,27.94,27.94,0,0,1-5.41-.61l-2-.51-1.93-.72a5,5,0,0,1-.92-.4l-.92-.45-.34-.17-.57-.28-.88-.54a25.18,25.18,0,0,1-6.29-5.33,29,29,0,0,1-4.45-7.11,30.17,30.17,0,0,1-2.06-8.25L4.5,96.37l0-2.18a9,9,0,0,1,.12-1.47c0-.22.06-.45.08-.67L4.88,91c0-.22.09-.45.14-.67s.06-.25.08-.37.12-.51.17-.77a13.08,13.08,0,0,1,.33-1.34l.66-2.06.17-.41A26.18,26.18,0,0,1,8.1,81.84c.27-.48.56-1,.85-1.41A26.54,26.54,0,0,1,12.81,76a26.06,26.06,0,0,1,8.61-5.3,25.41,25.41,0,0,1,9.84-1.56,26.57,26.57,0,0,1,17.89,8A30,30,0,0,1,57.6,95.65c.07.59.41.86.7.86a.5.5,0,0,0,.37-.17A1,1,0,0,0,58.83,95.59ZM28.74,66.76a26.82,26.82,0,0,0-8.67,2.33,29.6,29.6,0,0,0-7.46,5A28.16,28.16,0,0,0,8,79.7,28.31,28.31,0,0,0,3,94.28a30,30,0,0,0,1.59,11.24,28.8,28.8,0,0,0,5.63,9.63l.13.15c-.34-.34-.67-.69-1-1.06a27.84,27.84,0,0,1-5.13-8.39,30.6,30.6,0,0,1-2.08-9.92A29.32,29.32,0,0,1,3.59,85.71a29,29,0,0,1,12.54-16A27.34,27.34,0,0,1,30.2,65.74a25,25,0,0,1,5.68.64,26.25,26.25,0,0,1,7,2.67,25.72,25.72,0,0,0-5.15-1.71A26.23,26.23,0,0,0,28.74,66.76Z" fill="#7a7a7e"/><g clip-path="url(#clip-path-2)"><rect x="15.6" y="73.84" width="2.79" height="8.05" fill="#727475"/><rect x="21.66" y="73.84" width="2.98" height="8.05" fill="#737578"/><polygon points="31.88 81.86 35.78 73.84 32.73 73.84 29.27 80.83 29.27 73.84 26.41 73.84 26.41 81.89 31.89 81.89 31.88 81.86" fill="#737578"/><polygon points="26.97 101.72 27.55 104.29 30.07 104.29 28.2 94.4 24.12 94.4 24.12 104.29 26.97 104.29 26.97 101.72" fill="#a2a3a5"/><polygon points="34.49 101.69 34.49 104.29 37.34 104.29 37.34 94.4 33.41 94.4 31.61 104.29 33.97 104.29 34.49 101.69" fill="#a2a3a5"/><polygon points="48.5 94.4 45.34 94.4 43.25 100.44 41.14 94.4 37.99 94.4 41.64 104.29 44.85 104.29 48.5 94.4" fill="#a2a3a5"/><polygon points="29.73 114.01 32.02 114.01 33.97 104.29 31.61 104.29 30.86 108.46 30.07 104.29 27.55 104.29 29.73 114.01" fill="#737578"/><rect x="34.49" y="104.29" width="2.85" height="9.72" fill="#737578"/><rect x="24.12" y="104.29" width="2.85" height="9.72" fill="#737578"/><polygon points="41.05 114.02 43.25 107.77 45.44 114.02 48.5 114.02 44.85 104.3 41.64 104.3 37.99 114.02 41.05 114.02" fill="#737578"/><path d="M32.4,123.39c.12,0,1.35.15,1.47-.17s-.92-1-.8-1.1.17-.86.35-.86,1.92,0,2,0,.43-.69.71-.71.33.15.51.33a2.8,2.8,0,0,0,.49-1.55c.07-.69-.15-.91.2-1.3s.71-.41.61-.94-.56,0-1-.25-.73-.08-1.74.08-1.47.58-1.42,1.32-.34.41-.32,1-.78.66-.73,1-.64,0-.83-.13a15.38,15.38,0,0,0-2.6.58c-.29,0-.83-.63-1.25-.61s-.59-.64-.64-1.17-.83-1-1.18-1.5a5.09,5.09,0,0,1-.42-2.24,8.27,8.27,0,0,1,.37-3.2,2,2,0,0,0,.1-.48.84.84,0,0,0-.46-.18c-.42,0-1.36-.57-1.54-.57s-.16-.46-.31-.71-.05-.71-.26-.87a3.4,3.4,0,0,1-1.05-1.55c-.21-.76-1.49-1.14-2-1.17s-.73,1-.86,1.06a6.5,6.5,0,0,1-1.28-.68.79.79,0,0,1-.39-.73c0-.33-.55-.84-.71-.9a13.6,13.6,0,0,1-1.26-1.17H14.52l-.37.49-3.14,0s-2.41-.92-2.85-1a5.14,5.14,0,0,1-1.23-.68l-2.54.35a4.66,4.66,0,0,0,.58.95,5.93,5.93,0,0,1,.93,2.24c0,.41.76.74,1.37,1.14a1.56,1.56,0,0,1,.54,1.52c-.07.23-.83-.15-.88.08s1,1.12,1.37,1.07.59.2,1.2.76.56,1.22.32,1.42.49.64,1.27,1.17a2.93,2.93,0,0,1,1.18,1.47c.07.28.42,0,.54-.36s-.25-.48-.25-.91-.64-.36-.93-.41,0-.71-.27-1a4.64,4.64,0,0,1-.71-1.63c-.15-.56-.91-1.12-1.22-1.73a4.24,4.24,0,0,0-.88-1.25c-.22-.15.32-.38.12-.61s-.49-.2-.86-.38a1,1,0,0,1-.61-.89,7.54,7.54,0,0,0-.37-1.7c-.12-.33.27-.28.39-.13s.22.3.39.2a.44.44,0,0,1,.59.25c.12.28.54,0,.73.15s-.44.28.2,1.45.2.51.2,1.3.39.43.51.3.47.25.78.66.93.43.93.66a.74.74,0,0,0,.54.76c.42.08.49.56.76.61s.32.36.17.69,0,.61.69.89.37.33.91.86A32.92,32.92,0,0,1,17,115.58a4.61,4.61,0,0,1,.54,1.24c.12.36-.25.53-.05.84s-.37.18-.34.41.34,1.37.88,1.42,1.15.74,1.59,1.12,1.1.3,1.76.56a17.83,17.83,0,0,0,2.18,1.14,9.56,9.56,0,0,1,2.5,1.12,2.33,2.33,0,0,0,2.23-.13,2.35,2.35,0,0,1,2,.3,6.6,6.6,0,0,1,1.19,1c.44-.57.86-1.15.91-1.17" fill="url(#linear-gradient-7)"/><path d="M24.59,114c.44.84.92,1.65,1.38,2.47a11,11,0,0,1-.09-1.21,8.27,8.27,0,0,1,.37-3.2,2,2,0,0,0,.1-.48.87.87,0,0,0-.46-.18c-.42,0-1.36-.57-1.54-.57s-.09,0-.12-.12a9.83,9.83,0,0,0-.21,1.87c.19.44.36.88.52,1.33A.41.41,0,0,0,24.59,114Z" fill="url(#linear-gradient-8)"/><path d="M16.91,92.34A4.25,4.25,0,0,0,20.1,93.7a4.34,4.34,0,0,0,3.2-1.34,4.56,4.56,0,0,0,1.33-3.31V81.89h-3V89a1.67,1.67,0,0,1-.47,1.19A1.53,1.53,0,0,1,20,90.7a1.56,1.56,0,0,1-1.16-.49A1.65,1.65,0,0,1,18.38,89V81.89H15.59v7.16A4.58,4.58,0,0,0,16.91,92.34Z" fill="#a2a3a5"/><polygon points="29.27 93.46 29.27 87.26 30.11 85.51 33.1 93.46 36.45 93.46 31.89 81.89 26.42 81.89 26.42 93.46 29.27 93.46" fill="#a2a3a5"/><path d="M43.47,70.39l-.09-.1a.07.07,0,0,0-.1,0l-.08.08Zm-2.6,2.28.3-.47a.08.08,0,0,0,0-.1l-.48-.28a.08.08,0,0,0-.08,0l-.26.24a.07.07,0,0,0,0,.12l.2.07a.07.07,0,0,1,0,.12l-.1.07a.07.07,0,0,0,0,.12l.31.12a.09.09,0,0,0,.09,0m4-4-.11-.06a.06.06,0,0,0-.08,0l-.17.19a.07.07,0,0,1-.12,0l0-.27a.07.07,0,0,0-.12,0l-.06.06a.07.07,0,0,1-.12,0,.09.09,0,0,0-.06-.06h-.07s-.08,0-.08.08l0,.4.13-.09V69a.08.08,0,0,1,0,.08h0a.08.08,0,0,0,0,.05l-.14.47a.06.06,0,0,0,0,.07l.26.26a.11.11,0,0,1,0,.16l-.11.12a.12.12,0,0,0,0,.17h0a.06.06,0,0,0,.07,0l.29-.11h0l.24.09s.06,0,.05,0l0-.11s0,0,0,0l-.16-.13a.09.09,0,0,1,0-.06l-.11-.4a.07.07,0,0,1,0-.08l.47-.36s0,0,0-.06l.08-.31a.08.08,0,0,0,0-.09M42.9,71.58l-.12-.19a.06.06,0,0,1,0,0l0-.45a.08.08,0,0,0,0-.07l-.28-.09a.07.07,0,0,0-.08.09l.1.35a.06.06,0,0,1-.09.08l-.12-.05a.07.07,0,0,0-.09.05.07.07,0,0,1-.08,0h0a.07.07,0,0,0-.06.12l.34.27a.06.06,0,0,1,0,.09l0,0,.39.11a.07.07,0,0,0,.08,0l.11-.25a.08.08,0,0,0,0-.07m.39-1.8-.06.17a.08.08,0,0,0,.05.1h0a.07.07,0,0,0,.08,0l.05-.13a.08.08,0,0,0,0-.08l0,0a.05.05,0,0,0-.1,0m-1.77,2.83.41-.11a.07.07,0,0,0,0-.13l-.6-.1a.07.07,0,0,0-.07,0l-.1.21a.07.07,0,0,0,.06.1h.31M42,70.2l.15.08a.29.29,0,0,0,.24,0l.17-.07Zm-.42,1.49-.38.15.22,0a.07.07,0,0,0,.06,0Zm12.85.09a.07.07,0,0,0-.08-.07l-.29.05.28.08a.06.06,0,0,0,.09-.06m1.41-.88.29-.27s0,0,0-.06v0a.06.06,0,0,0-.1,0l-.11.07h0l-.21,0a.07.07,0,0,0-.06.07v.19a.07.07,0,0,0,.06.07h.1l.06,0m.71-.31h0a.08.08,0,0,0-.07,0v0a.07.07,0,0,0,.09.09l.05,0a.07.07,0,0,0,0-.13m-5.86.06,0-.17s0,0,0-.06l-.05,0a.06.06,0,0,0-.1,0l-.06.23a.06.06,0,0,0,.07.08l.07,0a0,0,0,0,0,0,0m.37-.39-.16.17a.07.07,0,0,0,0,.09l.24.23s0,0,0,0l0,.14a.06.06,0,0,0,.1,0l.1-.09a.06.06,0,0,0,0-.09l-.29-.3h.16a.06.06,0,0,0,.06-.06v-.26s0,0,0,0L51.17,70a.06.06,0,0,0-.08,0l-.2.18a.05.05,0,0,0,0,0v.08a.06.06,0,0,0,.08.07Zm4.35.11-.14-.1a.08.08,0,0,0-.07,0l-.14.06a.07.07,0,0,0,0,.08,2.25,2.25,0,0,0,.05.22.07.07,0,0,0,.11,0l.23-.17s0-.1,0-.12m-3.81-.14h0a.06.06,0,0,0-.1,0s0,.09.09.06a.06.06,0,0,0,0-.1M38.55,75.81l-.06-.09a.11.11,0,0,1,0-.15l.16-.06a.09.09,0,0,0,.06-.06l0-.08a.1.1,0,0,1,.15,0l0,0a.11.11,0,0,1,0,.12l-.07.13c0,.05,0,.11.08.06l.2-.24a.11.11,0,0,0,0-.13l-.14-.18a.1.1,0,0,1,.1-.16.1.1,0,0,0,.12-.08l.18-.93s0,0,0,0l.19-.22a.1.1,0,0,0,0-.09l-.08-.29s0,0,0,0l-.36-.52a.1.1,0,0,0,0,0l-.41-.15,0,0-.14-.14-.06,0h-.13l0,0-.28-.24,0,0-.25,0h0l-.25-.11a.09.09,0,0,0-.07,0l-.26.1a.1.1,0,0,1-.1,0l-.25-.21a.08.08,0,0,0-.08,0l-.86.2a.09.09,0,0,0-.07.1l0,1.12a.09.09,0,0,0,0,.08l.17.14a.09.09,0,0,0,.1,0l.41-.22h.07l.21.06a.1.1,0,0,1,.07.07l.17.61s0,0,0,.06l-.27.76a.1.1,0,0,0,0,.09l.14.23s0,0,0,0l.08.53v0l0,.06.11-.12a.09.09,0,0,1,.15,0v0a.15.15,0,0,0,.06,0l.32.07a.08.08,0,0,0,.07,0l.12-.08a.09.09,0,0,1,.13,0l.19.27a.1.1,0,0,0,.13,0l.13-.08a.11.11,0,0,0,0-.14M40.9,91.19h0l-.15-.07.08.29a0,0,0,0,0,0,0l.16.12a0,0,0,0,0,0,0v-.16h0Zm.55-17.41-.33.44.15.44.35-.16s0,0,0,0l.19-.52a.08.08,0,0,0,0-.09l-.29-.09a0,0,0,0,0-.06,0m2.91,16.41.27-.36a.14.14,0,0,0,0-.06l-.08-.88a.05.05,0,0,0,0,0L43.93,88h0l-.38-.43a.08.08,0,0,0-.1,0l-.29.2h0l-.18,0c-.05,0-.09,0-.09-.09l0-.37a.06.06,0,0,0,0,0l-.11-.21a.08.08,0,0,1,.08-.12l.67.08a.07.07,0,0,0,.06,0l.22-.2a.05.05,0,0,0,0,0l.18-.71a.42.42,0,0,0,0-.29.16.16,0,0,1,0-.09l-.09-.39a.33.33,0,0,1,0-.14l0-.08a.3.3,0,0,0-.09-.3l0,0h0l-.06,0a.4.4,0,0,1-.1-.12l-.07-.16a.25.25,0,0,0,0-.07l-.08-.09.19.15a.39.39,0,0,1,.08.1l0,.07a.22.22,0,0,0,.07.09l.15.12A.3.3,0,0,1,44,85l0,.09a.43.43,0,0,1,0,.11v0a.28.28,0,0,0,.1.23l0,0a.16.16,0,0,1,.06.08l.08.15.11-.91,0-.22a.28.28,0,0,1,.24-.24.25.25,0,0,1,.17,0l.07,0-.06-.25a.38.38,0,0,1,0-.15l0-.12a.07.07,0,0,0,0-.06l0,0a.07.07,0,0,1,0-.06l.18-.57A.24.24,0,0,0,45,83l-.13-.49s0,0,0-.05L44.58,82a.21.21,0,0,1,0-.25h0a.19.19,0,0,0,0-.19.25.25,0,0,1,0-.15l.33-.57,0-.07.11-.4a.16.16,0,0,1,.05-.09l.54-.71s0,0,0,0l.08-.35a.09.09,0,0,0,0,0l-.1-.11a0,0,0,0,1,0-.05l.2-1a.06.06,0,0,0,0,0l-.15-.28a.17.17,0,0,1,0-.1l0-.29a.43.43,0,0,0,0,0l-.14-.36a.16.16,0,0,0-.13-.11l-.12,0h0l-.3-.1a.25.25,0,0,1-.14-.13l-.17-.38a.16.16,0,0,0-.06-.08l-.11-.1a.22.22,0,0,1,0-.08l-.14-.3a.23.23,0,0,1,0-.14l.06-.17.07.24,0,.06.26.36a.1.1,0,0,0,.05,0l.26.18a.16.16,0,0,0,.15,0l.12,0a.17.17,0,0,1,.19.06l.15.2a.18.18,0,0,0,.09.06l.08,0a.17.17,0,0,0,.21-.23.17.17,0,0,1,0-.18l0,0a.18.18,0,0,0,0-.14v0a.23.23,0,0,0-.1-.15l-.33-.15a.18.18,0,0,1-.1-.19h0l.43.12a.15.15,0,0,1,.09.06l.23.31a.21.21,0,0,0,.11.07l.24,0a.17.17,0,0,0,.12,0l.06,0a.17.17,0,0,1,.14,0l.11,0h.09l.52-.11h0l.21,0a.15.15,0,0,0,.12-.07l0,0a.21.21,0,0,1,.1-.06l.27-.05a.12.12,0,0,0,.09-.08h0a.14.14,0,0,1,.07-.08l.4-.14a.06.06,0,0,1,.06,0l.35.07a.1.1,0,0,0,.1,0l.15-.13a.11.11,0,0,0,0-.09v-.54a.11.11,0,0,0-.09-.11s-.05,0-.06,0L49,73.79l0,0-.22-.37a.28.28,0,0,0-.16-.12.3.3,0,0,1-.13-.09l-.09-.11L48.33,73l-.1-.25a.22.22,0,0,0,0-.08l-.09-.1a.08.08,0,0,0-.09,0h0a.08.08,0,0,1-.08,0l-.23-.16,0,0-.31-.14-.06,0,0,0a.15.15,0,0,0-.09-.06L46.91,72V71.9l.46,0h0l.57-.07-.16-.07a.25.25,0,0,1-.13-.14l0-.07a.08.08,0,0,1,.1-.11.06.06,0,0,0,.06,0l.16-.08h0l1,.27h0l.41-.06h.05l.21.13a.09.09,0,0,0,.07,0l.26-.1a.08.08,0,0,0,0-.07v-.09a.08.08,0,0,1,.07-.08l.2,0a.05.05,0,0,0,0,0,.14.14,0,0,0,0-.19l-.14-.2a.12.12,0,0,0-.09,0H50s0,0-.07-.05l-.08-.18s0,0-.06-.07l-.36-.18-.23-.33-.3-.17-.13-.14-.25,0,.17-.09-.06-.19-.45-.08.26-.09-.17-.53-.21.1a.17.17,0,0,1-.1,0h0a.17.17,0,0,0-.16.06l-.1.13L47.62,69l-.14.13a.15.15,0,0,1-.2,0h0a.15.15,0,0,0-.24.08h0a.15.15,0,0,1-.11.11l-.12,0a.14.14,0,0,1-.14,0l-.06-.07,0,.54a.07.07,0,0,1,0,0l-.08.25-.11-.38a.15.15,0,0,0-.12-.11.15.15,0,0,1-.12-.13l0-.27-.11.07s0,0,0,0l-.07.16,0,0h-.09s-.05,0,0,0l.07-.2a0,0,0,0,0,0,0l-.25.07s0,0,0,0l0,.18a0,0,0,0,1,0,0h-.14s.34.17.34.19l-.4.18a0,0,0,0,0,0,0l.15.19-.26-.16s0,0,0,0l-.06-.24a0,0,0,0,0-.07,0l-.23.28h0l-.08.06s0,0,0,.06l.39.35-.34-.17h0l-.07,0,0,.12s0,0,0,0l.3.18h-.12l0,.22-.09-.25a0,0,0,0,0,0,0l-.08,0h0l-.17.06s0,0,0,0l0,.14-.15-.13h-.19s0,0,0,.06l.07.17s0,0,0,0l-.08.14L44,70.65a0,0,0,0,0-.05,0l-.12.05a.11.11,0,0,0-.06.12.1.1,0,0,1-.08.12h-.1l-.17,0,0,0-.22-.26,0,0H43a.07.07,0,0,0-.07.08v.06s0,0,0,0l.21.22s0,0,0,0l.09.21h-.07l-.06,0,0,0a.07.07,0,0,0-.12,0v.24a.05.05,0,0,0,0,.06l0,0a.08.08,0,0,1,0,.06v.14s0,.07.06.07l1.14.14L44,72A.06.06,0,0,0,44,72l0,.09L43.78,72h-.05l-.45.13s0,0,0,0l0,.06,0,0-.45.08a.07.07,0,0,0,0,.08h0a.07.07,0,0,1,0,.08l-.51.18,0,0-.21.26-.05,0h-.19a.06.06,0,0,0-.06,0l0,.13a.07.07,0,0,0,0,.08l.11.05-.47,0h0l-.44.34-.29,0,0,0a.11.11,0,0,0,0,.13l.17.2a.09.09,0,0,0,.15,0l.11-.15.44-.13,0,0,.15-.16,0,0h.3a.09.09,0,0,0,.06,0l.31-.48a.06.06,0,0,1,.1,0l0,.05,0,0,.79,0-.69,0h0l-.29.21a.07.07,0,0,0,0,.06v0a.06.06,0,0,0,.1,0l.1-.06h0l.22,0a.07.07,0,0,1,0,.1l-.07.12s0,.12.07.1l.32-.09s0,0,0,0l.16-.2a.08.08,0,0,1,.08,0h0a.07.07,0,0,1,0,.12l-.22.14a.08.08,0,0,0,0,.07l.06.53L42.94,74a.07.07,0,0,0-.09,0l-.42.21,0,0-.2.29s0,0,0,.07l.1.19-.16.34-.49,0-.86.29,0,0-.11.15a.08.08,0,0,1-.14,0v0a.08.08,0,0,0-.14,0l-.17.17a.08.08,0,0,0,0,0l-.05.28a.08.08,0,0,0,.15.06l0,0a.07.07,0,0,1,.11,0l.16.11a.07.07,0,0,1,0,.06l.1.76a.08.08,0,0,0,.13.06l.14-.11a.09.09,0,0,0,0-.07v-.18a.08.08,0,0,1,.13-.07.05.05,0,0,1,0,.05l.13.66a.05.05,0,0,0,0,0l.31.28.08-.07a0,0,0,0,1,.07,0l.18.22a.11.11,0,0,0,.11,0l.2-.08a.09.09,0,0,1,.11,0l.19.25a.1.1,0,0,1-.13.14h0l-1.06.4a.12.12,0,0,0-.07.07l-.26.86a.11.11,0,0,0,.06.14h0a.11.11,0,0,1,0,.19.11.11,0,0,0,.07.2h.18a.11.11,0,0,1,.09,0l.21.33-.46.2,0,.16-.43-.11a.15.15,0,0,0-.14,0l-.23.35a.16.16,0,0,1-.08.06l-.32.06a.13.13,0,0,0-.1.11l0,.32v.38a.14.14,0,0,0,0,.07l.13.19-.17,0-.06,0-.13-.14a.13.13,0,0,1,0-.12l.05-.25a.14.14,0,0,0-.06-.14.13.13,0,0,0-.19.08l-.05.17a.06.06,0,0,0,0,.06l0,.22-.16-.28a.19.19,0,0,1,0-.07v-.29a.09.09,0,0,0,0-.08l-.56-.38,0,0-.15-.24s0,0,0,0l-.67-.33h0l-.57,0h0L36.6,80h-.17a.08.08,0,0,0,0,.15l.08.07s0,0,0,0l0,.06a.08.08,0,0,0,.11,0l0,0a.08.08,0,0,1,.08,0l.47.35a.09.09,0,0,1,0,.15L37,81A.08.08,0,0,0,37,81v.21a.08.08,0,0,1-.11.08l-.14,0a.08.08,0,0,0-.1.06l-.06.19a.09.09,0,0,0,0,.07v0a.09.09,0,0,1-.06.13l-.83.16-.31-.2-.4-.11-.12-.13-.47-.18,0,0L34.19,81l0,0-.35-.12a.08.08,0,0,0-.09.12l.08.12a.08.08,0,0,1,0,.1l-.11.11a.08.08,0,0,1-.09,0h0a.08.08,0,0,0-.1.11l.14.24h-.06a.08.08,0,0,0-.08.1l0,.09s0,0,0,0l.22.16h0l.35.14a0,0,0,0,1,0,0l.43.28a.08.08,0,0,1,0,.12l-.07.09a.09.09,0,0,0,0,.09l0,.07c0,.07,0,.15-.11.1a.06.06,0,0,0-.08,0l0,0a.08.08,0,0,0,0,.12l.33.42,0,0a.08.08,0,0,1,.1,0l.18.13a.09.09,0,0,1,0,.07l0,.42,0,.43.44.51a.11.11,0,0,0,.08,0l.2,0a.12.12,0,0,1,.1,0l.27.15a0,0,0,0,1,0,0l.39.24h0l.24,0h0l.36.18-.76,0h0l-.64-.1a.1.1,0,0,0-.07,0l-.32.27a.09.09,0,0,1-.12,0l-.16-.2s0,0,0,0l-.21-.13a.09.09,0,0,1,0-.06l-.08-.31s0,0,0,0l-.53-.77-.54-.41-.22.21-.33,0s0,0-.05,0l-.17-.2a.07.07,0,0,0-.1,0l-.47.35a.07.07,0,0,1-.06,0l-.45-.08h0l-.15,0a.1.1,0,0,1-.07,0l-.26-.23a.06.06,0,0,0-.08,0l-.26.13a.07.07,0,0,1-.09,0l-.05-.06a.08.08,0,0,0-.08,0l-.14.08h0l-.54-.16a.08.08,0,0,1,0,0l-.07-.17a.12.12,0,0,0-.05-.05l-.33-.1a.06.06,0,0,0-.07,0l-.14.12a.08.08,0,0,0,0,.11l.15.2a.07.07,0,0,0,.11,0l.08-.06a.08.08,0,0,1,.12,0l.17.34a.13.13,0,0,1,0,.06l-.07.25s0,.1.06.1l.15,0a.08.08,0,0,0,.09-.06l0-.07a.09.09,0,0,1,.07-.06h.19a.08.08,0,0,1,.08.09.08.08,0,0,0,.07.09l.24,0s0,0,.05,0l.07.08a.08.08,0,0,0,.08,0l.2-.06a.08.08,0,0,1,.09,0l.15.31,0,0,.27.14,0,0,.11.18s0,0,0,0l.11,0a.09.09,0,0,1,.05.09l0,.19a.08.08,0,0,0,0,.07l.11.11a.08.08,0,0,1,0,0l0,.33a.08.08,0,0,0,0,0l.15.17a.08.08,0,0,0,.12,0l0,0a.07.07,0,0,1,.1,0l.17.09a.06.06,0,0,0,.06,0l.15,0,0,0,.17-.23s0,0,.07,0l.23,0a.18.18,0,0,1,.09,0l0,0a.17.17,0,0,0,.13,0h0a.17.17,0,0,1,.12,0l.57.44,0,0,.22.31s0,0,0,0l.07.51a.07.07,0,0,0,0,.06l.12.07s0,0,0,0l.31.39v0l.07.19a.09.09,0,0,0,.11.05l.2-.06s0,0,.06,0l.42.2a.08.08,0,0,1,0,0l.12.25a.12.12,0,0,0,0,0l.44.15a.1.1,0,0,1,.05,0l.14.25,0,0,.07.07.07,0,.12,0a.09.09,0,0,1,.06.13v0a.13.13,0,0,0,0,.06l0,.24a.11.11,0,0,0,.06.07l.26.08a.24.24,0,0,1,.09.06l.43.5,0,0,.33.28,0,0,.18.4h0l.09.15s0,0,.07,0l.33.08a.05.05,0,0,1,0,0l.24.2,0,0,.35.06a.09.09,0,0,1,.06,0l.12.13,0,0,0,0a.1.1,0,0,0,.17,0,.1.1,0,0,1,.11,0l.5.16h0l.24.2h0l.22-.17h0l.09-.2h0l.22-.07a0,0,0,0,0,0,0l-.37-.42h0L41,91.67h0l-.18-.16h0l-.15-.39h0L40.6,91l.16,0h0l.08.08.07,0-.16-.32a0,0,0,0,0,0,0l-.27-.17.47.15a0,0,0,0,1,0,0l.16.23h0l.25.12a.11.11,0,0,0,.13,0l.06-.12a.07.07,0,0,0,0-.09.1.1,0,0,1,.09-.16h.05l.16,0a.09.09,0,0,1,.08.09v.11A.1.1,0,0,0,42,91l.27.08h0l.2,0-.08-.14h0a.11.11,0,0,0,.07-.16l0-.05a.08.08,0,0,1,0-.13h.07s.07,0,.08,0l.06.13a.09.09,0,0,1,0,.07.08.08,0,0,0,.07.12h.29l.17.1a.08.08,0,0,0,.08,0l.42-.32h0l.5-.17a.08.08,0,0,0,0-.07l0-.22s0,0,0,0M39.27,77.38l-.31.13a.12.12,0,0,0,0,.19l.12.11.06,0,.6.07a.1.1,0,0,0,.11-.06l0-.11.05,0a.11.11,0,0,0,0-.21l-.56-.11h-.06M37.72,80l.25.07a.09.09,0,0,0,.08-.15s0-.06,0-.1l.09-.25a.12.12,0,0,0,0-.1l-.25-.24a.1.1,0,0,0-.09,0l-.2.08a.09.09,0,0,0-.05.11l.15.54s0,0,.06.06m-1.11,9.36-.3-.14a.09.09,0,0,0-.11.13h0a0,0,0,0,1,0,0l0,.31a.09.09,0,0,0,0,.06l.14.13a.09.09,0,0,0,.12,0l0,0,.05,0h0a.1.1,0,0,0,0-.16s0,0,0-.05l0-.18a.19.19,0,0,0-.07-.08m8.11-21.89-.14-.06a0,0,0,0,0,0,0l-.13,0h0l-.13,0,0,.28a.09.09,0,0,0,.06.07l.43.08a.07.07,0,0,0,.08-.1l-.07-.21s0,0,0,0m-2.38,6.43v-.09a.06.06,0,0,0-.1-.06l-.08.06a.07.07,0,0,0,0,.06V74a.06.06,0,0,0,.11,0l.07-.08a.08.08,0,0,0,0,0m1.39-6.21.08-.06a.08.08,0,0,0,0-.1l-.26-.38,0,0-.06,0a.07.07,0,0,0-.1.07v.28a.07.07,0,0,0,0,.06l.25.19a.06.06,0,0,0,.07,0m1-.59v.14a.05.05,0,0,0,0,0l.25.23,0,0,.15.31a.07.07,0,0,0,.07,0l.33,0a.08.08,0,0,0,.07-.08v0a.08.08,0,0,1,0-.08l.23-.07h0l.43.07.06,0,.24-.28a.08.08,0,0,0,0-.12l-1-.29a.06.06,0,0,0-.08,0l0,.09a.07.07,0,0,1-.13,0l-.09-.28a.08.08,0,0,0-.07,0H45a.07.07,0,0,0-.07.07V67a.07.07,0,0,1-.09.07l0,0a.07.07,0,0,0-.09.07m-3.17,3,.13,0a.07.07,0,0,0,.07-.11l-.06-.08a.06.06,0,0,0-.09,0l-.07,0a.07.07,0,0,0,0,.12m.6-1.86H42l0,0a.08.08,0,0,0,0,.13l.13,0a.07.07,0,0,0,.09,0l0-.08a.08.08,0,0,0-.07-.1m1-.67h0a.09.09,0,0,0,0,.09l.06.17s0,0,.09,0l.1,0a.07.07,0,0,0,0-.12l-.15-.14a.06.06,0,0,0-.09,0m0,.31-.05-.08a.07.07,0,0,0-.11,0l-.08.09,0,0-.22.06,0,0-.11.19a.09.09,0,0,0,0,.07l0,.1a.07.07,0,0,0,.12,0l.12-.17a.05.05,0,0,1,0,0l.16,0s0,0,0,0l.1-.13a.14.14,0,0,0,0-.09" fill="url(#linear-gradient-9)"/><path d="M7.31,96.53a2.19,2.19,0,0,1,.54-1.59,1.63,1.63,0,0,1,1.22-.48,1.56,1.56,0,0,1,1.19.54,1.81,1.81,0,0,1,.49,1.27,3.68,3.68,0,0,1-.32,1.53,11.28,11.28,0,0,1-.81,1.32c-.12.17-.29.44-.52.8l-.19.3c-.12.19-.22.35-.28.46a.79.79,0,0,0-.05.1h2.08v1.08H7.29v-1a2.45,2.45,0,0,1,.24-.4l.24-.38L8,99.65l.76-1.1a7.31,7.31,0,0,0,.73-1.29,2.51,2.51,0,0,0,.2-1,.87.87,0,0,0-.18-.56.62.62,0,0,0-.5-.24c-.3,0-.5.18-.63.53a1.25,1.25,0,0,0-.06.42v.28h-1Z" fill="#98999b"/><path d="M14.6,100.21a1.7,1.7,0,0,1-.49,1.24,1.64,1.64,0,0,1-2.38,0,1.7,1.7,0,0,1-.49-1.23v-4A1.7,1.7,0,0,1,11.73,95a1.6,1.6,0,0,1,1.19-.51,1.57,1.57,0,0,1,1.19.51,1.7,1.7,0,0,1,.49,1.23Zm-1.1-4a.64.64,0,0,0-.18-.45.59.59,0,0,0-.43-.19.56.56,0,0,0-.43.19.61.61,0,0,0-.18.45v4a.64.64,0,0,0,.18.45.59.59,0,0,0,.43.19.56.56,0,0,0,.43-.19.61.61,0,0,0,.18-.45Z" fill="#98999b"/><path d="M15.06,96.53a2.19,2.19,0,0,1,.54-1.59,1.63,1.63,0,0,1,1.22-.48A1.56,1.56,0,0,1,18,95a1.81,1.81,0,0,1,.49,1.27,3.68,3.68,0,0,1-.32,1.53,11.28,11.28,0,0,1-.81,1.32c-.12.17-.29.44-.52.8l-.19.3c-.12.19-.22.35-.28.46a.79.79,0,0,0-.05.1h2.08v1.08H15v-1a2.45,2.45,0,0,1,.24-.4l.24-.38.27-.42.76-1.1a7.31,7.31,0,0,0,.73-1.29,2.51,2.51,0,0,0,.2-1,.87.87,0,0,0-.18-.56.62.62,0,0,0-.5-.24c-.3,0-.5.18-.63.53a1.25,1.25,0,0,0-.06.42v.28h-1Z" fill="#98999b"/><path d="M22.35,100.21a1.7,1.7,0,0,1-.49,1.24,1.64,1.64,0,0,1-2.38,0,1.7,1.7,0,0,1-.49-1.23v-4A1.7,1.7,0,0,1,19.48,95a1.6,1.6,0,0,1,1.19-.51,1.57,1.57,0,0,1,1.19.51,1.7,1.7,0,0,1,.49,1.23Zm-1.11-4a.64.64,0,0,0-.18-.45.59.59,0,0,0-.43-.19.56.56,0,0,0-.43.19.61.61,0,0,0-.18.45v4a.64.64,0,0,0,.18.45.59.59,0,0,0,.43.19.56.56,0,0,0,.43-.19.61.61,0,0,0,.18-.45Z" fill="#98999b"/></g><path d="M84.69,93.53H80.35L79.69,92l-1.47-2.24L76.43,92.2l-.63,1.33H72.13l4-6.17-4-6.62h4.37l.68,1.56,1.42,2.17,1.57-2.37.58-1.36h3.79l-3.76,6Z" fill="#50504f"/><path d="M89,93.53,85.27,80.74h3.67l.36,2.06,1.81,7.33h.22L93.5,83l.36-2.29h3.55L93.33,93.53Z" fill="#50504f"/><path d="M102.81,93.53H99.19l.17-3.75-.17-9h3.69l-.22,8.66Z" fill="#50504f"/><path d="M109.79,93.53h-3.62l.17-3.75-.17-9h3.69l-.22,8.66Z" fill="#50504f"/><path d="M116.76,93.53h-3.62l.17-3.75-.17-9h3.69l-.22,8.66Z" fill="#50504f"/><path d="M81.55,97.63,81,100.9l-.53.13a5.65,5.65,0,0,0-2.94-1.23c-.7,0-1.06.38-1.06.83,0,1.66,5.33,1.28,5.33,5.31,0,2.14-1.5,4.31-5.16,4.31a12,12,0,0,1-4.1-.76l.51-3.4.36-.28a6.29,6.29,0,0,0,3.69,1.71c.7,0,1.13-.38,1.13-.88,0-1.66-5.36-1.31-5.36-5.39C72.89,98.86,74.77,97,78,97A10.64,10.64,0,0,1,81.55,97.63Z" fill="#50504f"/><path d="M90.36,110H86.74l.17-3.4,0-.53L82.74,97.2h3.81l.31,1,1.71,4h.19l1.95-3.85.43-1.18h3.72L90.23,106l0,.63Z" fill="#50504f"/><path d="M106.87,110l-.1-3.88-.31-3.35h-.19l-2.32,6h-2.77l-2-6H99l-.31,3L98.43,110H95.34L96.59,97.2h4.3L101.3,99l1.35,4.76h.24l1.47-4.66.51-1.94H109L110.13,110Z" fill="#50504f"/><path d="M118.45,97.18c2.85,0,4.44,1.46,4.44,4,0,3-2.27,5.06-5.67,5.06h-1.09l.12,3.7h-3.62l.17-3.75-.17-9Zm-.68,6.44a1.93,1.93,0,0,0,1.3-2c0-1.21-.6-1.69-1.88-1.76l-.94.08-.1,3.63Z" fill="#50504f"/><path d="M136.21,103.27c0,4.43-2.32,7-6.4,7-3.74,0-5.86-2.34-5.86-6.45,0-4.33,2.32-6.82,6.4-6.82C134.09,97,136.21,99.27,136.21,103.27Zm-8.47,0c0,3.25.6,4.08,2.39,4.08s2.29-.71,2.29-3.3c0-3.2-.58-4.08-2.41-4.08S127.74,100.73,127.74,103.3Z" fill="#50504f"/><path d="M146.64,97.63l-.53,3.27-.53.13a5.65,5.65,0,0,0-2.94-1.23c-.7,0-1.06.38-1.06.83,0,1.66,5.33,1.28,5.33,5.31,0,2.14-1.5,4.31-5.16,4.31a12,12,0,0,1-4.1-.76l.51-3.4.36-.28a6.29,6.29,0,0,0,3.69,1.71c.7,0,1.13-.38,1.13-.88,0-1.66-5.36-1.31-5.36-5.39,0-2.39,1.88-4.28,5.14-4.28A10.74,10.74,0,0,1,146.64,97.63Z" fill="#50504f"/><path d="M153,110h-3.62l.17-3.75-.17-9h3.69l-.22,8.66Z" fill="#50504f"/><path d="M167,105.71c0,2.9-2,4.51-5.57,4.51s-5.33-1.61-5.26-4.51l0-2-.1-6.47h3.62l-.17,8c0,1.41.6,2,2,2s2-.6,2-2l-.17-8h3.69l-.12,6.5Z" fill="#50504f"/><path d="M180.76,110l-.1-3.88-.31-3.35h-.19l-2.32,6h-2.77l-2-6h-.24l-.31,3-.22,4.23h-3.09l1.25-12.79h4.3l.41,1.84,1.35,4.76h.24l1.47-4.66.51-1.94h4.17L184,110Z" fill="#50504f"/><path d="M14.4,168.08l-.35-.78a.51.51,0,0,1,0-.36,1.07,1.07,0,0,1-.07-.19h-.14c.2.45.4.89.59,1.33Z" fill="url(#linear-gradient-10)"/><path d="M58.83,158.52A31.22,31.22,0,0,0,50,139.13a27.87,27.87,0,0,0-17.35-8.29,26.79,26.79,0,0,1,4.79.67,27.78,27.78,0,0,1,14.92,9.21,1,1,0,0,0,.74.42.49.49,0,0,0,.45-.25.79.79,0,0,0-.12-.79l0,0h0l-.13-.15-.07-.09h0a28.15,28.15,0,0,0-16.79-11.68,27.17,27.17,0,0,0-6.25-.72,28.39,28.39,0,0,0-14.42,3.92A30.48,30.48,0,0,0,2.55,148,31.46,31.46,0,0,0,3,169a29.1,29.1,0,0,0,13.05,15.08,27.22,27.22,0,0,0,9.12,3.09,25.78,25.78,0,0,0,3.64.25,28.26,28.26,0,0,0,5.76-.61l.82-.19a28.17,28.17,0,0,0,5.91-1.85,28,28,0,0,0,12.59-11.49.87.87,0,0,0,.11-.85.52.52,0,0,0-.55-.27c.29-.59.55-1.19.79-1.79A27.43,27.43,0,0,0,56.23,160v-.16h0a.79.79,0,0,0-.21-.52.52.52,0,0,0-.38-.17c-.28,0-.61.25-.64.81,0,.29,0,.58,0,.86,0,.45,0,.91-.09,1.35l-.31,2.19-.5,2.16a11.34,11.34,0,0,1-.4,1.29c-.09.27-.19.54-.27.81a27.21,27.21,0,0,1-4.25,7.68,26.21,26.21,0,0,1-6.49,5.93A25.79,25.79,0,0,1,39,184.12a24.23,24.23,0,0,1-8.57,1.7,27.94,27.94,0,0,1-5.41-.61l-2-.51L21.09,184a5,5,0,0,1-.92-.4l-.92-.45-.34-.17-.57-.28-.87-.54a25.18,25.18,0,0,1-6.29-5.33,29,29,0,0,1-4.45-7.11,29.82,29.82,0,0,1-2.07-8.25L4.5,159.3l0-2.18a9,9,0,0,1,.12-1.47c0-.22.06-.45.08-.67l.13-1.08c0-.22.08-.45.13-.67s.06-.25.08-.37.12-.51.17-.77a13.08,13.08,0,0,1,.33-1.34l.66-2.06.17-.41a26.18,26.18,0,0,1,1.67-3.51c.27-.48.56-1,.85-1.41a26.54,26.54,0,0,1,3.86-4.46,26.06,26.06,0,0,1,8.61-5.3A25.41,25.41,0,0,1,31.25,132a26.57,26.57,0,0,1,17.89,8,30,30,0,0,1,8.45,18.54c.07.59.41.86.7.86a.5.5,0,0,0,.37-.17A.91.91,0,0,0,58.83,158.52ZM28.74,129.69A26.82,26.82,0,0,0,20.07,132a29.6,29.6,0,0,0-7.46,5A28.16,28.16,0,0,0,8,142.63a28.27,28.27,0,0,0-2.3,4A28.66,28.66,0,0,0,3,157.22a30,30,0,0,0,1.59,11.24,28.8,28.8,0,0,0,5.63,9.63l.13.15c-.34-.34-.67-.69-1-1.06a27.84,27.84,0,0,1-5.13-8.39,30.6,30.6,0,0,1-2.08-9.92,29.61,29.61,0,0,1,14-26.27,27.34,27.34,0,0,1,14.07-3.93,25,25,0,0,1,5.68.64,26.25,26.25,0,0,1,7,2.67,25.72,25.72,0,0,0-5.15-1.71A26.23,26.23,0,0,0,28.74,129.69Z" fill="url(#linear-gradient-11)"/><g clip-path="url(#clip-path-3)"><rect x="15.6" y="136.77" width="2.79" height="8.05" fill="#283473"/><rect x="21.66" y="136.77" width="2.98" height="8.05" fill="#283473"/><polygon points="31.88 144.78 35.78 136.76 32.73 136.76 29.27 143.75 29.27 136.76 26.41 136.76 26.41 144.81 31.89 144.81 31.88 144.78" fill="#283473"/><polygon points="26.97 164.65 27.55 167.22 30.07 167.22 28.2 157.32 24.12 157.32 24.12 167.22 26.97 167.22 26.97 164.65" fill="#d01d36"/><polygon points="34.49 164.62 34.49 167.22 37.34 167.22 37.34 157.32 33.41 157.32 31.61 167.22 33.97 167.22 34.49 164.62" fill="#d01d36"/><polygon points="48.5 157.32 45.34 157.32 43.25 163.37 41.14 157.32 37.99 157.32 41.64 167.22 44.85 167.22 48.5 157.32" fill="#d01d36"/><polygon points="29.73 176.94 32.02 176.94 33.97 167.22 31.61 167.22 30.86 171.38 30.07 167.22 27.55 167.22 29.73 176.94" fill="#1d8541"/><rect x="34.49" y="167.22" width="2.85" height="9.72" fill="#1d8541"/><rect x="24.12" y="167.22" width="2.85" height="9.72" fill="#1d8541"/><polygon points="41.05 176.94 43.25 170.69 45.44 176.94 48.5 176.94 44.85 167.22 41.64 167.22 37.99 176.94 41.05 176.94" fill="#1d8541"/><path d="M32.4,186.32c.12,0,1.35.15,1.47-.17s-.92-1-.8-1.1.17-.86.35-.86,1.92.05,2,0,.43-.69.71-.71.33.15.51.33a2.8,2.8,0,0,0,.49-1.55c.07-.69-.15-.91.2-1.3s.71-.41.61-.94-.56,0-1-.25-.73-.08-1.74.08-1.47.58-1.42,1.32-.34.41-.32,1-.78.66-.73,1-.64,0-.83-.13a15.38,15.38,0,0,0-2.6.58c-.29.05-.83-.63-1.25-.61s-.59-.64-.64-1.17-.83-1-1.18-1.5a5.09,5.09,0,0,1-.42-2.24,8.27,8.27,0,0,1,.37-3.2,2,2,0,0,0,.1-.48.84.84,0,0,0-.46-.18c-.42,0-1.36-.57-1.54-.57s-.16-.46-.31-.71-.05-.71-.26-.87a3.4,3.4,0,0,1-1.05-1.55c-.21-.76-1.49-1.14-2-1.17s-.73,1-.86,1.06a6.5,6.5,0,0,1-1.28-.68.79.79,0,0,1-.39-.73c0-.33-.55-.84-.71-.9A13.6,13.6,0,0,1,16.25,167H14.52l-.37.49-3.14,0s-2.41-.92-2.85-1a5.14,5.14,0,0,1-1.23-.68l-2.54.35a4.66,4.66,0,0,0,.58.95,5.93,5.93,0,0,1,.93,2.24c0,.41.76.74,1.37,1.14A1.56,1.56,0,0,1,7.81,172c-.07.23-.83-.15-.88.08s1,1.12,1.37,1.07.59.2,1.2.76.56,1.22.32,1.42.49.64,1.27,1.17A2.93,2.93,0,0,1,12.27,178c.07.28.42,0,.54-.36s-.25-.48-.25-.91-.64-.36-.93-.41,0-.71-.27-1a4.64,4.64,0,0,1-.71-1.63c-.15-.56-.91-1.12-1.22-1.73a4.24,4.24,0,0,0-.88-1.25c-.22-.15.32-.38.12-.61s-.49-.2-.86-.38a1,1,0,0,1-.61-.89,7.54,7.54,0,0,0-.37-1.7c-.12-.33.27-.28.39-.13s.22.3.39.2a.44.44,0,0,1,.59.25c.12.28.54,0,.73.15s-.44.28.2,1.45.2.51.2,1.3.39.43.51.3.47.25.78.66.93.43.93.66a.74.74,0,0,0,.54.76c.42.08.49.56.76.61s.32.36.17.69,0,.61.69.89.37.33.91.86A32.92,32.92,0,0,1,17,178.51a4.61,4.61,0,0,1,.54,1.24c.12.36-.25.53-.05.84s-.37.18-.34.41.34,1.37.88,1.42,1.15.74,1.59,1.12,1.1.3,1.76.56a17.83,17.83,0,0,0,2.18,1.14,9.56,9.56,0,0,1,2.5,1.12,2.33,2.33,0,0,0,2.23-.13,2.35,2.35,0,0,1,2,.3,6.6,6.6,0,0,1,1.19,1c.44-.57.86-1.15.91-1.17" fill="url(#linear-gradient-12)"/><path d="M24.59,176.93c.44.84.92,1.65,1.38,2.47a11,11,0,0,1-.09-1.21,8.27,8.27,0,0,1,.37-3.2,2,2,0,0,0,.1-.48.87.87,0,0,0-.46-.18c-.42,0-1.36-.57-1.54-.57s-.09,0-.12-.12a9.83,9.83,0,0,0-.21,1.87c.19.44.36.88.52,1.33A.41.41,0,0,0,24.59,176.93Z" fill="url(#linear-gradient-13)"/><path d="M16.91,155.27a4.25,4.25,0,0,0,3.19,1.36,4.34,4.34,0,0,0,3.2-1.34A4.56,4.56,0,0,0,24.63,152v-7.16h-3v7.12a1.67,1.67,0,0,1-.47,1.19,1.53,1.53,0,0,1-1.16.49,1.56,1.56,0,0,1-1.16-.49,1.65,1.65,0,0,1-.48-1.19v-7.13H15.59V152A4.58,4.58,0,0,0,16.91,155.27Z" fill="#d01d36"/><polygon points="29.27 156.38 29.27 150.19 30.11 148.44 33.09 156.38 36.45 156.38 31.89 144.81 26.42 144.81 26.42 156.38 29.27 156.38" fill="#d01d36"/><path d="M43.47,133.32l-.09-.1a.07.07,0,0,0-.1,0l-.08.08Zm-2.6,2.28.3-.47a.08.08,0,0,0,0-.1l-.48-.28a.08.08,0,0,0-.08,0l-.26.24a.07.07,0,0,0,0,.12l.2.07a.07.07,0,0,1,0,.12l-.1.07a.07.07,0,0,0,0,.12l.31.12a.09.09,0,0,0,.09,0m4-4-.11-.06a.06.06,0,0,0-.08,0l-.17.19a.07.07,0,0,1-.12,0l0-.27a.07.07,0,0,0-.12,0l-.06.06a.07.07,0,0,1-.12,0,.09.09,0,0,0-.06-.06h-.07s-.08,0-.08.08l0,.4.13-.09v.14a.08.08,0,0,1,0,.08h0a.08.08,0,0,0,0,.05l-.14.47a.06.06,0,0,0,0,.07l.26.26a.11.11,0,0,1,0,.16l-.11.12a.12.12,0,0,0,0,.17h0a.06.06,0,0,0,.07,0l.29-.11h0l.24.09s.06,0,.05,0l0-.11s0,0,0,0L44.4,133a.09.09,0,0,1,0-.05l-.11-.41a.07.07,0,0,1,0-.08l.47-.36s0,0,0-.06l.08-.31a.08.08,0,0,0,0-.09m-1.94,2.88-.12-.19a.06.06,0,0,1,0,0l0-.45a.08.08,0,0,0,0-.07l-.28-.08a.07.07,0,0,0-.08.09l.1.35a.06.06,0,0,1-.09.08l-.12-.06a.07.07,0,0,0-.09.05.07.07,0,0,1-.08.05h0a.07.07,0,0,0-.06.12l.34.27a.06.06,0,0,1,0,.09l0,0,.39.11a.07.07,0,0,0,.08,0l.11-.25a.08.08,0,0,0,0-.07m.39-1.8-.06.17a.08.08,0,0,0,.05.1h0a.08.08,0,0,0,.08-.05l.05-.13a.08.08,0,0,0,0-.08l0,0a.05.05,0,0,0-.1,0m-1.77,2.83.41-.11a.07.07,0,0,0,0-.13l-.6-.1a.07.07,0,0,0-.07,0l-.1.21a.07.07,0,0,0,.06.1h.31m.51-2.41.15.08a.29.29,0,0,0,.24,0l.17-.07Zm-.42,1.49-.38.15.22,0a.07.07,0,0,0,.06,0Zm12.85.09a.07.07,0,0,0-.08-.07l-.29.05.28.08a.06.06,0,0,0,.09-.06m1.41-.88.29-.27s0,0,0-.06v0a.06.06,0,0,0-.1-.05l-.11.07h0l-.21,0a.07.07,0,0,0-.06.07v.19a.07.07,0,0,0,.06.07h.1l.06,0m.71-.31h0a.08.08,0,0,0-.07.05v0a.07.07,0,0,0,.09.09l.05,0a.07.07,0,0,0,0-.13m-5.86.06,0-.17s0,0,0-.06l-.05,0a.06.06,0,0,0-.1,0l-.06.23a.06.06,0,0,0,.07.08l.07,0a0,0,0,0,0,0,0m.37-.39-.16.17a.07.07,0,0,0,0,.09l.24.23s0,0,0,0l0,.14a.06.06,0,0,0,.1,0l.1-.09a.06.06,0,0,0,0-.09l-.29-.3h.16a.06.06,0,0,0,.06-.06v-.26s0,0,0,0l-.16-.17a.06.06,0,0,0-.08,0l-.2.18a.05.05,0,0,0,0,0v.08a.06.06,0,0,0,.08.07Zm4.35.11-.14-.1a.08.08,0,0,0-.07,0l-.14.06a.07.07,0,0,0,0,.08,2.25,2.25,0,0,0,.05.22.07.07,0,0,0,.11,0l.23-.17s0-.1,0-.12m-3.81-.14h0a.06.06,0,0,0-.1,0c0,.05,0,.09.09.06a.06.06,0,0,0,0-.1m-13.08,5.58-.06-.09a.11.11,0,0,1,0-.15l.16-.06a.09.09,0,0,0,.06-.06l0-.08a.1.1,0,0,1,.15,0l0,0a.11.11,0,0,1,0,.12l-.07.13c0,.05,0,.11.08.06l.2-.24a.11.11,0,0,0,0-.13l-.14-.18a.1.1,0,0,1,.1-.16.1.1,0,0,0,.12-.08l.18-.93s0,0,0-.05l.19-.22a.1.1,0,0,0,0-.09l-.08-.29v0l-.36-.52a.1.1,0,0,0,0,0l-.41-.15,0,0-.14-.14-.06,0h-.13l0,0-.28-.24,0,0-.25,0h0l-.25-.11a.09.09,0,0,0-.07,0l-.26.1a.1.1,0,0,1-.1,0l-.25-.23a.08.08,0,0,0-.08,0l-.86.2a.09.09,0,0,0-.07.1l0,1.12a.09.09,0,0,0,0,.08l.17.14a.09.09,0,0,0,.1,0l.41-.22h.07l.21.06a.1.1,0,0,1,.07.07l.17.61s0,0,0,.06l-.27.76a.1.1,0,0,0,0,.09L37,138s0,0,0,0l.08.53v0l0,.06.11-.12a.09.09,0,0,1,.15,0v0a.15.15,0,0,0,.06,0l.32.07a.08.08,0,0,0,.07,0l.12-.08a.09.09,0,0,1,.13,0l.18.29a.1.1,0,0,0,.13,0l.13-.08a.11.11,0,0,0,0-.14m2.35,15.38h0l-.15-.07.08.29h0l.16.12a0,0,0,0,0,0,0v-.16h0Zm.55-17.41-.33.44.15.44.35-.16s0,0,0,0l.19-.52a.08.08,0,0,0,0-.09l-.29-.09a0,0,0,0,0-.06,0m2.91,16.41.27-.36a.14.14,0,0,0,0-.06l-.08-.88a.05.05,0,0,0,0,0l-.62-.81h0l-.38-.43a.08.08,0,0,0-.1,0l-.29.2h0l-.18,0c-.05,0-.09,0-.09-.09l0-.37a.06.06,0,0,0,0,0l-.11-.21a.08.08,0,0,1,.08-.12l.67.08a.07.07,0,0,0,.06,0l.22-.2a.05.05,0,0,0,0,0L44,149a.42.42,0,0,0,0-.29.16.16,0,0,1,0-.09l-.09-.39a.33.33,0,0,1,0-.14l0-.08a.3.3,0,0,0-.09-.3l0,0h0l-.06,0a.4.4,0,0,1-.1-.12l-.07-.16a.25.25,0,0,0,0-.07l-.08-.09.19.15a.39.39,0,0,1,.08.1l0,.07a.22.22,0,0,0,.07.09l.15.12a.3.3,0,0,1,.09.13l0,.09a.43.43,0,0,1,0,.11v0a.28.28,0,0,0,.1.23l0,0a.16.16,0,0,1,.06.08l.08.15.11-.91,0-.22a.28.28,0,0,1,.24-.24.25.25,0,0,1,.17,0l.07,0-.06-.25a.38.38,0,0,1,0-.15l0-.12a.07.07,0,0,0,0-.06l0,0a.07.07,0,0,1,0-.06l.18-.57a.24.24,0,0,0,0-.12l-.13-.49s0,0,0-.05l-.29-.52a.21.21,0,0,1,0-.25h0a.19.19,0,0,0,0-.19.25.25,0,0,1,0-.15l.33-.57,0-.07.11-.4a.16.16,0,0,1,.05-.09l.54-.71s0,0,0,0l.08-.35a.09.09,0,0,0,0,0l-.1-.11a0,0,0,0,1,0-.05l.2-1a.06.06,0,0,0,0,0l-.13-.31a.17.17,0,0,1,0-.1l0-.29a.43.43,0,0,0,0-.05l-.14-.36a.16.16,0,0,0-.13-.11l-.12,0s0,0,0,0l-.3-.1a.25.25,0,0,1-.14-.13l-.17-.38a.16.16,0,0,0-.06-.08l-.11-.1a.22.22,0,0,1-.05-.08l-.14-.3a.23.23,0,0,1,0-.14l.06-.17.07.24,0,.06.26.36a.1.1,0,0,0,0,0l.26.18a.16.16,0,0,0,.15,0l.12,0a.17.17,0,0,1,.19.06l.15.2a.18.18,0,0,0,.09.06l.08,0a.17.17,0,0,0,.21-.23.17.17,0,0,1,0-.18l0,0a.18.18,0,0,0,0-.14v0a.23.23,0,0,0-.1-.15l-.33-.15a.18.18,0,0,1-.1-.19h0l.43.12a.15.15,0,0,1,.09.06l.23.31a.21.21,0,0,0,.11.07l.24,0a.17.17,0,0,0,.12,0l.06,0a.17.17,0,0,1,.14,0l.11,0h.09l.52-.11h0l.21,0a.15.15,0,0,0,.12-.07l0,0a.21.21,0,0,1,.1-.06l.27-.05a.12.12,0,0,0,.09-.08h0a.14.14,0,0,1,.07-.08l.4-.14h.06l.35.07a.1.1,0,0,0,.1,0l.15-.13a.11.11,0,0,0,0-.09v-.54a.11.11,0,0,0-.09-.11s0,0-.06,0l-.56-.63,0,0-.22-.37a.28.28,0,0,0-.16-.12.3.3,0,0,1-.13-.09L48.4,136l0-.07-.1-.25a.22.22,0,0,0,0-.08l-.09-.1a.08.08,0,0,0-.09,0h0a.08.08,0,0,1-.08,0l-.23-.16,0,0-.31-.14-.06-.05,0,0a.15.15,0,0,0-.09-.06l-.24-.06v-.11l.44,0h0l.57-.07-.16-.07a.25.25,0,0,1-.13-.14l0-.05a.08.08,0,0,1,.1-.11h.06l.16-.08h0l1,.27h0l.41-.06h.05l.21.13a.09.09,0,0,0,.07,0l.26-.1a.08.08,0,0,0,0-.07v-.09a.08.08,0,0,1,.07-.08l.2,0a.05.05,0,0,0,0,0,.14.14,0,0,0,0-.19l-.14-.2a.12.12,0,0,0-.09,0H50s0,0-.07-.05l-.08-.18s0,0-.06-.07l-.36-.18-.23-.33-.3-.17-.13-.14-.25,0,.17-.09-.06-.19-.45-.08.26-.09-.17-.53-.21.1a.17.17,0,0,1-.1,0h0a.17.17,0,0,0-.16.06l-.1.13-.07-.08-.14.14a.15.15,0,0,1-.2,0h0a.15.15,0,0,0-.24.08h0a.15.15,0,0,1-.11.11l-.12,0a.14.14,0,0,1-.14,0l-.06-.07,0,.54a.07.07,0,0,1,0,.05l-.08.25-.11-.38a.15.15,0,0,0-.12-.11.15.15,0,0,1-.12-.13l0-.27-.11.07s0,0,0,0l-.07.16,0,0h-.09s-.05,0,0,0l.07-.2a0,0,0,0,0,0,0l-.25.06s0,0,0,0l0,.18a0,0,0,0,1,0,0h-.14s.34.17.34.19l-.4.18a0,0,0,0,0,0,0l.15.19-.25-.17a0,0,0,0,1,0,0l-.06-.24a0,0,0,0,0-.07,0l-.23.28h0l-.08.06s0,.05,0,.06l.39.35-.34-.17h0l-.07,0,0,.12s0,0,0,0l.3.18h-.12l0,.22-.09-.25,0,0-.08,0h0l-.17.06s0,0,0,0l0,.14-.15-.13h0l-.16,0s0,0,0,.06l.07.17s0,0,0,0l-.08.13-.14-.36a0,0,0,0,0-.05,0l-.12.05a.11.11,0,0,0-.06.12.1.1,0,0,1-.08.12h-.1l-.17,0,0,0-.22-.26,0,0H43a.07.07,0,0,0-.07.08v.06s0,0,0,0l.21.22s0,0,0,0l.09.21h-.07l-.06,0,0,0a.07.07,0,0,0-.12.05v.24a.05.05,0,0,0,0,.06l0,0a.08.08,0,0,1,0,.06v.14s0,.07.06.07l1.14.14-.22,0A.07.07,0,0,0,44,135l0,.09-.21-.13h0l-.45.13s0,0,0,0l0,.06,0,0-.45.08a.07.07,0,0,0,0,.08h0a.07.07,0,0,1,0,.08l-.51.18,0,0-.21.26,0,0h-.19a.06.06,0,0,0-.06.05l0,.13a.07.07,0,0,0,0,.08l.11,0-.47.05h0l-.44.34-.29,0,0,0a.11.11,0,0,0,0,.13l.17.2a.09.09,0,0,0,.15,0l.11-.15.44-.13,0,0,.15-.16,0,0h.3a.09.09,0,0,0,.06,0l.3-.48a.06.06,0,0,1,.1,0l0,0,0,0,.79,0-.69.05h0l-.29.21a.07.07,0,0,0,0,.06v0a.06.06,0,0,0,.1.05l.1-.06h0l.22.05a.07.07,0,0,1,0,.1l-.07.12c0,.05,0,.12.07.1l.32-.09,0,0,.16-.2a.08.08,0,0,1,.08,0h0a.07.07,0,0,1,0,.12l-.22.14a.08.08,0,0,0,0,.07l.06.53-.16-.32a.07.07,0,0,0-.09,0l-.42.21s0,0,0,0l-.2.29s0,.05,0,.07l.1.19-.16.34-.49,0-.86.29,0,0-.11.15a.08.08,0,0,1-.14,0v0a.08.08,0,0,0-.14,0l-.17.17,0,0-.05.28a.08.08,0,0,0,.15.06l0,0a.07.07,0,0,1,.11,0l.16.11a.07.07,0,0,1,0,.06l.1.76a.08.08,0,0,0,.13.06l.14-.12a.09.09,0,0,0,0-.07v-.18a.08.08,0,0,1,.13-.07.05.05,0,0,1,0,.05l.13.66a.05.05,0,0,0,0,.05l.31.28.08-.07a0,0,0,0,1,.07,0l.18.22a.11.11,0,0,0,.11,0l.2-.08a.09.09,0,0,1,.11,0l.19.25a.1.1,0,0,1-.13.14h0l-1.06.4a.12.12,0,0,0-.07.07l-.26.86a.11.11,0,0,0,.06.14h0a.11.11,0,0,1,0,.19.11.11,0,0,0,.07.2h.18a.11.11,0,0,1,.09.05l.21.33-.46.2,0,.16-.43-.11a.15.15,0,0,0-.14.05l-.23.35a.16.16,0,0,1-.08.06L40,144a.13.13,0,0,0-.1.11l0,.32v.38a.14.14,0,0,0,0,.07l.13.19-.17,0-.06,0-.13-.14a.13.13,0,0,1,0-.12l.05-.25a.14.14,0,0,0-.06-.14.13.13,0,0,0-.19.08l-.05.17a.06.06,0,0,0,0,.06l0,.22-.16-.28a.19.19,0,0,1,0-.07v-.29a.09.09,0,0,0,0-.08l-.56-.38,0,0-.15-.24s0,0,0,0l-.67-.33h0l-.57,0h0l-.54-.2h-.17a.08.08,0,0,0,0,.15l.08.07,0,0,0,.06a.08.08,0,0,0,.11,0l0,0a.08.08,0,0,1,.08,0l.47.35a.09.09,0,0,1,0,.15l-.16.1a.08.08,0,0,0,0,.07v.21a.08.08,0,0,1-.11.08h-.11a.08.08,0,0,0-.1.06l-.06.19a.09.09,0,0,0,0,.07v0a.09.09,0,0,1-.06.13l-.83.16-.31-.2-.4-.11-.12-.13-.47-.18,0,0-.19-.22,0,0-.35-.12a.08.08,0,0,0-.09.12l.08.12a.08.08,0,0,1,0,.1l-.11.11a.08.08,0,0,1-.09,0h0a.08.08,0,0,0-.1.11l.14.24H33.6a.08.08,0,0,0-.08.1l0,.09s0,0,0,0l.22.16h0l.35.14h0l.43.28a.08.08,0,0,1,0,.12l-.07.09a.09.09,0,0,0,0,.09l0,.07c0,.07,0,.15-.11.1a.06.06,0,0,0-.08,0l0,0a.08.08,0,0,0,0,.12l.33.42,0,0a.08.08,0,0,1,.1,0l.18.13a.09.09,0,0,1,0,.07l0,.42,0,.43.44.51a.11.11,0,0,0,.08,0l.2,0a.12.12,0,0,1,.1,0l.27.15h0l.39.24h0l.24,0h0l.36.18-.76,0h0l-.64-.1a.1.1,0,0,0-.07,0l-.32.27a.09.09,0,0,1-.12,0l-.16-.2s0,0,0,0l-.21-.13a.09.09,0,0,1,0-.06l-.08-.31s0,0,0,0l-.53-.77-.54-.41-.22.21-.33,0s0,0-.05,0l-.17-.2a.07.07,0,0,0-.1,0l-.47.35a.07.07,0,0,1-.06,0l-.45-.08h0l-.15,0a.1.1,0,0,1-.07,0l-.26-.23a.06.06,0,0,0-.08,0l-.26.13a.07.07,0,0,1-.09,0l-.05-.06a.08.08,0,0,0-.08,0l-.16.05h0l-.54-.16a.08.08,0,0,1-.05-.05l-.07-.17a.12.12,0,0,0-.05-.05l-.33-.1a.06.06,0,0,0-.07,0l-.14.12a.08.08,0,0,0,0,.11l.15.2a.07.07,0,0,0,.11,0l.08-.06a.08.08,0,0,1,.12,0l.17.34a.13.13,0,0,1,0,.06l-.07.25s0,.1.06.1l.15,0a.08.08,0,0,0,.09-.06l0-.07a.09.09,0,0,1,.07-.06h.19a.08.08,0,0,1,.08.09.08.08,0,0,0,.07.09l.24,0s0,0,.05,0l.07.08a.08.08,0,0,0,.08,0l.2-.06a.08.08,0,0,1,.09,0l.15.31,0,0,.27.14,0,0,.11.18s0,0,0,0l.11.05a.09.09,0,0,1,0,.09l0,.19a.08.08,0,0,0,0,.07l.11.11a.08.08,0,0,1,0,0l0,.33a.08.08,0,0,0,0,0l.15.17a.08.08,0,0,0,.12,0l0,0a.07.07,0,0,1,.1,0l.17.09a.06.06,0,0,0,.06,0l.15,0,0,0,.17-.23s0,0,.07,0l.23,0a.18.18,0,0,1,.09,0l.05,0a.17.17,0,0,0,.13,0h0a.17.17,0,0,1,.12,0l.57.44,0,0,.22.31s0,0,0,0l.07.51a.07.07,0,0,0,0,.06l.12.07,0,0,.31.39v0l.07.19a.09.09,0,0,0,.11.05l.2-.06h.06l.42.2a.08.08,0,0,1,0,0l.12.25,0,0,.44.15a.1.1,0,0,1,0,0l.14.25,0,0,.07.07.07,0,.12,0a.09.09,0,0,1,.06.13v0a.13.13,0,0,0,0,.06l.05.24a.11.11,0,0,0,.06.07l.26.08.09.06.43.5,0,0,.33.28,0,0,.18.4h0l.09.15s0,0,.07.05l.33.08,0,0,.24.2.05,0,.35.06a.09.09,0,0,1,.06,0l.12.13,0,0,0,0a.1.1,0,0,0,.17,0,.1.1,0,0,1,.11,0l.5.16h0l.24.2h0l.22-.17h0l.09-.2h0l.22-.07a0,0,0,0,0,0,0l-.37-.42h0l-.37-.22h0l-.18-.16h0l-.15-.39h0l-.06-.13.16,0h0l.08.08.07,0-.16-.32h0l-.27-.17.47.15h0l.16.23h0l.25.12a.11.11,0,0,0,.13,0l.06-.12a.07.07,0,0,0,0-.09.1.1,0,0,1,.09-.16h.05l.16,0a.09.09,0,0,1,.08.09v.11a.1.1,0,0,0,.07.09l.27.08h0l.2,0-.08-.14h0a.11.11,0,0,0,.07-.16l0,0a.08.08,0,0,1,.05-.13h.07s.07,0,.08,0l.06.13a.09.09,0,0,1,0,.07.08.08,0,0,0,.07.12h.29l.17.1a.08.08,0,0,0,.08,0l.42-.32h0l.5-.17a.08.08,0,0,0,0-.07l0-.22c-.06,0,0-.05,0-.06m-5.09-12.81-.31.13a.12.12,0,0,0,0,.19l.12.11.06,0,.6.07a.1.1,0,0,0,.11-.06l0-.11.05,0a.11.11,0,0,0,0-.21l-.56-.11h-.06m-1.55,2.63L38,143a.09.09,0,0,0,.08-.15s0-.06,0-.1l.09-.25a.12.12,0,0,0,0-.1l-.25-.24a.1.1,0,0,0-.09,0l-.2.08a.09.09,0,0,0-.05.11l.15.54a.06.06,0,0,0,.06.06m-1.11,9.36-.3-.14a.09.09,0,0,0-.11.13h0a0,0,0,0,1,0,0l0,.31a.09.09,0,0,0,0,.06l.14.13a.09.09,0,0,0,.12,0l0,0,.05,0h0a.1.1,0,0,0,0-.16s0,0,0-.05l0-.18a.19.19,0,0,0-.07-.08m8.11-21.89-.13-.07h-.05l-.13,0h0l-.13,0,0,.28a.09.09,0,0,0,.06.07l.43.08a.07.07,0,0,0,.08-.1l-.07-.21s0,0,0,0m-2.38,6.43v-.09a.06.06,0,0,0-.1-.06l-.08.06a.07.07,0,0,0,0,.06v.11a.06.06,0,0,0,.11,0l.07-.08,0,0m1.39-6.21.08-.06a.08.08,0,0,0,0-.1l-.26-.38,0,0-.06,0a.07.07,0,0,0-.1.07v.28a.07.07,0,0,0,0,.06l.25.19a.06.06,0,0,0,.07,0m1-.59v.14a.05.05,0,0,0,0,0l.25.23,0,0,.15.31a.07.07,0,0,0,.07,0l.33,0a.08.08,0,0,0,.07-.08v0a.08.08,0,0,1,0-.08l.23-.07h0l.43.07.06,0,.24-.28a.08.08,0,0,0,0-.12l-1-.29a.06.06,0,0,0-.08,0l0,.09a.07.07,0,0,1-.13,0l-.09-.28a.08.08,0,0,0-.07-.05H45a.07.07,0,0,0-.07.07v.18a.07.07,0,0,1-.09.07l0,0a.07.07,0,0,0-.09.07m-3.17,3,.13,0a.07.07,0,0,0,.07-.11l-.06-.08a.06.06,0,0,0-.09,0l-.07,0a.07.07,0,0,0,0,.12m.6-1.86H42l0,0a.08.08,0,0,0,0,.13l.13.05a.07.07,0,0,0,.09,0l0-.08a.08.08,0,0,0-.07-.1m1-.67h0a.09.09,0,0,0,0,.09l.06.17s0,0,.09,0l.1,0a.07.07,0,0,0,0-.12l-.15-.14a.06.06,0,0,0-.09,0m0,.31-.05-.08a.07.07,0,0,0-.11,0l-.08.09,0,0-.22.06,0,0-.11.19a.09.09,0,0,0,0,.07l0,.1a.07.07,0,0,0,.12,0l.12-.17a.05.05,0,0,1,0,0l.16,0s0,0,0,0l.1-.13a.14.14,0,0,0,0-.09" fill="url(#linear-gradient-14)"/><path d="M7.31,159.46a2.19,2.19,0,0,1,.54-1.59,1.63,1.63,0,0,1,1.22-.48,1.56,1.56,0,0,1,1.19.54,1.81,1.81,0,0,1,.49,1.27,3.68,3.68,0,0,1-.32,1.53,11.28,11.28,0,0,1-.81,1.32c-.12.17-.29.44-.52.8l-.19.3c-.12.19-.22.35-.28.46a.79.79,0,0,0-.05.1h2.08v1.08H7.29v-1a2.45,2.45,0,0,1,.24-.4l.24-.38.27-.42.76-1.1a7.31,7.31,0,0,0,.73-1.29,2.51,2.51,0,0,0,.2-1,.87.87,0,0,0-.18-.56.62.62,0,0,0-.5-.24c-.3,0-.5.18-.63.53a1.25,1.25,0,0,0-.06.42v.28h-1Z" fill="#020303"/><path d="M14.6,163.14a1.7,1.7,0,0,1-.49,1.24,1.64,1.64,0,0,1-2.38,0,1.7,1.7,0,0,1-.49-1.23v-4a1.7,1.7,0,0,1,.49-1.24,1.6,1.6,0,0,1,1.19-.51,1.57,1.57,0,0,1,1.19.51,1.7,1.7,0,0,1,.49,1.23Zm-1.1-4a.64.64,0,0,0-.18-.45.59.59,0,0,0-.43-.19.56.56,0,0,0-.43.19.61.61,0,0,0-.18.45v4a.64.64,0,0,0,.18.45.59.59,0,0,0,.43.19.56.56,0,0,0,.43-.19.61.61,0,0,0,.18-.45Z" fill="#020303"/><path d="M15.06,159.46a2.19,2.19,0,0,1,.54-1.59,1.63,1.63,0,0,1,1.22-.48,1.56,1.56,0,0,1,1.19.54,1.81,1.81,0,0,1,.49,1.27,3.68,3.68,0,0,1-.32,1.53,11.28,11.28,0,0,1-.81,1.32c-.12.17-.29.44-.52.8l-.19.3c-.12.19-.22.35-.28.46a.79.79,0,0,0-.05.1h2.08v1.08H15v-1a2.45,2.45,0,0,1,.24-.4l.24-.38.27-.42.76-1.1a7.31,7.31,0,0,0,.73-1.29,2.51,2.51,0,0,0,.2-1,.87.87,0,0,0-.18-.56.62.62,0,0,0-.5-.24c-.3,0-.5.18-.63.53a1.25,1.25,0,0,0-.06.42v.28h-1Z" fill="#020303"/><path d="M22.34,163.14a1.7,1.7,0,0,1-.49,1.24,1.64,1.64,0,0,1-2.38,0,1.7,1.7,0,0,1-.49-1.23v-4a1.7,1.7,0,0,1,.49-1.24,1.6,1.6,0,0,1,1.19-.51,1.57,1.57,0,0,1,1.19.51,1.7,1.7,0,0,1,.49,1.23Zm-1.1-4a.64.64,0,0,0-.18-.45.59.59,0,0,0-.43-.19.56.56,0,0,0-.43.19.61.61,0,0,0-.18.45v4a.64.64,0,0,0,.18.45.59.59,0,0,0,.43.19.56.56,0,0,0,.43-.19.61.61,0,0,0,.18-.45Z" fill="#020303"/></g><path d="M84.69,156.46H80.35l-.65-1.54-1.47-2.24-1.79,2.44-.63,1.33H72.14l4-6.17-4-6.62h4.37l.68,1.56,1.42,2.17L80.09,145l.58-1.36h3.79l-3.76,6Z" fill="#e9e9e8"/><path d="M89,156.46l-3.69-12.79h3.67l.36,2.06,1.81,7.33h.22L93.5,146l.36-2.29h3.55l-4.08,12.79Z" fill="#e9e9e8"/><path d="M102.81,156.46H99.19l.17-3.75-.17-9h3.69l-.22,8.66Z" fill="#e9e9e8"/><path d="M109.79,156.46h-3.62l.17-3.75-.17-9h3.69l-.22,8.66Z" fill="#e9e9e8"/><path d="M116.76,156.46h-3.62l.17-3.75-.17-9h3.69l-.22,8.66Z" fill="#e9e9e8"/><path d="M81.55,160.56,81,163.83l-.53.13a5.65,5.65,0,0,0-2.94-1.23c-.7,0-1.06.38-1.06.83,0,1.66,5.33,1.28,5.33,5.31,0,2.14-1.5,4.31-5.16,4.31a12,12,0,0,1-4.1-.76l.51-3.4.36-.28a6.29,6.29,0,0,0,3.69,1.71c.7,0,1.13-.38,1.13-.88,0-1.66-5.36-1.31-5.36-5.39,0-2.39,1.88-4.28,5.14-4.28A10.64,10.64,0,0,1,81.55,160.56Z" fill="#e9e9e8"/><path d="M90.36,172.92H86.74l.17-3.4,0-.53-4.15-8.86h3.81l.31,1,1.71,4h.19l1.95-3.85.43-1.18h3.72l-4.63,8.76,0,.63Z" fill="#e9e9e8"/><path d="M106.87,172.92l-.1-3.88-.31-3.35h-.19l-2.32,6h-2.77l-2-6H99l-.31,3-.22,4.23H95.34l1.25-12.79h4.3l.41,1.84,1.35,4.76h.24l1.47-4.66.51-1.94H109l1.09,12.79Z" fill="#e9e9e8"/><path d="M118.45,160.11c2.85,0,4.44,1.46,4.44,4,0,3.05-2.27,5.06-5.67,5.06h-1.09l.12,3.7h-3.62l.17-3.75-.17-9Zm-.68,6.44a1.93,1.93,0,0,0,1.3-2c0-1.21-.6-1.69-1.88-1.76l-.94.08-.1,3.63Z" fill="#e9e9e8"/><path d="M136.21,166.2c0,4.43-2.32,7-6.4,7-3.74,0-5.86-2.34-5.86-6.45,0-4.33,2.32-6.82,6.4-6.82C134.09,159.91,136.21,162.2,136.21,166.2Zm-8.47,0c0,3.25.6,4.08,2.39,4.08s2.29-.71,2.29-3.3c0-3.2-.58-4.08-2.41-4.08S127.74,163.66,127.74,166.23Z" fill="#e9e9e8"/><path d="M146.64,160.56l-.53,3.27-.53.13a5.65,5.65,0,0,0-2.94-1.23c-.7,0-1.06.38-1.06.83,0,1.66,5.33,1.28,5.33,5.31,0,2.14-1.5,4.31-5.16,4.31a12,12,0,0,1-4.1-.76l.51-3.4.36-.28a6.29,6.29,0,0,0,3.69,1.71c.7,0,1.13-.38,1.13-.88,0-1.66-5.36-1.31-5.36-5.39,0-2.39,1.88-4.28,5.14-4.28A10.74,10.74,0,0,1,146.64,160.56Z" fill="#e9e9e8"/><path d="M153,172.92h-3.62l.17-3.75-.17-9h3.69l-.22,8.66Z" fill="#e9e9e8"/><path d="M167,168.64c0,2.9-2,4.51-5.57,4.51s-5.33-1.61-5.26-4.51l0-2-.1-6.47h3.62l-.17,8c0,1.41.6,2,2,2s2-.6,2-2l-.17-8h3.69l-.12,6.5Z" fill="#e9e9e8"/><path d="M180.76,172.92l-.1-3.88-.31-3.35h-.19l-2.32,6h-2.77l-2-6h-.24l-.31,3-.22,4.23h-3.09l1.25-12.79h4.3l.41,1.84,1.35,4.76h.24l1.47-4.66.51-1.94h4.17L184,172.92Z" fill="#e9e9e8"/></svg>